G75*
%MOIN*%
%OFA0B0*%
%FSLAX25Y25*%
%IPPOS*%
%LPD*%
%AMOC8*
5,1,8,0,0,1.08239X$1,22.5*
%
%ADD10C,0.00000*%
%ADD11C,0.10000*%
%ADD12OC8,0.08500*%
%ADD13C,0.06300*%
%ADD14OC8,0.06300*%
%ADD15OC8,0.05200*%
%ADD16R,0.06299X0.07087*%
%ADD17C,0.07600*%
%ADD18C,0.05200*%
%ADD19C,0.05200*%
%ADD20C,0.08600*%
%ADD21C,0.07087*%
%ADD22OC8,0.07400*%
%ADD23R,0.05150X0.05150*%
%ADD24C,0.02200*%
%ADD25C,0.04000*%
D10*
X0005620Y0040337D02*
X0005620Y0265298D01*
X0394321Y0265298D01*
X0394321Y0040337D01*
X0005620Y0040337D01*
D11*
X0015935Y0050180D02*
X0025935Y0050180D01*
X0060935Y0050180D02*
X0070935Y0050180D01*
X0105935Y0050180D02*
X0115935Y0050180D01*
X0131407Y0088487D02*
X0131407Y0098487D01*
X0115935Y0102148D02*
X0105935Y0102148D01*
X0086407Y0098487D02*
X0086407Y0088487D01*
X0070935Y0102148D02*
X0060935Y0102148D01*
X0041407Y0098487D02*
X0041407Y0088487D01*
X0025935Y0102148D02*
X0015935Y0102148D01*
X0215935Y0102148D02*
X0225935Y0102148D01*
X0241407Y0098487D02*
X0241407Y0088487D01*
X0260935Y0102148D02*
X0270935Y0102148D01*
X0286407Y0098487D02*
X0286407Y0088487D01*
X0305935Y0102148D02*
X0315935Y0102148D01*
X0331407Y0098487D02*
X0331407Y0088487D01*
X0315935Y0050180D02*
X0305935Y0050180D01*
X0270935Y0050180D02*
X0260935Y0050180D01*
X0225935Y0050180D02*
X0215935Y0050180D01*
D12*
X0085620Y0130337D03*
X0085620Y0235337D03*
X0260620Y0190337D03*
X0260620Y0170337D03*
D13*
X0085620Y0165337D03*
X0075620Y0220337D03*
D14*
X0085620Y0220337D03*
X0075620Y0165337D03*
D15*
X0065620Y0185337D03*
X0085620Y0185337D03*
X0085620Y0200337D03*
X0065620Y0200337D03*
X0130620Y0210337D03*
X0140620Y0210337D03*
X0150620Y0210337D03*
X0160620Y0210337D03*
X0170620Y0210337D03*
X0190620Y0215337D03*
X0195620Y0200337D03*
X0200620Y0192837D03*
X0205620Y0200337D03*
X0218120Y0200337D03*
X0225620Y0195337D03*
X0225620Y0205337D03*
X0235620Y0215337D03*
X0265620Y0215337D03*
X0280620Y0215337D03*
X0295620Y0210337D03*
X0310620Y0220337D03*
X0310620Y0230337D03*
X0310620Y0240337D03*
X0295620Y0240337D03*
X0280620Y0245337D03*
X0315620Y0210337D03*
X0340620Y0220337D03*
X0340620Y0230337D03*
X0340620Y0240337D03*
X0360620Y0230337D03*
X0345620Y0210337D03*
X0360620Y0200337D03*
X0360620Y0160337D03*
X0350620Y0150337D03*
X0340620Y0140337D03*
X0340620Y0130337D03*
X0340620Y0120337D03*
X0360620Y0130337D03*
X0320620Y0150337D03*
X0310620Y0140337D03*
X0310620Y0130337D03*
X0310620Y0120337D03*
X0295620Y0120337D03*
X0280620Y0115337D03*
X0280620Y0145337D03*
X0295620Y0150337D03*
X0265620Y0150337D03*
X0235620Y0150337D03*
X0225620Y0165337D03*
X0218120Y0170337D03*
X0225620Y0175337D03*
X0205620Y0170337D03*
X0200620Y0177837D03*
X0195620Y0170337D03*
X0190620Y0155337D03*
X0170620Y0150337D03*
X0160620Y0150337D03*
X0150620Y0150337D03*
X0140620Y0150337D03*
X0130620Y0150337D03*
X0130620Y0120337D03*
X0140620Y0120337D03*
X0150620Y0120337D03*
X0160620Y0120337D03*
X0170620Y0120337D03*
X0190620Y0125337D03*
X0170620Y0240337D03*
X0160620Y0240337D03*
X0150620Y0240337D03*
X0140620Y0240337D03*
X0130620Y0240337D03*
X0190620Y0245337D03*
D16*
X0176132Y0180337D03*
X0165108Y0180337D03*
X0136132Y0180337D03*
X0125108Y0180337D03*
X0300108Y0180337D03*
X0311132Y0180337D03*
X0320108Y0180337D03*
X0331132Y0180337D03*
D17*
X0060620Y0170180D03*
X0060620Y0150494D03*
X0060620Y0210494D03*
X0060620Y0230180D03*
D18*
X0135620Y0195337D03*
X0145620Y0195337D03*
X0155620Y0195337D03*
X0165620Y0195337D03*
X0165620Y0165337D03*
X0155620Y0165337D03*
X0145620Y0165337D03*
X0135620Y0165337D03*
D19*
X0210620Y0137937D02*
X0210620Y0132737D01*
X0220620Y0127937D02*
X0220620Y0122737D01*
X0243020Y0130337D02*
X0248220Y0130337D01*
X0253020Y0120337D02*
X0258220Y0120337D01*
X0263020Y0130337D02*
X0268220Y0130337D01*
X0220620Y0142737D02*
X0220620Y0147937D01*
X0275620Y0162737D02*
X0275620Y0167937D01*
X0285620Y0167937D02*
X0285620Y0162737D01*
X0295620Y0162737D02*
X0295620Y0167937D01*
X0305620Y0167937D02*
X0305620Y0162737D01*
X0315620Y0162737D02*
X0315620Y0167937D01*
X0325620Y0167937D02*
X0325620Y0162737D01*
X0335620Y0162737D02*
X0335620Y0167937D01*
X0345620Y0167937D02*
X0345620Y0162737D01*
X0345620Y0192737D02*
X0345620Y0197937D01*
X0335620Y0197937D02*
X0335620Y0192737D01*
X0325620Y0192737D02*
X0325620Y0197937D01*
X0315620Y0197937D02*
X0315620Y0192737D01*
X0305620Y0192737D02*
X0305620Y0197937D01*
X0295620Y0197937D02*
X0295620Y0192737D01*
X0285620Y0192737D02*
X0285620Y0197937D01*
X0275620Y0197937D02*
X0275620Y0192737D01*
X0220620Y0232737D02*
X0220620Y0237937D01*
X0210620Y0242737D02*
X0210620Y0247937D01*
X0238020Y0235337D02*
X0243220Y0235337D01*
X0248020Y0245337D02*
X0253220Y0245337D01*
X0258020Y0235337D02*
X0263220Y0235337D01*
X0210620Y0227937D02*
X0210620Y0222737D01*
D20*
X0185305Y0055337D03*
X0165620Y0055337D03*
X0145935Y0055337D03*
X0345935Y0055337D03*
X0365620Y0055337D03*
X0385305Y0055337D03*
D21*
X0375620Y0051794D02*
X0375620Y0058880D01*
X0355620Y0058880D02*
X0355620Y0051794D01*
X0175620Y0051794D02*
X0175620Y0058880D01*
X0155620Y0058880D02*
X0155620Y0051794D01*
D22*
X0035620Y0165337D03*
X0025620Y0165337D03*
X0025620Y0175337D03*
X0035620Y0175337D03*
X0035620Y0185337D03*
X0025620Y0185337D03*
X0025620Y0195337D03*
X0035620Y0195337D03*
X0035620Y0205337D03*
X0025620Y0205337D03*
X0025620Y0215337D03*
X0035620Y0215337D03*
X0035620Y0225337D03*
X0025620Y0225337D03*
X0025620Y0235337D03*
X0035620Y0235337D03*
D23*
X0210620Y0235337D03*
X0250620Y0235337D03*
X0220620Y0135337D03*
X0255620Y0130337D03*
D24*
X0245620Y0130337D02*
X0245020Y0130337D01*
X0227020Y0148337D01*
X0227020Y0150137D01*
X0207220Y0169937D01*
X0205620Y0170337D01*
X0196420Y0160937D02*
X0189220Y0168137D01*
X0189220Y0180737D01*
X0176620Y0180737D01*
X0176132Y0180337D01*
X0165820Y0178937D02*
X0165108Y0180337D01*
X0165820Y0178937D02*
X0165820Y0166337D01*
X0165620Y0165337D01*
X0165820Y0164537D01*
X0189220Y0141137D01*
X0189220Y0126737D01*
X0190620Y0125337D01*
X0196420Y0123137D02*
X0192820Y0119537D01*
X0192820Y0114137D01*
X0227020Y0079937D01*
X0290020Y0079937D01*
X0295420Y0085337D01*
X0295420Y0103337D01*
X0300820Y0108737D01*
X0300820Y0130337D01*
X0309820Y0139337D01*
X0310620Y0140337D01*
X0320620Y0132137D02*
X0320620Y0150337D01*
X0309820Y0155537D02*
X0264820Y0110537D01*
X0228820Y0110537D01*
X0221620Y0103337D01*
X0220935Y0102148D01*
X0192820Y0119537D02*
X0171220Y0119537D01*
X0170620Y0120337D01*
X0160620Y0120337D02*
X0160420Y0121337D01*
X0137020Y0144737D01*
X0128020Y0144737D01*
X0124420Y0148337D01*
X0124420Y0168137D01*
X0135220Y0178937D01*
X0136132Y0180337D01*
X0137020Y0180737D01*
X0137020Y0195137D01*
X0135620Y0195337D01*
X0137020Y0196937D01*
X0140620Y0200537D01*
X0194620Y0200537D01*
X0195620Y0200337D01*
X0200620Y0192837D02*
X0200020Y0191537D01*
X0169420Y0191537D01*
X0167620Y0189737D01*
X0151420Y0189737D01*
X0146020Y0195137D01*
X0145620Y0195337D01*
X0125108Y0180337D02*
X0124420Y0180737D01*
X0124420Y0213137D01*
X0129820Y0218537D01*
X0147820Y0218537D01*
X0169420Y0240137D01*
X0170620Y0240337D01*
X0169420Y0241937D01*
X0165820Y0245537D01*
X0128020Y0245537D01*
X0117220Y0234737D01*
X0117220Y0207737D01*
X0110020Y0200537D01*
X0086620Y0200537D01*
X0085620Y0200337D01*
X0072220Y0195137D02*
X0072220Y0171737D01*
X0021820Y0121337D01*
X0021820Y0103337D01*
X0020935Y0102148D01*
X0065935Y0102148D02*
X0066820Y0103337D01*
X0066820Y0133937D01*
X0120820Y0187937D01*
X0120820Y0214937D01*
X0128020Y0222137D01*
X0131620Y0222137D01*
X0149620Y0240137D01*
X0150620Y0240337D01*
X0170620Y0240337D02*
X0171220Y0240137D01*
X0174820Y0240137D01*
X0210820Y0204137D01*
X0210820Y0186137D01*
X0200020Y0186137D01*
X0194620Y0180737D01*
X0189220Y0180737D01*
X0210820Y0186137D02*
X0216220Y0186137D01*
X0219820Y0189737D01*
X0232420Y0177137D01*
X0232420Y0171737D01*
X0241420Y0162737D01*
X0263020Y0162737D01*
X0279220Y0146537D01*
X0280620Y0145337D01*
X0281020Y0146537D01*
X0291820Y0157337D01*
X0299020Y0157337D01*
X0306220Y0164537D01*
X0305620Y0165337D01*
X0306220Y0166337D01*
X0313420Y0173537D01*
X0315220Y0173537D01*
X0318820Y0177137D01*
X0318820Y0178937D01*
X0320108Y0180337D01*
X0329620Y0178937D02*
X0331132Y0180337D01*
X0331420Y0180737D01*
X0342220Y0180737D01*
X0345820Y0184337D01*
X0367420Y0162737D01*
X0367420Y0128537D01*
X0345820Y0106937D01*
X0320620Y0132137D01*
X0309820Y0155537D02*
X0335020Y0155537D01*
X0360220Y0130337D01*
X0360620Y0130337D01*
X0345820Y0106937D02*
X0345820Y0056537D01*
X0345935Y0055337D01*
X0358420Y0045737D02*
X0331420Y0045737D01*
X0300820Y0076337D01*
X0194620Y0076337D01*
X0150620Y0120337D01*
X0140620Y0130337D01*
X0085620Y0130337D01*
X0072220Y0195137D02*
X0092020Y0214937D01*
X0092020Y0220337D01*
X0133420Y0261737D01*
X0329620Y0261737D01*
X0360220Y0231137D01*
X0360620Y0230337D01*
X0338620Y0209537D02*
X0344020Y0204137D01*
X0347620Y0204137D01*
X0351220Y0200537D01*
X0351220Y0189737D01*
X0345820Y0184337D01*
X0329620Y0178937D02*
X0329620Y0169937D01*
X0326020Y0166337D01*
X0325620Y0165337D01*
X0305620Y0165337D02*
X0304420Y0166337D01*
X0300820Y0169937D01*
X0300820Y0178937D01*
X0300108Y0180337D01*
X0300820Y0180737D01*
X0304420Y0184337D01*
X0304420Y0195137D01*
X0305620Y0195337D01*
X0311620Y0187937D02*
X0311620Y0180737D01*
X0311132Y0180337D01*
X0325620Y0195337D02*
X0324220Y0196937D01*
X0317020Y0204137D01*
X0313420Y0204137D01*
X0304420Y0213137D01*
X0304420Y0234737D01*
X0309820Y0240137D01*
X0310620Y0240337D01*
X0295620Y0240337D02*
X0295420Y0240137D01*
X0266620Y0240137D01*
X0248620Y0258137D01*
X0135220Y0258137D01*
X0111820Y0234737D01*
X0111820Y0209537D01*
X0190620Y0245337D02*
X0191020Y0245537D01*
X0200020Y0254537D01*
X0212620Y0254537D01*
X0230620Y0236537D01*
X0239620Y0236537D01*
X0240620Y0235337D01*
X0227020Y0229337D02*
X0221620Y0234737D01*
X0220620Y0235337D01*
X0227020Y0229337D02*
X0277420Y0229337D01*
X0295420Y0211337D01*
X0295620Y0210337D01*
X0295420Y0209537D01*
X0295420Y0196937D01*
X0295620Y0195337D01*
X0315620Y0210337D02*
X0317020Y0209537D01*
X0338620Y0209537D01*
X0232420Y0171737D02*
X0227020Y0166337D01*
X0225620Y0165337D01*
X0196420Y0160937D02*
X0196420Y0123137D01*
X0219820Y0189737D02*
X0225220Y0195137D01*
X0225620Y0195337D01*
X0365620Y0055337D02*
X0365620Y0054737D01*
X0362020Y0051137D01*
X0362020Y0049337D01*
X0358420Y0045737D01*
X0220935Y0050180D02*
X0219820Y0049337D01*
X0216220Y0045737D01*
X0144220Y0045737D01*
X0140620Y0049337D01*
X0111820Y0049337D01*
X0110935Y0050180D01*
D25*
X0311620Y0187937D03*
X0111820Y0209537D03*
M02*
