G75*
%MOIN*%
%OFA0B0*%
%FSLAX25Y25*%
%IPPOS*%
%LPD*%
%AMOC8*
5,1,8,0,0,1.08239X$1,22.5*
%
%ADD10C,0.00000*%
%ADD11C,0.00500*%
%ADD12C,0.00600*%
%ADD13C,0.00400*%
D10*
X0005620Y0040337D02*
X0005620Y0265298D01*
X0394321Y0265298D01*
X0394321Y0040337D01*
X0005620Y0040337D01*
D11*
X0107297Y0255587D02*
X0108315Y0256605D01*
X0108315Y0260675D01*
X0109332Y0259657D02*
X0107297Y0259657D01*
X0112366Y0259657D02*
X0112366Y0255587D01*
X0111349Y0255587D02*
X0113384Y0255587D01*
X0115391Y0255587D02*
X0118443Y0255587D01*
X0119461Y0256605D01*
X0119461Y0258640D01*
X0118443Y0259657D01*
X0115391Y0259657D01*
X0115391Y0254569D01*
X0116408Y0253552D01*
X0117426Y0253552D01*
X0121482Y0255587D02*
X0121482Y0256605D01*
X0122500Y0256605D01*
X0122500Y0255587D01*
X0121482Y0255587D01*
X0125529Y0259657D02*
X0127564Y0257622D01*
X0129571Y0257622D02*
X0129571Y0258640D01*
X0130588Y0259657D01*
X0132623Y0259657D01*
X0133641Y0258640D01*
X0133641Y0256605D01*
X0132623Y0255587D01*
X0130588Y0255587D01*
X0129571Y0257622D02*
X0133641Y0257622D01*
X0135648Y0255587D02*
X0138701Y0255587D01*
X0139718Y0256605D01*
X0139718Y0259657D01*
X0141725Y0258640D02*
X0141725Y0255587D01*
X0144778Y0255587D01*
X0145795Y0256605D01*
X0144778Y0257622D01*
X0141725Y0257622D01*
X0141725Y0258640D02*
X0142743Y0259657D01*
X0144778Y0259657D01*
X0151873Y0261692D02*
X0151873Y0255587D01*
X0147802Y0255587D01*
X0153880Y0255587D02*
X0157950Y0255587D01*
X0153880Y0259657D01*
X0153880Y0260675D01*
X0154897Y0261692D01*
X0156932Y0261692D01*
X0157950Y0260675D01*
X0159957Y0258640D02*
X0164027Y0258640D01*
X0166034Y0258640D02*
X0170104Y0258640D01*
X0170104Y0259657D02*
X0168069Y0261692D01*
X0166034Y0259657D01*
X0166034Y0255587D01*
X0170104Y0255587D02*
X0170104Y0259657D01*
X0172111Y0260675D02*
X0173129Y0261692D01*
X0175164Y0261692D01*
X0176181Y0260675D01*
X0176181Y0256605D01*
X0175164Y0255587D01*
X0173129Y0255587D01*
X0172111Y0256605D01*
X0178188Y0257622D02*
X0178188Y0261692D01*
X0182259Y0261692D02*
X0182259Y0257622D01*
X0180223Y0255587D01*
X0178188Y0257622D01*
X0184266Y0258640D02*
X0188336Y0258640D01*
X0191370Y0261692D02*
X0191370Y0255587D01*
X0192387Y0255587D02*
X0190352Y0255587D01*
X0194394Y0255587D02*
X0197447Y0255587D01*
X0198464Y0256605D01*
X0197447Y0257622D01*
X0194394Y0257622D01*
X0194394Y0258640D02*
X0194394Y0255587D01*
X0194394Y0258640D02*
X0195412Y0259657D01*
X0197447Y0259657D01*
X0200471Y0259657D02*
X0200471Y0255587D01*
X0203524Y0255587D01*
X0204542Y0256605D01*
X0204542Y0259657D01*
X0206549Y0260675D02*
X0207566Y0261692D01*
X0210619Y0261692D01*
X0210619Y0255587D01*
X0207566Y0255587D01*
X0206549Y0256605D01*
X0206549Y0260675D01*
X0212626Y0258640D02*
X0216696Y0258640D01*
X0218703Y0257622D02*
X0219721Y0258640D01*
X0221756Y0258640D01*
X0222773Y0259657D01*
X0222773Y0260675D01*
X0221756Y0261692D01*
X0219721Y0261692D01*
X0218703Y0260675D01*
X0218703Y0257622D02*
X0218703Y0256605D01*
X0219721Y0255587D01*
X0221756Y0255587D01*
X0222773Y0256605D01*
X0224780Y0256605D02*
X0225798Y0255587D01*
X0227833Y0255587D01*
X0228850Y0256605D01*
X0228850Y0260675D01*
X0227833Y0261692D01*
X0225798Y0261692D01*
X0224780Y0260675D01*
X0224780Y0256605D01*
X0230857Y0261692D02*
X0234928Y0261692D01*
X0234928Y0255587D01*
X0236935Y0255587D02*
X0236935Y0261692D01*
X0238970Y0259657D01*
X0241005Y0261692D01*
X0241005Y0255587D01*
X0247082Y0255587D02*
X0243012Y0261692D01*
X0249089Y0258640D02*
X0249089Y0255587D01*
X0251124Y0255587D02*
X0251124Y0258640D01*
X0250106Y0259657D01*
X0249089Y0258640D01*
X0251124Y0258640D02*
X0252142Y0259657D01*
X0253159Y0259657D01*
X0253159Y0255587D01*
X0255171Y0255587D02*
X0258223Y0257622D01*
X0255171Y0259657D01*
X0258223Y0261692D02*
X0258223Y0255587D01*
X0260230Y0255587D02*
X0263283Y0255587D01*
X0264301Y0256605D01*
X0264301Y0258640D01*
X0263283Y0259657D01*
X0260230Y0259657D01*
X0266308Y0259657D02*
X0266308Y0255587D01*
X0269360Y0255587D01*
X0270378Y0256605D01*
X0270378Y0259657D01*
X0272385Y0258640D02*
X0272385Y0257622D01*
X0276455Y0257622D01*
X0276455Y0256605D02*
X0276455Y0258640D01*
X0275437Y0259657D01*
X0273402Y0259657D01*
X0272385Y0258640D01*
X0275437Y0255587D02*
X0276455Y0256605D01*
X0275437Y0255587D02*
X0273402Y0255587D01*
X0278462Y0256605D02*
X0278462Y0258640D01*
X0279480Y0259657D01*
X0282532Y0259657D01*
X0284549Y0259657D02*
X0284549Y0254569D01*
X0285566Y0253552D01*
X0286584Y0253552D01*
X0282532Y0255587D02*
X0279480Y0255587D01*
X0278462Y0256605D01*
X0282532Y0255587D02*
X0282532Y0261692D01*
X0284549Y0261692D02*
X0284549Y0262710D01*
X0288591Y0261692D02*
X0292661Y0255587D01*
X0294668Y0255587D02*
X0294668Y0258640D01*
X0295685Y0259657D01*
X0296703Y0258640D01*
X0296703Y0255587D01*
X0298738Y0255587D02*
X0298738Y0259657D01*
X0297720Y0259657D01*
X0296703Y0258640D01*
X0300745Y0258640D02*
X0300745Y0256605D01*
X0301763Y0255587D01*
X0303798Y0255587D01*
X0304815Y0256605D01*
X0304815Y0258640D01*
X0303798Y0259657D01*
X0301763Y0259657D01*
X0300745Y0258640D01*
X0306822Y0259657D02*
X0309875Y0259657D01*
X0310892Y0258640D01*
X0310892Y0256605D01*
X0309875Y0255587D01*
X0306822Y0255587D01*
X0312913Y0255587D02*
X0313931Y0255587D01*
X0313931Y0256605D01*
X0312913Y0256605D01*
X0312913Y0255587D01*
X0315938Y0256605D02*
X0315938Y0258640D01*
X0316956Y0259657D01*
X0320008Y0259657D01*
X0322015Y0259657D02*
X0322015Y0255587D01*
X0325068Y0255587D01*
X0326085Y0256605D01*
X0326085Y0259657D01*
X0328092Y0258640D02*
X0328092Y0255587D01*
X0332163Y0255587D02*
X0332163Y0261692D01*
X0331145Y0259657D02*
X0329110Y0259657D01*
X0328092Y0258640D01*
X0331145Y0259657D02*
X0332163Y0258640D01*
X0334179Y0259657D02*
X0336214Y0259657D01*
X0335196Y0260675D02*
X0335196Y0256605D01*
X0334179Y0255587D01*
X0338230Y0255587D02*
X0340265Y0255587D01*
X0339248Y0255587D02*
X0339248Y0259657D01*
X0340265Y0259657D01*
X0342272Y0259657D02*
X0345325Y0259657D01*
X0346343Y0258640D01*
X0346343Y0256605D01*
X0345325Y0255587D01*
X0342272Y0255587D01*
X0342272Y0254569D02*
X0342272Y0259657D01*
X0339248Y0261692D02*
X0339248Y0262710D01*
X0342272Y0254569D02*
X0343290Y0253552D01*
X0344308Y0253552D01*
X0352420Y0255587D02*
X0348350Y0261692D01*
X0354427Y0261692D02*
X0358497Y0255587D01*
X0360518Y0255587D02*
X0360518Y0256605D01*
X0361536Y0256605D01*
X0361536Y0255587D01*
X0360518Y0255587D01*
X0363543Y0256605D02*
X0364560Y0257622D01*
X0366595Y0257622D01*
X0367613Y0258640D01*
X0366595Y0259657D01*
X0363543Y0259657D01*
X0361536Y0259657D02*
X0361536Y0258640D01*
X0360518Y0258640D01*
X0360518Y0259657D01*
X0361536Y0259657D01*
X0363543Y0256605D02*
X0364560Y0255587D01*
X0367613Y0255587D01*
X0369620Y0256605D02*
X0370637Y0255587D01*
X0373690Y0255587D01*
X0375706Y0255587D02*
X0376724Y0256605D01*
X0376724Y0260675D01*
X0377741Y0259657D02*
X0375706Y0259657D01*
X0373690Y0259657D02*
X0370637Y0259657D01*
X0369620Y0258640D01*
X0369620Y0256605D01*
X0373690Y0253552D02*
X0373690Y0259657D01*
X0379758Y0259657D02*
X0381793Y0259657D01*
X0380775Y0260675D02*
X0380775Y0256605D01*
X0379758Y0255587D01*
X0383800Y0255587D02*
X0383800Y0258640D01*
X0384817Y0259657D01*
X0386853Y0259657D01*
X0387870Y0258640D01*
X0387870Y0261692D02*
X0387870Y0255587D01*
X0320008Y0255587D02*
X0316956Y0255587D01*
X0315938Y0256605D01*
X0320008Y0255587D02*
X0320008Y0261692D01*
X0234928Y0258640D02*
X0232892Y0258640D01*
X0192387Y0261692D02*
X0191370Y0261692D01*
X0137683Y0253552D02*
X0136666Y0253552D01*
X0135648Y0254569D01*
X0135648Y0259657D01*
X0127564Y0259657D02*
X0127564Y0255587D01*
X0125529Y0259657D02*
X0124511Y0259657D01*
X0113384Y0259657D02*
X0112366Y0259657D01*
X0112366Y0261692D02*
X0112366Y0262710D01*
D12*
X0376420Y0240962D02*
X0376420Y0236691D01*
X0376420Y0238827D02*
X0382826Y0238827D01*
X0380690Y0236691D01*
X0377488Y0234536D02*
X0377488Y0233469D01*
X0376420Y0233469D01*
X0376420Y0234536D01*
X0377488Y0234536D01*
X0377488Y0231293D02*
X0376420Y0230226D01*
X0376420Y0228091D01*
X0377488Y0227023D01*
X0381758Y0231293D01*
X0377488Y0231293D01*
X0377488Y0227023D02*
X0381758Y0227023D01*
X0382826Y0228091D01*
X0382826Y0230226D01*
X0381758Y0231293D01*
X0380690Y0224848D02*
X0376420Y0222713D01*
X0380690Y0220578D01*
X0379623Y0211957D02*
X0378555Y0211957D01*
X0378555Y0207687D01*
X0377488Y0207687D02*
X0379623Y0207687D01*
X0380690Y0208754D01*
X0380690Y0210889D01*
X0379623Y0211957D01*
X0376420Y0210889D02*
X0376420Y0208754D01*
X0377488Y0207687D01*
X0377488Y0205511D02*
X0378555Y0204444D01*
X0378555Y0202309D01*
X0379623Y0201241D01*
X0380690Y0202309D01*
X0380690Y0205511D01*
X0377488Y0205511D02*
X0376420Y0204444D01*
X0376420Y0201241D01*
X0376420Y0199066D02*
X0376420Y0195863D01*
X0377488Y0194796D01*
X0378555Y0195863D01*
X0378555Y0199066D01*
X0379623Y0199066D02*
X0376420Y0199066D01*
X0379623Y0199066D02*
X0380690Y0197998D01*
X0380690Y0195863D01*
X0379623Y0192620D02*
X0378555Y0192620D01*
X0378555Y0188350D01*
X0377488Y0188350D02*
X0379623Y0188350D01*
X0380690Y0189418D01*
X0380690Y0191553D01*
X0379623Y0192620D01*
X0376420Y0191553D02*
X0376420Y0189418D01*
X0377488Y0188350D01*
X0376420Y0186188D02*
X0376420Y0184053D01*
X0376420Y0185121D02*
X0382826Y0185121D01*
X0382826Y0184053D01*
X0379623Y0181878D02*
X0378555Y0181878D01*
X0378555Y0177608D01*
X0377488Y0177608D02*
X0379623Y0177608D01*
X0380690Y0178675D01*
X0380690Y0180810D01*
X0379623Y0181878D01*
X0376420Y0180810D02*
X0376420Y0178675D01*
X0377488Y0177608D01*
X0376420Y0175432D02*
X0378555Y0173297D01*
X0378555Y0174365D02*
X0378555Y0171162D01*
X0376420Y0171162D02*
X0382826Y0171162D01*
X0382826Y0174365D01*
X0381758Y0175432D01*
X0379623Y0175432D01*
X0378555Y0174365D01*
D13*
X0340424Y0175908D02*
X0340424Y0177443D01*
X0339657Y0178210D01*
X0336587Y0175141D01*
X0335820Y0175908D01*
X0335820Y0177443D01*
X0336587Y0178210D01*
X0339657Y0178210D01*
X0339657Y0179745D02*
X0340424Y0180512D01*
X0340424Y0182047D01*
X0339657Y0182814D01*
X0336587Y0179745D01*
X0335820Y0180512D01*
X0335820Y0182047D01*
X0336587Y0182814D01*
X0339657Y0182814D01*
X0338889Y0184349D02*
X0335820Y0184349D01*
X0335820Y0187418D02*
X0338122Y0187418D01*
X0338889Y0186651D01*
X0338889Y0184349D01*
X0339657Y0179745D02*
X0336587Y0179745D01*
X0340424Y0175908D02*
X0339657Y0175141D01*
X0336587Y0175141D01*
X0335820Y0173606D02*
X0335820Y0170537D01*
X0335820Y0172072D02*
X0340424Y0172072D01*
X0338889Y0170537D01*
X0295424Y0168656D02*
X0293889Y0167121D01*
X0295424Y0168656D02*
X0290820Y0168656D01*
X0290820Y0167121D02*
X0290820Y0170191D01*
X0291587Y0171725D02*
X0294657Y0174794D01*
X0291587Y0174794D01*
X0290820Y0174027D01*
X0290820Y0172493D01*
X0291587Y0171725D01*
X0294657Y0171725D01*
X0295424Y0172493D01*
X0295424Y0174027D01*
X0294657Y0174794D01*
X0294657Y0176329D02*
X0291587Y0176329D01*
X0294657Y0179398D01*
X0291587Y0179398D01*
X0290820Y0178631D01*
X0290820Y0177096D01*
X0291587Y0176329D01*
X0294657Y0176329D02*
X0295424Y0177096D01*
X0295424Y0178631D01*
X0294657Y0179398D01*
X0293889Y0180933D02*
X0293889Y0183235D01*
X0293122Y0184002D01*
X0290820Y0184002D01*
X0290820Y0180933D02*
X0293889Y0180933D01*
X0175420Y0173606D02*
X0173885Y0175141D01*
X0173885Y0170537D01*
X0172351Y0170537D02*
X0175420Y0170537D01*
X0170816Y0171304D02*
X0170816Y0174374D01*
X0170049Y0175141D01*
X0168514Y0175141D01*
X0167747Y0174374D01*
X0170816Y0171304D01*
X0170049Y0170537D01*
X0168514Y0170537D01*
X0167747Y0171304D01*
X0167747Y0174374D01*
X0166212Y0174374D02*
X0165445Y0175141D01*
X0163910Y0175141D01*
X0163143Y0174374D01*
X0166212Y0171304D01*
X0165445Y0170537D01*
X0163910Y0170537D01*
X0163143Y0171304D01*
X0163143Y0174374D01*
X0161608Y0173606D02*
X0159306Y0173606D01*
X0158539Y0172839D01*
X0158539Y0170537D01*
X0161608Y0170537D02*
X0161608Y0173606D01*
X0166212Y0174374D02*
X0166212Y0171304D01*
X0135420Y0170537D02*
X0132351Y0170537D01*
X0133885Y0170537D02*
X0133885Y0175141D01*
X0135420Y0173606D01*
X0130816Y0174374D02*
X0130816Y0171304D01*
X0127747Y0174374D01*
X0127747Y0171304D01*
X0128514Y0170537D01*
X0130049Y0170537D01*
X0130816Y0171304D01*
X0130816Y0174374D02*
X0130049Y0175141D01*
X0128514Y0175141D01*
X0127747Y0174374D01*
X0126212Y0174374D02*
X0125445Y0175141D01*
X0123910Y0175141D01*
X0123143Y0174374D01*
X0126212Y0171304D01*
X0125445Y0170537D01*
X0123910Y0170537D01*
X0123143Y0171304D01*
X0123143Y0174374D01*
X0121608Y0173606D02*
X0119306Y0173606D01*
X0118539Y0172839D01*
X0118539Y0170537D01*
X0121608Y0170537D02*
X0121608Y0173606D01*
X0126212Y0174374D02*
X0126212Y0171304D01*
X0120420Y0090141D02*
X0118885Y0090141D01*
X0119653Y0090141D02*
X0119653Y0085537D01*
X0120420Y0085537D02*
X0118885Y0085537D01*
X0117351Y0085537D02*
X0117351Y0090141D01*
X0114282Y0085537D01*
X0114282Y0090141D01*
X0112747Y0089374D02*
X0111980Y0090141D01*
X0110445Y0090141D01*
X0109678Y0089374D01*
X0109678Y0088606D01*
X0112747Y0085537D01*
X0109678Y0085537D01*
X0075420Y0086304D02*
X0074653Y0085537D01*
X0073118Y0085537D01*
X0072351Y0086304D01*
X0070816Y0087072D02*
X0070816Y0090141D01*
X0072351Y0089374D02*
X0073118Y0090141D01*
X0074653Y0090141D01*
X0075420Y0089374D01*
X0075420Y0086304D01*
X0070816Y0087072D02*
X0069282Y0085537D01*
X0067747Y0087072D01*
X0067747Y0090141D01*
X0066212Y0089374D02*
X0065445Y0090141D01*
X0063910Y0090141D01*
X0063143Y0089374D01*
X0063143Y0088606D01*
X0066212Y0085537D01*
X0063143Y0085537D01*
X0030420Y0086304D02*
X0029653Y0085537D01*
X0028118Y0085537D01*
X0027351Y0086304D01*
X0027351Y0089374D01*
X0028118Y0090141D01*
X0029653Y0090141D01*
X0030420Y0089374D01*
X0030420Y0086304D01*
X0025816Y0086304D02*
X0025816Y0090141D01*
X0022747Y0090141D02*
X0022747Y0086304D01*
X0023514Y0085537D01*
X0025049Y0085537D01*
X0025816Y0086304D01*
X0021212Y0090141D02*
X0018143Y0090141D01*
X0019678Y0090141D02*
X0019678Y0085537D01*
X0016608Y0085537D02*
X0013539Y0088606D01*
X0013539Y0089374D01*
X0014306Y0090141D01*
X0015841Y0090141D01*
X0016608Y0089374D01*
X0016608Y0085537D02*
X0013539Y0085537D01*
X0213539Y0085537D02*
X0216608Y0085537D01*
X0215074Y0085537D02*
X0215074Y0090141D01*
X0216608Y0088606D01*
X0218143Y0090141D02*
X0221212Y0090141D01*
X0219678Y0090141D02*
X0219678Y0085537D01*
X0222747Y0086304D02*
X0222747Y0090141D01*
X0225816Y0090141D02*
X0225816Y0086304D01*
X0225049Y0085537D01*
X0223514Y0085537D01*
X0222747Y0086304D01*
X0227351Y0086304D02*
X0227351Y0089374D01*
X0228118Y0090141D01*
X0229653Y0090141D01*
X0230420Y0089374D01*
X0230420Y0086304D01*
X0229653Y0085537D01*
X0228118Y0085537D01*
X0227351Y0086304D01*
X0263143Y0085537D02*
X0266212Y0085537D01*
X0264678Y0085537D02*
X0264678Y0090141D01*
X0266212Y0088606D01*
X0267747Y0087072D02*
X0267747Y0090141D01*
X0270816Y0090141D02*
X0270816Y0087072D01*
X0269282Y0085537D01*
X0267747Y0087072D01*
X0272351Y0086304D02*
X0273118Y0085537D01*
X0274653Y0085537D01*
X0275420Y0086304D01*
X0275420Y0089374D01*
X0274653Y0090141D01*
X0273118Y0090141D01*
X0272351Y0089374D01*
X0309678Y0085537D02*
X0312747Y0085537D01*
X0314282Y0085537D02*
X0314282Y0090141D01*
X0312747Y0088606D02*
X0311212Y0090141D01*
X0311212Y0085537D01*
X0314282Y0085537D02*
X0317351Y0090141D01*
X0317351Y0085537D01*
X0318885Y0085537D02*
X0320420Y0085537D01*
X0319653Y0085537D02*
X0319653Y0090141D01*
X0320420Y0090141D02*
X0318885Y0090141D01*
M02*
