%
M48
M72
T01C0.02400
T02C0.03150
T03C0.03200
T04C0.04000
T05C0.04724
T06C0.05118
%
T01
X311620Y187937
X111820Y209537
T02
X255620Y130337
X220620Y135337
X210620Y235337
X250620Y235337
X60620Y230180
X60620Y210494
X60620Y170180
X60620Y150494
T03
X280620Y115337
X295620Y120337
X310620Y120337
X310620Y130337
X310620Y140337
X320620Y150337
X340620Y140337
X340620Y130337
X340620Y120337
X360620Y130337
X350620Y150337
X360620Y160337
X345620Y165337
X335620Y165337
X325620Y165337
X315620Y165337
X305620Y165337
X295620Y165337
X285620Y165337
X275620Y165337
X265620Y150337
X280620Y145337
X295620Y150337
X265620Y130337
X255620Y120337
X245620Y130337
X220620Y125337
X210620Y135337
X220620Y145337
X235620Y150337
X225620Y165337
X218120Y170337
X225620Y175337
X205620Y170337
X200620Y177837
X195620Y170337
X190620Y155337
X170620Y150337
X160620Y150337
X150620Y150337
X140620Y150337
X130620Y150337
X135620Y165337
X145620Y165337
X155620Y165337
X165620Y165337
X200620Y192837
X195620Y200337
X205620Y200337
X218120Y200337
X225620Y195337
X225620Y205337
X235620Y215337
X210620Y225337
X220620Y235337
X210620Y245337
X190620Y245337
X170620Y240337
X160620Y240337
X150620Y240337
X140620Y240337
X130620Y240337
X85620Y220337
X75620Y220337
X65620Y200337
X85620Y200337
X85620Y185337
X65620Y185337
X75620Y165337
X85620Y165337
X135620Y195337
X145620Y195337
X155620Y195337
X165620Y195337
X160620Y210337
X170620Y210337
X150620Y210337
X140620Y210337
X130620Y210337
X190620Y215337
X240620Y235337
X250620Y245337
X260620Y235337
X280620Y245337
X295620Y240337
X310620Y240337
X310620Y230337
X310620Y220337
X315620Y210337
X315620Y195337
X305620Y195337
X295620Y195337
X285620Y195337
X275620Y195337
X295620Y210337
X280620Y215337
X265620Y215337
X325620Y195337
X335620Y195337
X345620Y195337
X360620Y200337
X345620Y210337
X340620Y220337
X340620Y230337
X340620Y240337
X360620Y230337
X190620Y125337
X170620Y120337
X160620Y120337
X150620Y120337
X140620Y120337
X130620Y120337
T04
X260620Y170337
X260620Y190337
X85620Y235337
X35620Y235337
X25620Y235337
X25620Y225337
X35620Y225337
X35620Y215337
X25620Y215337
X25620Y205337
X35620Y205337
X35620Y195337
X25620Y195337
X25620Y185337
X35620Y185337
X35620Y175337
X25620Y175337
X25620Y165337
X35620Y165337
X85620Y130337
T05
X145935Y55337
X155620Y55337
X165620Y55337
X175620Y55337
X185305Y55337
X345935Y55337
X355620Y55337
X365620Y55337
X375620Y55337
X385305Y55337
T06
X20935Y50180
X65935Y50180
X110935Y50180
X131407Y93487
X110935Y102148
X86407Y93487
X65935Y102148
X41407Y93487
X20935Y102148
X220935Y50180
X265935Y50180
X310935Y50180
X331407Y93487
X310935Y102148
X286407Y93487
X265935Y102148
X241407Y93487
X220935Y102148
M30
