G75*
%MOIN*%
%OFA0B0*%
%FSLAX25Y25*%
%IPPOS*%
%LPD*%
%AMOC8*
5,1,8,0,0,1.08239X$1,22.5*
%
%ADD10C,0.00000*%
%ADD11C,0.00500*%
D10*
X0005620Y0040337D02*
X0005620Y0265298D01*
X0394321Y0265298D01*
X0394321Y0040337D01*
X0005620Y0040337D01*
D11*
X0014620Y0048337D02*
X0014620Y0052337D01*
X0027120Y0052337D01*
X0027120Y0048337D01*
X0014620Y0048337D01*
X0059620Y0048337D02*
X0059620Y0052337D01*
X0072120Y0052337D01*
X0072120Y0048337D01*
X0059620Y0048337D01*
X0104620Y0048337D02*
X0104620Y0052337D01*
X0117120Y0052337D01*
X0117120Y0048337D01*
X0104620Y0048337D01*
X0088620Y0087337D02*
X0084620Y0087337D01*
X0084620Y0099837D01*
X0088620Y0099837D01*
X0088620Y0087337D01*
X0104620Y0100337D02*
X0104620Y0104337D01*
X0117120Y0104337D01*
X0117120Y0100337D01*
X0104620Y0100337D01*
X0129620Y0099837D02*
X0129620Y0087337D01*
X0133620Y0087337D01*
X0133620Y0099837D01*
X0129620Y0099837D01*
X0072120Y0100337D02*
X0059620Y0100337D01*
X0059620Y0104337D01*
X0072120Y0104337D01*
X0072120Y0100337D01*
X0043620Y0099837D02*
X0043620Y0087337D01*
X0039620Y0087337D01*
X0039620Y0099837D01*
X0043620Y0099837D01*
X0027120Y0100337D02*
X0014620Y0100337D01*
X0014620Y0104337D01*
X0027120Y0104337D01*
X0027120Y0100337D01*
X0214620Y0100337D02*
X0214620Y0104337D01*
X0227120Y0104337D01*
X0227120Y0100337D01*
X0214620Y0100337D01*
X0239620Y0099837D02*
X0239620Y0087337D01*
X0243620Y0087337D01*
X0243620Y0099837D01*
X0239620Y0099837D01*
X0259620Y0100337D02*
X0259620Y0104337D01*
X0272120Y0104337D01*
X0272120Y0100337D01*
X0259620Y0100337D01*
X0284620Y0099837D02*
X0284620Y0087337D01*
X0288620Y0087337D01*
X0288620Y0099837D01*
X0284620Y0099837D01*
X0304620Y0100337D02*
X0304620Y0104337D01*
X0317120Y0104337D01*
X0317120Y0100337D01*
X0304620Y0100337D01*
X0329620Y0099837D02*
X0329620Y0087337D01*
X0333620Y0087337D01*
X0333620Y0099837D01*
X0329620Y0099837D01*
X0317120Y0052337D02*
X0304620Y0052337D01*
X0304620Y0048337D01*
X0317120Y0048337D01*
X0317120Y0052337D01*
X0272120Y0052337D02*
X0272120Y0048337D01*
X0259620Y0048337D01*
X0259620Y0052337D01*
X0272120Y0052337D01*
X0227120Y0052337D02*
X0227120Y0048337D01*
X0214620Y0048337D01*
X0214620Y0052337D01*
X0227120Y0052337D01*
M02*
