G75*
%MOIN*%
%OFA0B0*%
%FSLAX25Y25*%
%IPPOS*%
%LPD*%
%AMOC8*
5,1,8,0,0,1.08239X$1,22.5*
%
%ADD10C,0.00000*%
%ADD11C,0.00600*%
%ADD12C,0.00500*%
%ADD13C,0.01200*%
%ADD14C,0.01000*%
%ADD15C,0.00700*%
%ADD16C,0.00800*%
%ADD17C,0.00400*%
%ADD18C,0.00200*%
D10*
X0005620Y0040337D02*
X0005620Y0265298D01*
X0394321Y0265298D01*
X0394321Y0040337D01*
X0005620Y0040337D01*
X0085620Y0131337D02*
X0085687Y0131337D01*
X0085712Y0131354D02*
X0085729Y0131337D01*
X0085762Y0131337D01*
X0085779Y0131354D01*
X0085779Y0131370D01*
X0085762Y0131387D01*
X0085729Y0131387D01*
X0085712Y0131404D01*
X0085712Y0131420D01*
X0085729Y0131437D01*
X0085762Y0131437D01*
X0085779Y0131420D01*
X0085804Y0131437D02*
X0085854Y0131437D01*
X0085871Y0131420D01*
X0085871Y0131387D01*
X0085854Y0131370D01*
X0085804Y0131370D01*
X0085804Y0131337D02*
X0085804Y0131437D01*
X0085896Y0131404D02*
X0085930Y0131437D01*
X0085930Y0131337D01*
X0085963Y0131337D02*
X0085896Y0131337D01*
X0085988Y0131354D02*
X0086055Y0131420D01*
X0086055Y0131354D01*
X0086038Y0131337D01*
X0086005Y0131337D01*
X0085988Y0131354D01*
X0085988Y0131420D01*
X0086005Y0131437D01*
X0086038Y0131437D01*
X0086055Y0131420D01*
X0085620Y0131437D02*
X0085620Y0131337D01*
X0085620Y0236337D02*
X0085687Y0236337D01*
X0085712Y0236354D02*
X0085729Y0236337D01*
X0085762Y0236337D01*
X0085779Y0236354D01*
X0085779Y0236370D01*
X0085762Y0236387D01*
X0085729Y0236387D01*
X0085712Y0236404D01*
X0085712Y0236420D01*
X0085729Y0236437D01*
X0085762Y0236437D01*
X0085779Y0236420D01*
X0085804Y0236437D02*
X0085854Y0236437D01*
X0085871Y0236420D01*
X0085871Y0236387D01*
X0085854Y0236370D01*
X0085804Y0236370D01*
X0085804Y0236337D02*
X0085804Y0236437D01*
X0085896Y0236404D02*
X0085930Y0236437D01*
X0085930Y0236337D01*
X0085963Y0236337D02*
X0085896Y0236337D01*
X0085988Y0236354D02*
X0086055Y0236420D01*
X0086055Y0236354D01*
X0086038Y0236337D01*
X0086005Y0236337D01*
X0085988Y0236354D01*
X0085988Y0236420D01*
X0086005Y0236437D01*
X0086038Y0236437D01*
X0086055Y0236420D01*
X0085620Y0236437D02*
X0085620Y0236337D01*
X0261620Y0190295D02*
X0261637Y0190312D01*
X0261703Y0190245D01*
X0261720Y0190262D01*
X0261720Y0190295D01*
X0261703Y0190312D01*
X0261637Y0190312D01*
X0261620Y0190295D02*
X0261620Y0190262D01*
X0261637Y0190245D01*
X0261703Y0190245D01*
X0261720Y0190220D02*
X0261720Y0190153D01*
X0261720Y0190186D02*
X0261620Y0190186D01*
X0261653Y0190153D01*
X0261637Y0190127D02*
X0261670Y0190127D01*
X0261687Y0190111D01*
X0261687Y0190061D01*
X0261687Y0190035D02*
X0261703Y0190035D01*
X0261720Y0190019D01*
X0261720Y0189985D01*
X0261703Y0189969D01*
X0261720Y0189943D02*
X0261720Y0189877D01*
X0261620Y0189877D01*
X0261637Y0189969D02*
X0261653Y0189969D01*
X0261670Y0189985D01*
X0261670Y0190019D01*
X0261687Y0190035D01*
X0261720Y0190061D02*
X0261620Y0190061D01*
X0261620Y0190111D01*
X0261637Y0190127D01*
X0261637Y0190035D02*
X0261620Y0190019D01*
X0261620Y0189985D01*
X0261637Y0189969D01*
X0261038Y0171437D02*
X0261055Y0171420D01*
X0260988Y0171354D01*
X0261005Y0171337D01*
X0261038Y0171337D01*
X0261055Y0171354D01*
X0261055Y0171420D01*
X0261038Y0171437D02*
X0261005Y0171437D01*
X0260988Y0171420D01*
X0260988Y0171354D01*
X0260963Y0171337D02*
X0260896Y0171337D01*
X0260930Y0171337D02*
X0260930Y0171437D01*
X0260896Y0171404D01*
X0260871Y0171420D02*
X0260871Y0171387D01*
X0260854Y0171370D01*
X0260804Y0171370D01*
X0260779Y0171370D02*
X0260779Y0171354D01*
X0260762Y0171337D01*
X0260729Y0171337D01*
X0260712Y0171354D01*
X0260687Y0171337D02*
X0260620Y0171337D01*
X0260620Y0171437D01*
X0260712Y0171420D02*
X0260712Y0171404D01*
X0260729Y0171387D01*
X0260762Y0171387D01*
X0260779Y0171370D01*
X0260804Y0171337D02*
X0260804Y0171437D01*
X0260854Y0171437D01*
X0260871Y0171420D01*
X0260779Y0171420D02*
X0260762Y0171437D01*
X0260729Y0171437D01*
X0260712Y0171420D01*
D11*
X0265120Y0171337D02*
X0265620Y0171337D01*
X0265620Y0169337D01*
X0265120Y0169337D01*
X0270620Y0169337D02*
X0350620Y0169337D01*
X0350620Y0191337D01*
X0270620Y0191337D01*
X0270620Y0182837D01*
X0270718Y0182835D01*
X0270816Y0182829D01*
X0270914Y0182820D01*
X0271011Y0182806D01*
X0271108Y0182789D01*
X0271204Y0182768D01*
X0271299Y0182743D01*
X0271393Y0182715D01*
X0271485Y0182682D01*
X0271577Y0182647D01*
X0271667Y0182607D01*
X0271755Y0182565D01*
X0271842Y0182518D01*
X0271926Y0182469D01*
X0272009Y0182416D01*
X0272089Y0182360D01*
X0272168Y0182300D01*
X0272244Y0182238D01*
X0272317Y0182173D01*
X0272388Y0182105D01*
X0272456Y0182034D01*
X0272521Y0181961D01*
X0272583Y0181885D01*
X0272643Y0181806D01*
X0272699Y0181726D01*
X0272752Y0181643D01*
X0272801Y0181559D01*
X0272848Y0181472D01*
X0272890Y0181384D01*
X0272930Y0181294D01*
X0272965Y0181202D01*
X0272998Y0181110D01*
X0273026Y0181016D01*
X0273051Y0180921D01*
X0273072Y0180825D01*
X0273089Y0180728D01*
X0273103Y0180631D01*
X0273112Y0180533D01*
X0273118Y0180435D01*
X0273120Y0180337D01*
X0273118Y0180239D01*
X0273112Y0180141D01*
X0273103Y0180043D01*
X0273089Y0179946D01*
X0273072Y0179849D01*
X0273051Y0179753D01*
X0273026Y0179658D01*
X0272998Y0179564D01*
X0272965Y0179472D01*
X0272930Y0179380D01*
X0272890Y0179290D01*
X0272848Y0179202D01*
X0272801Y0179115D01*
X0272752Y0179031D01*
X0272699Y0178948D01*
X0272643Y0178868D01*
X0272583Y0178789D01*
X0272521Y0178713D01*
X0272456Y0178640D01*
X0272388Y0178569D01*
X0272317Y0178501D01*
X0272244Y0178436D01*
X0272168Y0178374D01*
X0272089Y0178314D01*
X0272009Y0178258D01*
X0271926Y0178205D01*
X0271842Y0178156D01*
X0271755Y0178109D01*
X0271667Y0178067D01*
X0271577Y0178027D01*
X0271485Y0177992D01*
X0271393Y0177959D01*
X0271299Y0177931D01*
X0271204Y0177906D01*
X0271108Y0177885D01*
X0271011Y0177868D01*
X0270914Y0177854D01*
X0270816Y0177845D01*
X0270718Y0177839D01*
X0270620Y0177837D01*
X0270620Y0169337D01*
X0256120Y0169337D02*
X0255620Y0169337D01*
X0255620Y0171337D01*
X0256120Y0171337D01*
X0259620Y0185337D02*
X0259620Y0185837D01*
X0259620Y0185337D02*
X0261620Y0185337D01*
X0261620Y0185837D01*
X0261620Y0194837D02*
X0261620Y0195337D01*
X0259620Y0195337D01*
X0259620Y0194837D01*
X0260620Y0210837D02*
X0262120Y0210837D01*
X0262180Y0210839D01*
X0262241Y0210844D01*
X0262300Y0210853D01*
X0262359Y0210866D01*
X0262418Y0210882D01*
X0262475Y0210902D01*
X0262530Y0210925D01*
X0262585Y0210952D01*
X0262637Y0210981D01*
X0262688Y0211014D01*
X0262737Y0211050D01*
X0262783Y0211088D01*
X0262827Y0211130D01*
X0262869Y0211174D01*
X0262907Y0211220D01*
X0262943Y0211269D01*
X0262976Y0211320D01*
X0263005Y0211372D01*
X0263032Y0211427D01*
X0263055Y0211482D01*
X0263075Y0211539D01*
X0263091Y0211598D01*
X0263104Y0211657D01*
X0263113Y0211716D01*
X0263118Y0211777D01*
X0263120Y0211837D01*
X0260620Y0210837D02*
X0260120Y0211337D01*
X0241120Y0211337D01*
X0240620Y0210837D01*
X0239120Y0210837D01*
X0239060Y0210839D01*
X0238999Y0210844D01*
X0238940Y0210853D01*
X0238881Y0210866D01*
X0238822Y0210882D01*
X0238765Y0210902D01*
X0238710Y0210925D01*
X0238655Y0210952D01*
X0238603Y0210981D01*
X0238552Y0211014D01*
X0238503Y0211050D01*
X0238457Y0211088D01*
X0238413Y0211130D01*
X0238371Y0211174D01*
X0238333Y0211220D01*
X0238297Y0211269D01*
X0238264Y0211320D01*
X0238235Y0211372D01*
X0238208Y0211427D01*
X0238185Y0211482D01*
X0238165Y0211539D01*
X0238149Y0211598D01*
X0238136Y0211657D01*
X0238127Y0211716D01*
X0238122Y0211777D01*
X0238120Y0211837D01*
X0232120Y0208585D02*
X0232120Y0192089D01*
X0226620Y0191463D02*
X0226620Y0189884D01*
X0226620Y0199211D02*
X0226620Y0201463D01*
X0232120Y0208585D02*
X0231918Y0208740D01*
X0231713Y0208890D01*
X0231504Y0209036D01*
X0231291Y0209176D01*
X0231075Y0209310D01*
X0230856Y0209440D01*
X0230634Y0209564D01*
X0230409Y0209683D01*
X0230181Y0209796D01*
X0229951Y0209904D01*
X0229718Y0210006D01*
X0229482Y0210103D01*
X0229244Y0210194D01*
X0229005Y0210279D01*
X0228763Y0210358D01*
X0228519Y0210431D01*
X0228274Y0210498D01*
X0228027Y0210559D01*
X0227778Y0210615D01*
X0227528Y0210664D01*
X0227278Y0210707D01*
X0227026Y0210744D01*
X0226773Y0210775D01*
X0226520Y0210800D01*
X0226266Y0210819D01*
X0226012Y0210832D01*
X0225758Y0210838D01*
X0225503Y0210838D01*
X0225249Y0210832D01*
X0224994Y0210820D01*
X0224741Y0210802D01*
X0224487Y0210778D01*
X0224235Y0210747D01*
X0223983Y0210711D01*
X0223732Y0210668D01*
X0223482Y0210619D01*
X0223234Y0210564D01*
X0222987Y0210503D01*
X0222741Y0210437D01*
X0222497Y0210364D01*
X0222255Y0210285D01*
X0222015Y0210201D01*
X0221777Y0210110D01*
X0221541Y0210014D01*
X0221308Y0209913D01*
X0221077Y0209805D01*
X0220849Y0209693D01*
X0220624Y0209574D01*
X0220402Y0209450D01*
X0220182Y0209321D01*
X0219966Y0209187D01*
X0219753Y0209047D01*
X0219544Y0208902D01*
X0219338Y0208753D01*
X0219136Y0208598D01*
X0218938Y0208438D01*
X0218744Y0208274D01*
X0218553Y0208105D01*
X0218367Y0207932D01*
X0218185Y0207754D01*
X0218008Y0207571D01*
X0217835Y0207385D01*
X0217666Y0207194D01*
X0217502Y0206999D01*
X0217343Y0206800D01*
X0217189Y0206598D01*
X0217040Y0206392D01*
X0216896Y0206182D01*
X0216757Y0205969D01*
X0216623Y0205752D01*
X0216494Y0205533D01*
X0216371Y0205310D01*
X0216254Y0205084D01*
X0216141Y0204856D01*
X0216035Y0204625D01*
X0215933Y0204391D01*
X0215838Y0204155D01*
X0215749Y0203917D01*
X0215665Y0203677D01*
X0215587Y0203435D01*
X0215587Y0197241D02*
X0215665Y0196999D01*
X0215748Y0196759D01*
X0215838Y0196521D01*
X0215933Y0196285D01*
X0216035Y0196051D01*
X0216141Y0195820D01*
X0216253Y0195592D01*
X0216371Y0195366D01*
X0216494Y0195143D01*
X0216623Y0194924D01*
X0216757Y0194707D01*
X0216896Y0194494D01*
X0217040Y0194284D01*
X0217189Y0194078D01*
X0217343Y0193876D01*
X0217502Y0193677D01*
X0217666Y0193482D01*
X0217835Y0193292D01*
X0218008Y0193105D01*
X0218185Y0192923D01*
X0218367Y0192745D01*
X0218553Y0192571D01*
X0218744Y0192402D01*
X0218938Y0192238D01*
X0219136Y0192078D01*
X0219338Y0191923D01*
X0219544Y0191774D01*
X0219753Y0191629D01*
X0219966Y0191489D01*
X0220182Y0191355D01*
X0220401Y0191226D01*
X0220624Y0191102D01*
X0220849Y0190984D01*
X0221077Y0190871D01*
X0221308Y0190763D01*
X0221541Y0190662D01*
X0221777Y0190566D01*
X0222015Y0190475D01*
X0222255Y0190391D01*
X0222497Y0190312D01*
X0222741Y0190239D01*
X0222986Y0190173D01*
X0223233Y0190112D01*
X0223482Y0190057D01*
X0223732Y0190008D01*
X0223983Y0189965D01*
X0224234Y0189929D01*
X0224487Y0189898D01*
X0224740Y0189874D01*
X0224994Y0189856D01*
X0225248Y0189844D01*
X0225503Y0189838D01*
X0225757Y0189838D01*
X0226012Y0189844D01*
X0226266Y0189857D01*
X0226520Y0189876D01*
X0226773Y0189901D01*
X0227026Y0189932D01*
X0227277Y0189969D01*
X0227528Y0190012D01*
X0227778Y0190061D01*
X0228026Y0190116D01*
X0228273Y0190178D01*
X0228519Y0190245D01*
X0228762Y0190318D01*
X0229004Y0190397D01*
X0229244Y0190482D01*
X0229482Y0190573D01*
X0229718Y0190670D01*
X0229951Y0190772D01*
X0230181Y0190879D01*
X0230409Y0190993D01*
X0230634Y0191112D01*
X0230856Y0191236D01*
X0231075Y0191365D01*
X0231291Y0191500D01*
X0231504Y0191640D01*
X0231713Y0191785D01*
X0231918Y0191936D01*
X0232120Y0192091D01*
X0226620Y0180790D02*
X0226620Y0179211D01*
X0232120Y0178585D02*
X0232120Y0162089D01*
X0226620Y0161463D02*
X0226620Y0159884D01*
X0226620Y0169211D02*
X0226620Y0171463D01*
X0232120Y0178585D02*
X0231918Y0178740D01*
X0231713Y0178890D01*
X0231504Y0179036D01*
X0231291Y0179176D01*
X0231075Y0179310D01*
X0230856Y0179440D01*
X0230634Y0179564D01*
X0230409Y0179683D01*
X0230181Y0179796D01*
X0229951Y0179904D01*
X0229718Y0180006D01*
X0229482Y0180103D01*
X0229244Y0180194D01*
X0229005Y0180279D01*
X0228763Y0180358D01*
X0228519Y0180431D01*
X0228274Y0180498D01*
X0228027Y0180559D01*
X0227778Y0180615D01*
X0227528Y0180664D01*
X0227278Y0180707D01*
X0227026Y0180744D01*
X0226773Y0180775D01*
X0226520Y0180800D01*
X0226266Y0180819D01*
X0226012Y0180832D01*
X0225758Y0180838D01*
X0225503Y0180838D01*
X0225249Y0180832D01*
X0224994Y0180820D01*
X0224741Y0180802D01*
X0224487Y0180778D01*
X0224235Y0180747D01*
X0223983Y0180711D01*
X0223732Y0180668D01*
X0223482Y0180619D01*
X0223234Y0180564D01*
X0222987Y0180503D01*
X0222741Y0180437D01*
X0222497Y0180364D01*
X0222255Y0180285D01*
X0222015Y0180201D01*
X0221777Y0180110D01*
X0221541Y0180014D01*
X0221308Y0179913D01*
X0221077Y0179805D01*
X0220849Y0179693D01*
X0220624Y0179574D01*
X0220402Y0179450D01*
X0220182Y0179321D01*
X0219966Y0179187D01*
X0219753Y0179047D01*
X0219544Y0178902D01*
X0219338Y0178753D01*
X0219136Y0178598D01*
X0218938Y0178438D01*
X0218744Y0178274D01*
X0218553Y0178105D01*
X0218367Y0177932D01*
X0218185Y0177754D01*
X0218008Y0177571D01*
X0217835Y0177385D01*
X0217666Y0177194D01*
X0217502Y0176999D01*
X0217343Y0176800D01*
X0217189Y0176598D01*
X0217040Y0176392D01*
X0216896Y0176182D01*
X0216757Y0175969D01*
X0216623Y0175752D01*
X0216494Y0175533D01*
X0216371Y0175310D01*
X0216254Y0175084D01*
X0216141Y0174856D01*
X0216035Y0174625D01*
X0215933Y0174391D01*
X0215838Y0174155D01*
X0215749Y0173917D01*
X0215665Y0173677D01*
X0215587Y0173435D01*
X0215587Y0167241D02*
X0215665Y0166999D01*
X0215748Y0166759D01*
X0215838Y0166521D01*
X0215933Y0166285D01*
X0216035Y0166051D01*
X0216141Y0165820D01*
X0216253Y0165592D01*
X0216371Y0165366D01*
X0216494Y0165143D01*
X0216623Y0164924D01*
X0216757Y0164707D01*
X0216896Y0164494D01*
X0217040Y0164284D01*
X0217189Y0164078D01*
X0217343Y0163876D01*
X0217502Y0163677D01*
X0217666Y0163482D01*
X0217835Y0163292D01*
X0218008Y0163105D01*
X0218185Y0162923D01*
X0218367Y0162745D01*
X0218553Y0162571D01*
X0218744Y0162402D01*
X0218938Y0162238D01*
X0219136Y0162078D01*
X0219338Y0161923D01*
X0219544Y0161774D01*
X0219753Y0161629D01*
X0219966Y0161489D01*
X0220182Y0161355D01*
X0220401Y0161226D01*
X0220624Y0161102D01*
X0220849Y0160984D01*
X0221077Y0160871D01*
X0221308Y0160763D01*
X0221541Y0160662D01*
X0221777Y0160566D01*
X0222015Y0160475D01*
X0222255Y0160391D01*
X0222497Y0160312D01*
X0222741Y0160239D01*
X0222986Y0160173D01*
X0223233Y0160112D01*
X0223482Y0160057D01*
X0223732Y0160008D01*
X0223983Y0159965D01*
X0224234Y0159929D01*
X0224487Y0159898D01*
X0224740Y0159874D01*
X0224994Y0159856D01*
X0225248Y0159844D01*
X0225503Y0159838D01*
X0225757Y0159838D01*
X0226012Y0159844D01*
X0226266Y0159857D01*
X0226520Y0159876D01*
X0226773Y0159901D01*
X0227026Y0159932D01*
X0227277Y0159969D01*
X0227528Y0160012D01*
X0227778Y0160061D01*
X0228026Y0160116D01*
X0228273Y0160178D01*
X0228519Y0160245D01*
X0228762Y0160318D01*
X0229004Y0160397D01*
X0229244Y0160482D01*
X0229482Y0160573D01*
X0229718Y0160670D01*
X0229951Y0160772D01*
X0230181Y0160879D01*
X0230409Y0160993D01*
X0230634Y0161112D01*
X0230856Y0161236D01*
X0231075Y0161365D01*
X0231291Y0161500D01*
X0231504Y0161640D01*
X0231713Y0161785D01*
X0231918Y0161936D01*
X0232120Y0162091D01*
X0239120Y0154837D02*
X0240620Y0154837D01*
X0241120Y0154337D01*
X0260120Y0154337D01*
X0260620Y0154837D01*
X0262120Y0154837D01*
X0262180Y0154835D01*
X0262241Y0154830D01*
X0262300Y0154821D01*
X0262359Y0154808D01*
X0262418Y0154792D01*
X0262475Y0154772D01*
X0262530Y0154749D01*
X0262585Y0154722D01*
X0262637Y0154693D01*
X0262688Y0154660D01*
X0262737Y0154624D01*
X0262783Y0154586D01*
X0262827Y0154544D01*
X0262869Y0154500D01*
X0262907Y0154454D01*
X0262943Y0154405D01*
X0262976Y0154354D01*
X0263005Y0154302D01*
X0263032Y0154247D01*
X0263055Y0154192D01*
X0263075Y0154135D01*
X0263091Y0154076D01*
X0263104Y0154017D01*
X0263113Y0153958D01*
X0263118Y0153897D01*
X0263120Y0153837D01*
X0263120Y0146837D02*
X0263118Y0146777D01*
X0263113Y0146716D01*
X0263104Y0146657D01*
X0263091Y0146598D01*
X0263075Y0146539D01*
X0263055Y0146482D01*
X0263032Y0146427D01*
X0263005Y0146372D01*
X0262976Y0146320D01*
X0262943Y0146269D01*
X0262907Y0146220D01*
X0262869Y0146174D01*
X0262827Y0146130D01*
X0262783Y0146088D01*
X0262737Y0146050D01*
X0262688Y0146014D01*
X0262637Y0145981D01*
X0262585Y0145952D01*
X0262530Y0145925D01*
X0262475Y0145902D01*
X0262418Y0145882D01*
X0262359Y0145866D01*
X0262300Y0145853D01*
X0262241Y0145844D01*
X0262180Y0145839D01*
X0262120Y0145837D01*
X0260620Y0145837D01*
X0260120Y0146337D01*
X0241120Y0146337D01*
X0240620Y0145837D01*
X0239120Y0145837D01*
X0239060Y0145839D01*
X0238999Y0145844D01*
X0238940Y0145853D01*
X0238881Y0145866D01*
X0238822Y0145882D01*
X0238765Y0145902D01*
X0238710Y0145925D01*
X0238655Y0145952D01*
X0238603Y0145981D01*
X0238552Y0146014D01*
X0238503Y0146050D01*
X0238457Y0146088D01*
X0238413Y0146130D01*
X0238371Y0146174D01*
X0238333Y0146220D01*
X0238297Y0146269D01*
X0238264Y0146320D01*
X0238235Y0146372D01*
X0238208Y0146427D01*
X0238185Y0146482D01*
X0238165Y0146539D01*
X0238149Y0146598D01*
X0238136Y0146657D01*
X0238127Y0146716D01*
X0238122Y0146777D01*
X0238120Y0146837D01*
X0238120Y0153837D02*
X0238122Y0153897D01*
X0238127Y0153958D01*
X0238136Y0154017D01*
X0238149Y0154076D01*
X0238165Y0154135D01*
X0238185Y0154192D01*
X0238208Y0154247D01*
X0238235Y0154302D01*
X0238264Y0154354D01*
X0238297Y0154405D01*
X0238333Y0154454D01*
X0238371Y0154500D01*
X0238413Y0154544D01*
X0238457Y0154586D01*
X0238503Y0154624D01*
X0238552Y0154660D01*
X0238603Y0154693D01*
X0238655Y0154722D01*
X0238710Y0154749D01*
X0238765Y0154772D01*
X0238822Y0154792D01*
X0238881Y0154808D01*
X0238940Y0154821D01*
X0238999Y0154830D01*
X0239060Y0154835D01*
X0239120Y0154837D01*
X0224620Y0147837D02*
X0223620Y0147837D01*
X0224620Y0147837D02*
X0224620Y0122837D01*
X0223620Y0122837D01*
X0217620Y0122837D02*
X0207620Y0122837D01*
X0207620Y0132337D01*
X0207620Y0138337D02*
X0207620Y0147837D01*
X0217620Y0147837D01*
X0195120Y0150337D02*
X0194620Y0149837D01*
X0194620Y0130837D01*
X0195120Y0130337D01*
X0195120Y0128837D01*
X0195118Y0128777D01*
X0195113Y0128716D01*
X0195104Y0128657D01*
X0195091Y0128598D01*
X0195075Y0128539D01*
X0195055Y0128482D01*
X0195032Y0128427D01*
X0195005Y0128372D01*
X0194976Y0128320D01*
X0194943Y0128269D01*
X0194907Y0128220D01*
X0194869Y0128174D01*
X0194827Y0128130D01*
X0194783Y0128088D01*
X0194737Y0128050D01*
X0194688Y0128014D01*
X0194637Y0127981D01*
X0194585Y0127952D01*
X0194530Y0127925D01*
X0194475Y0127902D01*
X0194418Y0127882D01*
X0194359Y0127866D01*
X0194300Y0127853D01*
X0194241Y0127844D01*
X0194180Y0127839D01*
X0194120Y0127837D01*
X0187120Y0127837D02*
X0187060Y0127839D01*
X0186999Y0127844D01*
X0186940Y0127853D01*
X0186881Y0127866D01*
X0186822Y0127882D01*
X0186765Y0127902D01*
X0186710Y0127925D01*
X0186655Y0127952D01*
X0186603Y0127981D01*
X0186552Y0128014D01*
X0186503Y0128050D01*
X0186457Y0128088D01*
X0186413Y0128130D01*
X0186371Y0128174D01*
X0186333Y0128220D01*
X0186297Y0128269D01*
X0186264Y0128320D01*
X0186235Y0128372D01*
X0186208Y0128427D01*
X0186185Y0128482D01*
X0186165Y0128539D01*
X0186149Y0128598D01*
X0186136Y0128657D01*
X0186127Y0128716D01*
X0186122Y0128777D01*
X0186120Y0128837D01*
X0186120Y0130337D01*
X0186620Y0130837D01*
X0186620Y0149837D01*
X0186120Y0150337D01*
X0186120Y0151837D01*
X0186122Y0151897D01*
X0186127Y0151958D01*
X0186136Y0152017D01*
X0186149Y0152076D01*
X0186165Y0152135D01*
X0186185Y0152192D01*
X0186208Y0152247D01*
X0186235Y0152302D01*
X0186264Y0152354D01*
X0186297Y0152405D01*
X0186333Y0152454D01*
X0186371Y0152500D01*
X0186413Y0152544D01*
X0186457Y0152586D01*
X0186503Y0152624D01*
X0186552Y0152660D01*
X0186603Y0152693D01*
X0186655Y0152722D01*
X0186710Y0152749D01*
X0186765Y0152772D01*
X0186822Y0152792D01*
X0186881Y0152808D01*
X0186940Y0152821D01*
X0186999Y0152830D01*
X0187060Y0152835D01*
X0187120Y0152837D01*
X0194120Y0152837D02*
X0194180Y0152835D01*
X0194241Y0152830D01*
X0194300Y0152821D01*
X0194359Y0152808D01*
X0194418Y0152792D01*
X0194475Y0152772D01*
X0194530Y0152749D01*
X0194585Y0152722D01*
X0194637Y0152693D01*
X0194688Y0152660D01*
X0194737Y0152624D01*
X0194783Y0152586D01*
X0194827Y0152544D01*
X0194869Y0152500D01*
X0194907Y0152454D01*
X0194943Y0152405D01*
X0194976Y0152354D01*
X0195005Y0152302D01*
X0195032Y0152247D01*
X0195055Y0152192D01*
X0195075Y0152135D01*
X0195091Y0152076D01*
X0195104Y0152017D01*
X0195113Y0151958D01*
X0195118Y0151897D01*
X0195120Y0151837D01*
X0195120Y0150337D01*
X0175120Y0146837D02*
X0175120Y0145337D01*
X0174620Y0144837D01*
X0174620Y0125837D01*
X0175120Y0125337D01*
X0175120Y0123837D01*
X0175118Y0123777D01*
X0175113Y0123716D01*
X0175104Y0123657D01*
X0175091Y0123598D01*
X0175075Y0123539D01*
X0175055Y0123482D01*
X0175032Y0123427D01*
X0175005Y0123372D01*
X0174976Y0123320D01*
X0174943Y0123269D01*
X0174907Y0123220D01*
X0174869Y0123174D01*
X0174827Y0123130D01*
X0174783Y0123088D01*
X0174737Y0123050D01*
X0174688Y0123014D01*
X0174637Y0122981D01*
X0174585Y0122952D01*
X0174530Y0122925D01*
X0174475Y0122902D01*
X0174418Y0122882D01*
X0174359Y0122866D01*
X0174300Y0122853D01*
X0174241Y0122844D01*
X0174180Y0122839D01*
X0174120Y0122837D01*
X0167120Y0122837D02*
X0167060Y0122839D01*
X0166999Y0122844D01*
X0166940Y0122853D01*
X0166881Y0122866D01*
X0166822Y0122882D01*
X0166765Y0122902D01*
X0166710Y0122925D01*
X0166655Y0122952D01*
X0166603Y0122981D01*
X0166552Y0123014D01*
X0166503Y0123050D01*
X0166457Y0123088D01*
X0166413Y0123130D01*
X0166371Y0123174D01*
X0166333Y0123220D01*
X0166297Y0123269D01*
X0166264Y0123320D01*
X0166235Y0123372D01*
X0166208Y0123427D01*
X0166185Y0123482D01*
X0166165Y0123539D01*
X0166149Y0123598D01*
X0166136Y0123657D01*
X0166127Y0123716D01*
X0166122Y0123777D01*
X0166120Y0123837D01*
X0166120Y0125337D01*
X0166620Y0125837D01*
X0166620Y0144837D01*
X0166120Y0145337D01*
X0166120Y0146837D01*
X0165120Y0146837D02*
X0165120Y0145337D01*
X0164620Y0144837D01*
X0164620Y0125837D01*
X0165120Y0125337D01*
X0165120Y0123837D01*
X0165118Y0123777D01*
X0165113Y0123716D01*
X0165104Y0123657D01*
X0165091Y0123598D01*
X0165075Y0123539D01*
X0165055Y0123482D01*
X0165032Y0123427D01*
X0165005Y0123372D01*
X0164976Y0123320D01*
X0164943Y0123269D01*
X0164907Y0123220D01*
X0164869Y0123174D01*
X0164827Y0123130D01*
X0164783Y0123088D01*
X0164737Y0123050D01*
X0164688Y0123014D01*
X0164637Y0122981D01*
X0164585Y0122952D01*
X0164530Y0122925D01*
X0164475Y0122902D01*
X0164418Y0122882D01*
X0164359Y0122866D01*
X0164300Y0122853D01*
X0164241Y0122844D01*
X0164180Y0122839D01*
X0164120Y0122837D01*
X0157120Y0122837D02*
X0157060Y0122839D01*
X0156999Y0122844D01*
X0156940Y0122853D01*
X0156881Y0122866D01*
X0156822Y0122882D01*
X0156765Y0122902D01*
X0156710Y0122925D01*
X0156655Y0122952D01*
X0156603Y0122981D01*
X0156552Y0123014D01*
X0156503Y0123050D01*
X0156457Y0123088D01*
X0156413Y0123130D01*
X0156371Y0123174D01*
X0156333Y0123220D01*
X0156297Y0123269D01*
X0156264Y0123320D01*
X0156235Y0123372D01*
X0156208Y0123427D01*
X0156185Y0123482D01*
X0156165Y0123539D01*
X0156149Y0123598D01*
X0156136Y0123657D01*
X0156127Y0123716D01*
X0156122Y0123777D01*
X0156120Y0123837D01*
X0156120Y0125337D01*
X0156620Y0125837D01*
X0156620Y0144837D01*
X0156120Y0145337D01*
X0156120Y0146837D01*
X0155120Y0146837D02*
X0155120Y0145337D01*
X0154620Y0144837D01*
X0154620Y0125837D01*
X0155120Y0125337D01*
X0155120Y0123837D01*
X0155118Y0123777D01*
X0155113Y0123716D01*
X0155104Y0123657D01*
X0155091Y0123598D01*
X0155075Y0123539D01*
X0155055Y0123482D01*
X0155032Y0123427D01*
X0155005Y0123372D01*
X0154976Y0123320D01*
X0154943Y0123269D01*
X0154907Y0123220D01*
X0154869Y0123174D01*
X0154827Y0123130D01*
X0154783Y0123088D01*
X0154737Y0123050D01*
X0154688Y0123014D01*
X0154637Y0122981D01*
X0154585Y0122952D01*
X0154530Y0122925D01*
X0154475Y0122902D01*
X0154418Y0122882D01*
X0154359Y0122866D01*
X0154300Y0122853D01*
X0154241Y0122844D01*
X0154180Y0122839D01*
X0154120Y0122837D01*
X0147120Y0122837D02*
X0147060Y0122839D01*
X0146999Y0122844D01*
X0146940Y0122853D01*
X0146881Y0122866D01*
X0146822Y0122882D01*
X0146765Y0122902D01*
X0146710Y0122925D01*
X0146655Y0122952D01*
X0146603Y0122981D01*
X0146552Y0123014D01*
X0146503Y0123050D01*
X0146457Y0123088D01*
X0146413Y0123130D01*
X0146371Y0123174D01*
X0146333Y0123220D01*
X0146297Y0123269D01*
X0146264Y0123320D01*
X0146235Y0123372D01*
X0146208Y0123427D01*
X0146185Y0123482D01*
X0146165Y0123539D01*
X0146149Y0123598D01*
X0146136Y0123657D01*
X0146127Y0123716D01*
X0146122Y0123777D01*
X0146120Y0123837D01*
X0146120Y0125337D01*
X0146620Y0125837D01*
X0146620Y0144837D01*
X0146120Y0145337D01*
X0146120Y0146837D01*
X0145120Y0146837D02*
X0145120Y0145337D01*
X0144620Y0144837D01*
X0144620Y0125837D01*
X0145120Y0125337D01*
X0145120Y0123837D01*
X0145118Y0123777D01*
X0145113Y0123716D01*
X0145104Y0123657D01*
X0145091Y0123598D01*
X0145075Y0123539D01*
X0145055Y0123482D01*
X0145032Y0123427D01*
X0145005Y0123372D01*
X0144976Y0123320D01*
X0144943Y0123269D01*
X0144907Y0123220D01*
X0144869Y0123174D01*
X0144827Y0123130D01*
X0144783Y0123088D01*
X0144737Y0123050D01*
X0144688Y0123014D01*
X0144637Y0122981D01*
X0144585Y0122952D01*
X0144530Y0122925D01*
X0144475Y0122902D01*
X0144418Y0122882D01*
X0144359Y0122866D01*
X0144300Y0122853D01*
X0144241Y0122844D01*
X0144180Y0122839D01*
X0144120Y0122837D01*
X0137120Y0122837D02*
X0137060Y0122839D01*
X0136999Y0122844D01*
X0136940Y0122853D01*
X0136881Y0122866D01*
X0136822Y0122882D01*
X0136765Y0122902D01*
X0136710Y0122925D01*
X0136655Y0122952D01*
X0136603Y0122981D01*
X0136552Y0123014D01*
X0136503Y0123050D01*
X0136457Y0123088D01*
X0136413Y0123130D01*
X0136371Y0123174D01*
X0136333Y0123220D01*
X0136297Y0123269D01*
X0136264Y0123320D01*
X0136235Y0123372D01*
X0136208Y0123427D01*
X0136185Y0123482D01*
X0136165Y0123539D01*
X0136149Y0123598D01*
X0136136Y0123657D01*
X0136127Y0123716D01*
X0136122Y0123777D01*
X0136120Y0123837D01*
X0136120Y0125337D01*
X0136620Y0125837D01*
X0136620Y0144837D01*
X0136120Y0145337D01*
X0136120Y0146837D01*
X0135120Y0146837D02*
X0135120Y0145337D01*
X0134620Y0144837D01*
X0134620Y0125837D01*
X0135120Y0125337D01*
X0135120Y0123837D01*
X0135118Y0123777D01*
X0135113Y0123716D01*
X0135104Y0123657D01*
X0135091Y0123598D01*
X0135075Y0123539D01*
X0135055Y0123482D01*
X0135032Y0123427D01*
X0135005Y0123372D01*
X0134976Y0123320D01*
X0134943Y0123269D01*
X0134907Y0123220D01*
X0134869Y0123174D01*
X0134827Y0123130D01*
X0134783Y0123088D01*
X0134737Y0123050D01*
X0134688Y0123014D01*
X0134637Y0122981D01*
X0134585Y0122952D01*
X0134530Y0122925D01*
X0134475Y0122902D01*
X0134418Y0122882D01*
X0134359Y0122866D01*
X0134300Y0122853D01*
X0134241Y0122844D01*
X0134180Y0122839D01*
X0134120Y0122837D01*
X0127120Y0122837D02*
X0127060Y0122839D01*
X0126999Y0122844D01*
X0126940Y0122853D01*
X0126881Y0122866D01*
X0126822Y0122882D01*
X0126765Y0122902D01*
X0126710Y0122925D01*
X0126655Y0122952D01*
X0126603Y0122981D01*
X0126552Y0123014D01*
X0126503Y0123050D01*
X0126457Y0123088D01*
X0126413Y0123130D01*
X0126371Y0123174D01*
X0126333Y0123220D01*
X0126297Y0123269D01*
X0126264Y0123320D01*
X0126235Y0123372D01*
X0126208Y0123427D01*
X0126185Y0123482D01*
X0126165Y0123539D01*
X0126149Y0123598D01*
X0126136Y0123657D01*
X0126127Y0123716D01*
X0126122Y0123777D01*
X0126120Y0123837D01*
X0126120Y0125337D01*
X0126620Y0125837D01*
X0126620Y0144837D01*
X0126120Y0145337D01*
X0126120Y0146837D01*
X0126122Y0146897D01*
X0126127Y0146958D01*
X0126136Y0147017D01*
X0126149Y0147076D01*
X0126165Y0147135D01*
X0126185Y0147192D01*
X0126208Y0147247D01*
X0126235Y0147302D01*
X0126264Y0147354D01*
X0126297Y0147405D01*
X0126333Y0147454D01*
X0126371Y0147500D01*
X0126413Y0147544D01*
X0126457Y0147586D01*
X0126503Y0147624D01*
X0126552Y0147660D01*
X0126603Y0147693D01*
X0126655Y0147722D01*
X0126710Y0147749D01*
X0126765Y0147772D01*
X0126822Y0147792D01*
X0126881Y0147808D01*
X0126940Y0147821D01*
X0126999Y0147830D01*
X0127060Y0147835D01*
X0127120Y0147837D01*
X0134120Y0147837D02*
X0134180Y0147835D01*
X0134241Y0147830D01*
X0134300Y0147821D01*
X0134359Y0147808D01*
X0134418Y0147792D01*
X0134475Y0147772D01*
X0134530Y0147749D01*
X0134585Y0147722D01*
X0134637Y0147693D01*
X0134688Y0147660D01*
X0134737Y0147624D01*
X0134783Y0147586D01*
X0134827Y0147544D01*
X0134869Y0147500D01*
X0134907Y0147454D01*
X0134943Y0147405D01*
X0134976Y0147354D01*
X0135005Y0147302D01*
X0135032Y0147247D01*
X0135055Y0147192D01*
X0135075Y0147135D01*
X0135091Y0147076D01*
X0135104Y0147017D01*
X0135113Y0146958D01*
X0135118Y0146897D01*
X0135120Y0146837D01*
X0136120Y0146837D02*
X0136122Y0146897D01*
X0136127Y0146958D01*
X0136136Y0147017D01*
X0136149Y0147076D01*
X0136165Y0147135D01*
X0136185Y0147192D01*
X0136208Y0147247D01*
X0136235Y0147302D01*
X0136264Y0147354D01*
X0136297Y0147405D01*
X0136333Y0147454D01*
X0136371Y0147500D01*
X0136413Y0147544D01*
X0136457Y0147586D01*
X0136503Y0147624D01*
X0136552Y0147660D01*
X0136603Y0147693D01*
X0136655Y0147722D01*
X0136710Y0147749D01*
X0136765Y0147772D01*
X0136822Y0147792D01*
X0136881Y0147808D01*
X0136940Y0147821D01*
X0136999Y0147830D01*
X0137060Y0147835D01*
X0137120Y0147837D01*
X0144120Y0147837D02*
X0144180Y0147835D01*
X0144241Y0147830D01*
X0144300Y0147821D01*
X0144359Y0147808D01*
X0144418Y0147792D01*
X0144475Y0147772D01*
X0144530Y0147749D01*
X0144585Y0147722D01*
X0144637Y0147693D01*
X0144688Y0147660D01*
X0144737Y0147624D01*
X0144783Y0147586D01*
X0144827Y0147544D01*
X0144869Y0147500D01*
X0144907Y0147454D01*
X0144943Y0147405D01*
X0144976Y0147354D01*
X0145005Y0147302D01*
X0145032Y0147247D01*
X0145055Y0147192D01*
X0145075Y0147135D01*
X0145091Y0147076D01*
X0145104Y0147017D01*
X0145113Y0146958D01*
X0145118Y0146897D01*
X0145120Y0146837D01*
X0146120Y0146837D02*
X0146122Y0146897D01*
X0146127Y0146958D01*
X0146136Y0147017D01*
X0146149Y0147076D01*
X0146165Y0147135D01*
X0146185Y0147192D01*
X0146208Y0147247D01*
X0146235Y0147302D01*
X0146264Y0147354D01*
X0146297Y0147405D01*
X0146333Y0147454D01*
X0146371Y0147500D01*
X0146413Y0147544D01*
X0146457Y0147586D01*
X0146503Y0147624D01*
X0146552Y0147660D01*
X0146603Y0147693D01*
X0146655Y0147722D01*
X0146710Y0147749D01*
X0146765Y0147772D01*
X0146822Y0147792D01*
X0146881Y0147808D01*
X0146940Y0147821D01*
X0146999Y0147830D01*
X0147060Y0147835D01*
X0147120Y0147837D01*
X0154120Y0147837D02*
X0154180Y0147835D01*
X0154241Y0147830D01*
X0154300Y0147821D01*
X0154359Y0147808D01*
X0154418Y0147792D01*
X0154475Y0147772D01*
X0154530Y0147749D01*
X0154585Y0147722D01*
X0154637Y0147693D01*
X0154688Y0147660D01*
X0154737Y0147624D01*
X0154783Y0147586D01*
X0154827Y0147544D01*
X0154869Y0147500D01*
X0154907Y0147454D01*
X0154943Y0147405D01*
X0154976Y0147354D01*
X0155005Y0147302D01*
X0155032Y0147247D01*
X0155055Y0147192D01*
X0155075Y0147135D01*
X0155091Y0147076D01*
X0155104Y0147017D01*
X0155113Y0146958D01*
X0155118Y0146897D01*
X0155120Y0146837D01*
X0156120Y0146837D02*
X0156122Y0146897D01*
X0156127Y0146958D01*
X0156136Y0147017D01*
X0156149Y0147076D01*
X0156165Y0147135D01*
X0156185Y0147192D01*
X0156208Y0147247D01*
X0156235Y0147302D01*
X0156264Y0147354D01*
X0156297Y0147405D01*
X0156333Y0147454D01*
X0156371Y0147500D01*
X0156413Y0147544D01*
X0156457Y0147586D01*
X0156503Y0147624D01*
X0156552Y0147660D01*
X0156603Y0147693D01*
X0156655Y0147722D01*
X0156710Y0147749D01*
X0156765Y0147772D01*
X0156822Y0147792D01*
X0156881Y0147808D01*
X0156940Y0147821D01*
X0156999Y0147830D01*
X0157060Y0147835D01*
X0157120Y0147837D01*
X0164120Y0147837D02*
X0164180Y0147835D01*
X0164241Y0147830D01*
X0164300Y0147821D01*
X0164359Y0147808D01*
X0164418Y0147792D01*
X0164475Y0147772D01*
X0164530Y0147749D01*
X0164585Y0147722D01*
X0164637Y0147693D01*
X0164688Y0147660D01*
X0164737Y0147624D01*
X0164783Y0147586D01*
X0164827Y0147544D01*
X0164869Y0147500D01*
X0164907Y0147454D01*
X0164943Y0147405D01*
X0164976Y0147354D01*
X0165005Y0147302D01*
X0165032Y0147247D01*
X0165055Y0147192D01*
X0165075Y0147135D01*
X0165091Y0147076D01*
X0165104Y0147017D01*
X0165113Y0146958D01*
X0165118Y0146897D01*
X0165120Y0146837D01*
X0166120Y0146837D02*
X0166122Y0146897D01*
X0166127Y0146958D01*
X0166136Y0147017D01*
X0166149Y0147076D01*
X0166165Y0147135D01*
X0166185Y0147192D01*
X0166208Y0147247D01*
X0166235Y0147302D01*
X0166264Y0147354D01*
X0166297Y0147405D01*
X0166333Y0147454D01*
X0166371Y0147500D01*
X0166413Y0147544D01*
X0166457Y0147586D01*
X0166503Y0147624D01*
X0166552Y0147660D01*
X0166603Y0147693D01*
X0166655Y0147722D01*
X0166710Y0147749D01*
X0166765Y0147772D01*
X0166822Y0147792D01*
X0166881Y0147808D01*
X0166940Y0147821D01*
X0166999Y0147830D01*
X0167060Y0147835D01*
X0167120Y0147837D01*
X0174120Y0147837D02*
X0174180Y0147835D01*
X0174241Y0147830D01*
X0174300Y0147821D01*
X0174359Y0147808D01*
X0174418Y0147792D01*
X0174475Y0147772D01*
X0174530Y0147749D01*
X0174585Y0147722D01*
X0174637Y0147693D01*
X0174688Y0147660D01*
X0174737Y0147624D01*
X0174783Y0147586D01*
X0174827Y0147544D01*
X0174869Y0147500D01*
X0174907Y0147454D01*
X0174943Y0147405D01*
X0174976Y0147354D01*
X0175005Y0147302D01*
X0175032Y0147247D01*
X0175055Y0147192D01*
X0175075Y0147135D01*
X0175091Y0147076D01*
X0175104Y0147017D01*
X0175113Y0146958D01*
X0175118Y0146897D01*
X0175120Y0146837D01*
X0170620Y0168837D02*
X0170620Y0191837D01*
X0130620Y0191837D01*
X0130620Y0184337D01*
X0130746Y0184335D01*
X0130871Y0184329D01*
X0130996Y0184319D01*
X0131121Y0184305D01*
X0131246Y0184288D01*
X0131370Y0184266D01*
X0131493Y0184241D01*
X0131615Y0184211D01*
X0131736Y0184178D01*
X0131856Y0184141D01*
X0131975Y0184101D01*
X0132092Y0184056D01*
X0132209Y0184008D01*
X0132323Y0183956D01*
X0132436Y0183901D01*
X0132547Y0183842D01*
X0132656Y0183780D01*
X0132763Y0183714D01*
X0132868Y0183645D01*
X0132971Y0183573D01*
X0133072Y0183498D01*
X0133170Y0183419D01*
X0133265Y0183337D01*
X0133358Y0183253D01*
X0133448Y0183165D01*
X0133536Y0183075D01*
X0133620Y0182982D01*
X0133702Y0182887D01*
X0133781Y0182789D01*
X0133856Y0182688D01*
X0133928Y0182585D01*
X0133997Y0182480D01*
X0134063Y0182373D01*
X0134125Y0182264D01*
X0134184Y0182153D01*
X0134239Y0182040D01*
X0134291Y0181926D01*
X0134339Y0181809D01*
X0134384Y0181692D01*
X0134424Y0181573D01*
X0134461Y0181453D01*
X0134494Y0181332D01*
X0134524Y0181210D01*
X0134549Y0181087D01*
X0134571Y0180963D01*
X0134588Y0180838D01*
X0134602Y0180713D01*
X0134612Y0180588D01*
X0134618Y0180463D01*
X0134620Y0180337D01*
X0134618Y0180211D01*
X0134612Y0180086D01*
X0134602Y0179961D01*
X0134588Y0179836D01*
X0134571Y0179711D01*
X0134549Y0179587D01*
X0134524Y0179464D01*
X0134494Y0179342D01*
X0134461Y0179221D01*
X0134424Y0179101D01*
X0134384Y0178982D01*
X0134339Y0178865D01*
X0134291Y0178748D01*
X0134239Y0178634D01*
X0134184Y0178521D01*
X0134125Y0178410D01*
X0134063Y0178301D01*
X0133997Y0178194D01*
X0133928Y0178089D01*
X0133856Y0177986D01*
X0133781Y0177885D01*
X0133702Y0177787D01*
X0133620Y0177692D01*
X0133536Y0177599D01*
X0133448Y0177509D01*
X0133358Y0177421D01*
X0133265Y0177337D01*
X0133170Y0177255D01*
X0133072Y0177176D01*
X0132971Y0177101D01*
X0132868Y0177029D01*
X0132763Y0176960D01*
X0132656Y0176894D01*
X0132547Y0176832D01*
X0132436Y0176773D01*
X0132323Y0176718D01*
X0132209Y0176666D01*
X0132092Y0176618D01*
X0131975Y0176573D01*
X0131856Y0176533D01*
X0131736Y0176496D01*
X0131615Y0176463D01*
X0131493Y0176433D01*
X0131370Y0176408D01*
X0131246Y0176386D01*
X0131121Y0176369D01*
X0130996Y0176355D01*
X0130871Y0176345D01*
X0130746Y0176339D01*
X0130620Y0176337D01*
X0130620Y0168837D01*
X0170620Y0168837D01*
X0226620Y0209211D02*
X0226620Y0210790D01*
X0238120Y0218837D02*
X0238122Y0218897D01*
X0238127Y0218958D01*
X0238136Y0219017D01*
X0238149Y0219076D01*
X0238165Y0219135D01*
X0238185Y0219192D01*
X0238208Y0219247D01*
X0238235Y0219302D01*
X0238264Y0219354D01*
X0238297Y0219405D01*
X0238333Y0219454D01*
X0238371Y0219500D01*
X0238413Y0219544D01*
X0238457Y0219586D01*
X0238503Y0219624D01*
X0238552Y0219660D01*
X0238603Y0219693D01*
X0238655Y0219722D01*
X0238710Y0219749D01*
X0238765Y0219772D01*
X0238822Y0219792D01*
X0238881Y0219808D01*
X0238940Y0219821D01*
X0238999Y0219830D01*
X0239060Y0219835D01*
X0239120Y0219837D01*
X0240620Y0219837D01*
X0241120Y0219337D01*
X0260120Y0219337D01*
X0260620Y0219837D01*
X0262120Y0219837D01*
X0262180Y0219835D01*
X0262241Y0219830D01*
X0262300Y0219821D01*
X0262359Y0219808D01*
X0262418Y0219792D01*
X0262475Y0219772D01*
X0262530Y0219749D01*
X0262585Y0219722D01*
X0262637Y0219693D01*
X0262688Y0219660D01*
X0262737Y0219624D01*
X0262783Y0219586D01*
X0262827Y0219544D01*
X0262869Y0219500D01*
X0262907Y0219454D01*
X0262943Y0219405D01*
X0262976Y0219354D01*
X0263005Y0219302D01*
X0263032Y0219247D01*
X0263055Y0219192D01*
X0263075Y0219135D01*
X0263091Y0219076D01*
X0263104Y0219017D01*
X0263113Y0218958D01*
X0263118Y0218897D01*
X0263120Y0218837D01*
X0263120Y0231337D02*
X0263120Y0232337D01*
X0263120Y0231337D02*
X0238120Y0231337D01*
X0238120Y0232337D01*
X0238120Y0238337D02*
X0238120Y0248337D01*
X0247620Y0248337D01*
X0253620Y0248337D02*
X0263120Y0248337D01*
X0263120Y0238337D01*
X0276120Y0240337D02*
X0276620Y0239837D01*
X0276620Y0220837D01*
X0276120Y0220337D01*
X0276120Y0218837D01*
X0276122Y0218777D01*
X0276127Y0218716D01*
X0276136Y0218657D01*
X0276149Y0218598D01*
X0276165Y0218539D01*
X0276185Y0218482D01*
X0276208Y0218427D01*
X0276235Y0218372D01*
X0276264Y0218320D01*
X0276297Y0218269D01*
X0276333Y0218220D01*
X0276371Y0218174D01*
X0276413Y0218130D01*
X0276457Y0218088D01*
X0276503Y0218050D01*
X0276552Y0218014D01*
X0276603Y0217981D01*
X0276655Y0217952D01*
X0276710Y0217925D01*
X0276765Y0217902D01*
X0276822Y0217882D01*
X0276881Y0217866D01*
X0276940Y0217853D01*
X0276999Y0217844D01*
X0277060Y0217839D01*
X0277120Y0217837D01*
X0284120Y0217837D02*
X0284180Y0217839D01*
X0284241Y0217844D01*
X0284300Y0217853D01*
X0284359Y0217866D01*
X0284418Y0217882D01*
X0284475Y0217902D01*
X0284530Y0217925D01*
X0284585Y0217952D01*
X0284637Y0217981D01*
X0284688Y0218014D01*
X0284737Y0218050D01*
X0284783Y0218088D01*
X0284827Y0218130D01*
X0284869Y0218174D01*
X0284907Y0218220D01*
X0284943Y0218269D01*
X0284976Y0218320D01*
X0285005Y0218372D01*
X0285032Y0218427D01*
X0285055Y0218482D01*
X0285075Y0218539D01*
X0285091Y0218598D01*
X0285104Y0218657D01*
X0285113Y0218716D01*
X0285118Y0218777D01*
X0285120Y0218837D01*
X0285120Y0220337D01*
X0284620Y0220837D01*
X0284620Y0239837D01*
X0285120Y0240337D01*
X0285120Y0241837D01*
X0285118Y0241897D01*
X0285113Y0241958D01*
X0285104Y0242017D01*
X0285091Y0242076D01*
X0285075Y0242135D01*
X0285055Y0242192D01*
X0285032Y0242247D01*
X0285005Y0242302D01*
X0284976Y0242354D01*
X0284943Y0242405D01*
X0284907Y0242454D01*
X0284869Y0242500D01*
X0284827Y0242544D01*
X0284783Y0242586D01*
X0284737Y0242624D01*
X0284688Y0242660D01*
X0284637Y0242693D01*
X0284585Y0242722D01*
X0284530Y0242749D01*
X0284475Y0242772D01*
X0284418Y0242792D01*
X0284359Y0242808D01*
X0284300Y0242821D01*
X0284241Y0242830D01*
X0284180Y0242835D01*
X0284120Y0242837D01*
X0277120Y0242837D02*
X0277060Y0242835D01*
X0276999Y0242830D01*
X0276940Y0242821D01*
X0276881Y0242808D01*
X0276822Y0242792D01*
X0276765Y0242772D01*
X0276710Y0242749D01*
X0276655Y0242722D01*
X0276603Y0242693D01*
X0276552Y0242660D01*
X0276503Y0242624D01*
X0276457Y0242586D01*
X0276413Y0242544D01*
X0276371Y0242500D01*
X0276333Y0242454D01*
X0276297Y0242405D01*
X0276264Y0242354D01*
X0276235Y0242302D01*
X0276208Y0242247D01*
X0276185Y0242192D01*
X0276165Y0242135D01*
X0276149Y0242076D01*
X0276136Y0242017D01*
X0276127Y0241958D01*
X0276122Y0241897D01*
X0276120Y0241837D01*
X0276120Y0240337D01*
X0291120Y0236837D02*
X0291120Y0235337D01*
X0291620Y0234837D01*
X0291620Y0215837D01*
X0291120Y0215337D01*
X0291120Y0213837D01*
X0291122Y0213777D01*
X0291127Y0213716D01*
X0291136Y0213657D01*
X0291149Y0213598D01*
X0291165Y0213539D01*
X0291185Y0213482D01*
X0291208Y0213427D01*
X0291235Y0213372D01*
X0291264Y0213320D01*
X0291297Y0213269D01*
X0291333Y0213220D01*
X0291371Y0213174D01*
X0291413Y0213130D01*
X0291457Y0213088D01*
X0291503Y0213050D01*
X0291552Y0213014D01*
X0291603Y0212981D01*
X0291655Y0212952D01*
X0291710Y0212925D01*
X0291765Y0212902D01*
X0291822Y0212882D01*
X0291881Y0212866D01*
X0291940Y0212853D01*
X0291999Y0212844D01*
X0292060Y0212839D01*
X0292120Y0212837D01*
X0299120Y0212837D02*
X0299180Y0212839D01*
X0299241Y0212844D01*
X0299300Y0212853D01*
X0299359Y0212866D01*
X0299418Y0212882D01*
X0299475Y0212902D01*
X0299530Y0212925D01*
X0299585Y0212952D01*
X0299637Y0212981D01*
X0299688Y0213014D01*
X0299737Y0213050D01*
X0299783Y0213088D01*
X0299827Y0213130D01*
X0299869Y0213174D01*
X0299907Y0213220D01*
X0299943Y0213269D01*
X0299976Y0213320D01*
X0300005Y0213372D01*
X0300032Y0213427D01*
X0300055Y0213482D01*
X0300075Y0213539D01*
X0300091Y0213598D01*
X0300104Y0213657D01*
X0300113Y0213716D01*
X0300118Y0213777D01*
X0300120Y0213837D01*
X0300120Y0215337D01*
X0299620Y0215837D01*
X0299620Y0234837D01*
X0300120Y0235337D01*
X0300120Y0236837D01*
X0300118Y0236897D01*
X0300113Y0236958D01*
X0300104Y0237017D01*
X0300091Y0237076D01*
X0300075Y0237135D01*
X0300055Y0237192D01*
X0300032Y0237247D01*
X0300005Y0237302D01*
X0299976Y0237354D01*
X0299943Y0237405D01*
X0299907Y0237454D01*
X0299869Y0237500D01*
X0299827Y0237544D01*
X0299783Y0237586D01*
X0299737Y0237624D01*
X0299688Y0237660D01*
X0299637Y0237693D01*
X0299585Y0237722D01*
X0299530Y0237749D01*
X0299475Y0237772D01*
X0299418Y0237792D01*
X0299359Y0237808D01*
X0299300Y0237821D01*
X0299241Y0237830D01*
X0299180Y0237835D01*
X0299120Y0237837D01*
X0292120Y0237837D02*
X0292060Y0237835D01*
X0291999Y0237830D01*
X0291940Y0237821D01*
X0291881Y0237808D01*
X0291822Y0237792D01*
X0291765Y0237772D01*
X0291710Y0237749D01*
X0291655Y0237722D01*
X0291603Y0237693D01*
X0291552Y0237660D01*
X0291503Y0237624D01*
X0291457Y0237586D01*
X0291413Y0237544D01*
X0291371Y0237500D01*
X0291333Y0237454D01*
X0291297Y0237405D01*
X0291264Y0237354D01*
X0291235Y0237302D01*
X0291208Y0237247D01*
X0291185Y0237192D01*
X0291165Y0237135D01*
X0291149Y0237076D01*
X0291136Y0237017D01*
X0291127Y0236958D01*
X0291122Y0236897D01*
X0291120Y0236837D01*
X0313120Y0236837D02*
X0313122Y0236777D01*
X0313127Y0236716D01*
X0313136Y0236657D01*
X0313149Y0236598D01*
X0313165Y0236539D01*
X0313185Y0236482D01*
X0313208Y0236427D01*
X0313235Y0236372D01*
X0313264Y0236320D01*
X0313297Y0236269D01*
X0313333Y0236220D01*
X0313371Y0236174D01*
X0313413Y0236130D01*
X0313457Y0236088D01*
X0313503Y0236050D01*
X0313552Y0236014D01*
X0313603Y0235981D01*
X0313655Y0235952D01*
X0313710Y0235925D01*
X0313765Y0235902D01*
X0313822Y0235882D01*
X0313881Y0235866D01*
X0313940Y0235853D01*
X0313999Y0235844D01*
X0314060Y0235839D01*
X0314120Y0235837D01*
X0315620Y0235837D01*
X0316120Y0236337D01*
X0335120Y0236337D01*
X0335620Y0235837D01*
X0337120Y0235837D01*
X0337120Y0234837D02*
X0335620Y0234837D01*
X0335120Y0234337D01*
X0316120Y0234337D01*
X0315620Y0234837D01*
X0314120Y0234837D01*
X0314060Y0234835D01*
X0313999Y0234830D01*
X0313940Y0234821D01*
X0313881Y0234808D01*
X0313822Y0234792D01*
X0313765Y0234772D01*
X0313710Y0234749D01*
X0313655Y0234722D01*
X0313603Y0234693D01*
X0313552Y0234660D01*
X0313503Y0234624D01*
X0313457Y0234586D01*
X0313413Y0234544D01*
X0313371Y0234500D01*
X0313333Y0234454D01*
X0313297Y0234405D01*
X0313264Y0234354D01*
X0313235Y0234302D01*
X0313208Y0234247D01*
X0313185Y0234192D01*
X0313165Y0234135D01*
X0313149Y0234076D01*
X0313136Y0234017D01*
X0313127Y0233958D01*
X0313122Y0233897D01*
X0313120Y0233837D01*
X0313120Y0226837D02*
X0313122Y0226777D01*
X0313127Y0226716D01*
X0313136Y0226657D01*
X0313149Y0226598D01*
X0313165Y0226539D01*
X0313185Y0226482D01*
X0313208Y0226427D01*
X0313235Y0226372D01*
X0313264Y0226320D01*
X0313297Y0226269D01*
X0313333Y0226220D01*
X0313371Y0226174D01*
X0313413Y0226130D01*
X0313457Y0226088D01*
X0313503Y0226050D01*
X0313552Y0226014D01*
X0313603Y0225981D01*
X0313655Y0225952D01*
X0313710Y0225925D01*
X0313765Y0225902D01*
X0313822Y0225882D01*
X0313881Y0225866D01*
X0313940Y0225853D01*
X0313999Y0225844D01*
X0314060Y0225839D01*
X0314120Y0225837D01*
X0315620Y0225837D01*
X0316120Y0226337D01*
X0335120Y0226337D01*
X0335620Y0225837D01*
X0337120Y0225837D01*
X0337120Y0224837D02*
X0335620Y0224837D01*
X0335120Y0224337D01*
X0316120Y0224337D01*
X0315620Y0224837D01*
X0314120Y0224837D01*
X0314060Y0224835D01*
X0313999Y0224830D01*
X0313940Y0224821D01*
X0313881Y0224808D01*
X0313822Y0224792D01*
X0313765Y0224772D01*
X0313710Y0224749D01*
X0313655Y0224722D01*
X0313603Y0224693D01*
X0313552Y0224660D01*
X0313503Y0224624D01*
X0313457Y0224586D01*
X0313413Y0224544D01*
X0313371Y0224500D01*
X0313333Y0224454D01*
X0313297Y0224405D01*
X0313264Y0224354D01*
X0313235Y0224302D01*
X0313208Y0224247D01*
X0313185Y0224192D01*
X0313165Y0224135D01*
X0313149Y0224076D01*
X0313136Y0224017D01*
X0313127Y0223958D01*
X0313122Y0223897D01*
X0313120Y0223837D01*
X0313120Y0216837D02*
X0313122Y0216777D01*
X0313127Y0216716D01*
X0313136Y0216657D01*
X0313149Y0216598D01*
X0313165Y0216539D01*
X0313185Y0216482D01*
X0313208Y0216427D01*
X0313235Y0216372D01*
X0313264Y0216320D01*
X0313297Y0216269D01*
X0313333Y0216220D01*
X0313371Y0216174D01*
X0313413Y0216130D01*
X0313457Y0216088D01*
X0313503Y0216050D01*
X0313552Y0216014D01*
X0313603Y0215981D01*
X0313655Y0215952D01*
X0313710Y0215925D01*
X0313765Y0215902D01*
X0313822Y0215882D01*
X0313881Y0215866D01*
X0313940Y0215853D01*
X0313999Y0215844D01*
X0314060Y0215839D01*
X0314120Y0215837D01*
X0315620Y0215837D01*
X0316120Y0216337D01*
X0335120Y0216337D01*
X0335620Y0215837D01*
X0337120Y0215837D01*
X0337180Y0215839D01*
X0337241Y0215844D01*
X0337300Y0215853D01*
X0337359Y0215866D01*
X0337418Y0215882D01*
X0337475Y0215902D01*
X0337530Y0215925D01*
X0337585Y0215952D01*
X0337637Y0215981D01*
X0337688Y0216014D01*
X0337737Y0216050D01*
X0337783Y0216088D01*
X0337827Y0216130D01*
X0337869Y0216174D01*
X0337907Y0216220D01*
X0337943Y0216269D01*
X0337976Y0216320D01*
X0338005Y0216372D01*
X0338032Y0216427D01*
X0338055Y0216482D01*
X0338075Y0216539D01*
X0338091Y0216598D01*
X0338104Y0216657D01*
X0338113Y0216716D01*
X0338118Y0216777D01*
X0338120Y0216837D01*
X0340120Y0214337D02*
X0321120Y0214337D01*
X0320620Y0214837D01*
X0319120Y0214837D01*
X0319060Y0214835D01*
X0318999Y0214830D01*
X0318940Y0214821D01*
X0318881Y0214808D01*
X0318822Y0214792D01*
X0318765Y0214772D01*
X0318710Y0214749D01*
X0318655Y0214722D01*
X0318603Y0214693D01*
X0318552Y0214660D01*
X0318503Y0214624D01*
X0318457Y0214586D01*
X0318413Y0214544D01*
X0318371Y0214500D01*
X0318333Y0214454D01*
X0318297Y0214405D01*
X0318264Y0214354D01*
X0318235Y0214302D01*
X0318208Y0214247D01*
X0318185Y0214192D01*
X0318165Y0214135D01*
X0318149Y0214076D01*
X0318136Y0214017D01*
X0318127Y0213958D01*
X0318122Y0213897D01*
X0318120Y0213837D01*
X0318120Y0206837D02*
X0318122Y0206777D01*
X0318127Y0206716D01*
X0318136Y0206657D01*
X0318149Y0206598D01*
X0318165Y0206539D01*
X0318185Y0206482D01*
X0318208Y0206427D01*
X0318235Y0206372D01*
X0318264Y0206320D01*
X0318297Y0206269D01*
X0318333Y0206220D01*
X0318371Y0206174D01*
X0318413Y0206130D01*
X0318457Y0206088D01*
X0318503Y0206050D01*
X0318552Y0206014D01*
X0318603Y0205981D01*
X0318655Y0205952D01*
X0318710Y0205925D01*
X0318765Y0205902D01*
X0318822Y0205882D01*
X0318881Y0205866D01*
X0318940Y0205853D01*
X0318999Y0205844D01*
X0319060Y0205839D01*
X0319120Y0205837D01*
X0320620Y0205837D01*
X0321120Y0206337D01*
X0340120Y0206337D01*
X0340620Y0205837D01*
X0342120Y0205837D01*
X0342180Y0205839D01*
X0342241Y0205844D01*
X0342300Y0205853D01*
X0342359Y0205866D01*
X0342418Y0205882D01*
X0342475Y0205902D01*
X0342530Y0205925D01*
X0342585Y0205952D01*
X0342637Y0205981D01*
X0342688Y0206014D01*
X0342737Y0206050D01*
X0342783Y0206088D01*
X0342827Y0206130D01*
X0342869Y0206174D01*
X0342907Y0206220D01*
X0342943Y0206269D01*
X0342976Y0206320D01*
X0343005Y0206372D01*
X0343032Y0206427D01*
X0343055Y0206482D01*
X0343075Y0206539D01*
X0343091Y0206598D01*
X0343104Y0206657D01*
X0343113Y0206716D01*
X0343118Y0206777D01*
X0343120Y0206837D01*
X0343120Y0213837D02*
X0343118Y0213897D01*
X0343113Y0213958D01*
X0343104Y0214017D01*
X0343091Y0214076D01*
X0343075Y0214135D01*
X0343055Y0214192D01*
X0343032Y0214247D01*
X0343005Y0214302D01*
X0342976Y0214354D01*
X0342943Y0214405D01*
X0342907Y0214454D01*
X0342869Y0214500D01*
X0342827Y0214544D01*
X0342783Y0214586D01*
X0342737Y0214624D01*
X0342688Y0214660D01*
X0342637Y0214693D01*
X0342585Y0214722D01*
X0342530Y0214749D01*
X0342475Y0214772D01*
X0342418Y0214792D01*
X0342359Y0214808D01*
X0342300Y0214821D01*
X0342241Y0214830D01*
X0342180Y0214835D01*
X0342120Y0214837D01*
X0340620Y0214837D01*
X0340120Y0214337D01*
X0338120Y0223837D02*
X0338118Y0223897D01*
X0338113Y0223958D01*
X0338104Y0224017D01*
X0338091Y0224076D01*
X0338075Y0224135D01*
X0338055Y0224192D01*
X0338032Y0224247D01*
X0338005Y0224302D01*
X0337976Y0224354D01*
X0337943Y0224405D01*
X0337907Y0224454D01*
X0337869Y0224500D01*
X0337827Y0224544D01*
X0337783Y0224586D01*
X0337737Y0224624D01*
X0337688Y0224660D01*
X0337637Y0224693D01*
X0337585Y0224722D01*
X0337530Y0224749D01*
X0337475Y0224772D01*
X0337418Y0224792D01*
X0337359Y0224808D01*
X0337300Y0224821D01*
X0337241Y0224830D01*
X0337180Y0224835D01*
X0337120Y0224837D01*
X0337120Y0225837D02*
X0337180Y0225839D01*
X0337241Y0225844D01*
X0337300Y0225853D01*
X0337359Y0225866D01*
X0337418Y0225882D01*
X0337475Y0225902D01*
X0337530Y0225925D01*
X0337585Y0225952D01*
X0337637Y0225981D01*
X0337688Y0226014D01*
X0337737Y0226050D01*
X0337783Y0226088D01*
X0337827Y0226130D01*
X0337869Y0226174D01*
X0337907Y0226220D01*
X0337943Y0226269D01*
X0337976Y0226320D01*
X0338005Y0226372D01*
X0338032Y0226427D01*
X0338055Y0226482D01*
X0338075Y0226539D01*
X0338091Y0226598D01*
X0338104Y0226657D01*
X0338113Y0226716D01*
X0338118Y0226777D01*
X0338120Y0226837D01*
X0338120Y0233837D02*
X0338118Y0233897D01*
X0338113Y0233958D01*
X0338104Y0234017D01*
X0338091Y0234076D01*
X0338075Y0234135D01*
X0338055Y0234192D01*
X0338032Y0234247D01*
X0338005Y0234302D01*
X0337976Y0234354D01*
X0337943Y0234405D01*
X0337907Y0234454D01*
X0337869Y0234500D01*
X0337827Y0234544D01*
X0337783Y0234586D01*
X0337737Y0234624D01*
X0337688Y0234660D01*
X0337637Y0234693D01*
X0337585Y0234722D01*
X0337530Y0234749D01*
X0337475Y0234772D01*
X0337418Y0234792D01*
X0337359Y0234808D01*
X0337300Y0234821D01*
X0337241Y0234830D01*
X0337180Y0234835D01*
X0337120Y0234837D01*
X0337120Y0235837D02*
X0337180Y0235839D01*
X0337241Y0235844D01*
X0337300Y0235853D01*
X0337359Y0235866D01*
X0337418Y0235882D01*
X0337475Y0235902D01*
X0337530Y0235925D01*
X0337585Y0235952D01*
X0337637Y0235981D01*
X0337688Y0236014D01*
X0337737Y0236050D01*
X0337783Y0236088D01*
X0337827Y0236130D01*
X0337869Y0236174D01*
X0337907Y0236220D01*
X0337943Y0236269D01*
X0337976Y0236320D01*
X0338005Y0236372D01*
X0338032Y0236427D01*
X0338055Y0236482D01*
X0338075Y0236539D01*
X0338091Y0236598D01*
X0338104Y0236657D01*
X0338113Y0236716D01*
X0338118Y0236777D01*
X0338120Y0236837D01*
X0338120Y0243837D02*
X0338118Y0243897D01*
X0338113Y0243958D01*
X0338104Y0244017D01*
X0338091Y0244076D01*
X0338075Y0244135D01*
X0338055Y0244192D01*
X0338032Y0244247D01*
X0338005Y0244302D01*
X0337976Y0244354D01*
X0337943Y0244405D01*
X0337907Y0244454D01*
X0337869Y0244500D01*
X0337827Y0244544D01*
X0337783Y0244586D01*
X0337737Y0244624D01*
X0337688Y0244660D01*
X0337637Y0244693D01*
X0337585Y0244722D01*
X0337530Y0244749D01*
X0337475Y0244772D01*
X0337418Y0244792D01*
X0337359Y0244808D01*
X0337300Y0244821D01*
X0337241Y0244830D01*
X0337180Y0244835D01*
X0337120Y0244837D01*
X0335620Y0244837D01*
X0335120Y0244337D01*
X0316120Y0244337D01*
X0315620Y0244837D01*
X0314120Y0244837D01*
X0314060Y0244835D01*
X0313999Y0244830D01*
X0313940Y0244821D01*
X0313881Y0244808D01*
X0313822Y0244792D01*
X0313765Y0244772D01*
X0313710Y0244749D01*
X0313655Y0244722D01*
X0313603Y0244693D01*
X0313552Y0244660D01*
X0313503Y0244624D01*
X0313457Y0244586D01*
X0313413Y0244544D01*
X0313371Y0244500D01*
X0313333Y0244454D01*
X0313297Y0244405D01*
X0313264Y0244354D01*
X0313235Y0244302D01*
X0313208Y0244247D01*
X0313185Y0244192D01*
X0313165Y0244135D01*
X0313149Y0244076D01*
X0313136Y0244017D01*
X0313127Y0243958D01*
X0313122Y0243897D01*
X0313120Y0243837D01*
X0356120Y0226837D02*
X0356120Y0225337D01*
X0356620Y0224837D01*
X0356620Y0205837D01*
X0356120Y0205337D01*
X0356120Y0203837D01*
X0356122Y0203777D01*
X0356127Y0203716D01*
X0356136Y0203657D01*
X0356149Y0203598D01*
X0356165Y0203539D01*
X0356185Y0203482D01*
X0356208Y0203427D01*
X0356235Y0203372D01*
X0356264Y0203320D01*
X0356297Y0203269D01*
X0356333Y0203220D01*
X0356371Y0203174D01*
X0356413Y0203130D01*
X0356457Y0203088D01*
X0356503Y0203050D01*
X0356552Y0203014D01*
X0356603Y0202981D01*
X0356655Y0202952D01*
X0356710Y0202925D01*
X0356765Y0202902D01*
X0356822Y0202882D01*
X0356881Y0202866D01*
X0356940Y0202853D01*
X0356999Y0202844D01*
X0357060Y0202839D01*
X0357120Y0202837D01*
X0364120Y0202837D02*
X0364180Y0202839D01*
X0364241Y0202844D01*
X0364300Y0202853D01*
X0364359Y0202866D01*
X0364418Y0202882D01*
X0364475Y0202902D01*
X0364530Y0202925D01*
X0364585Y0202952D01*
X0364637Y0202981D01*
X0364688Y0203014D01*
X0364737Y0203050D01*
X0364783Y0203088D01*
X0364827Y0203130D01*
X0364869Y0203174D01*
X0364907Y0203220D01*
X0364943Y0203269D01*
X0364976Y0203320D01*
X0365005Y0203372D01*
X0365032Y0203427D01*
X0365055Y0203482D01*
X0365075Y0203539D01*
X0365091Y0203598D01*
X0365104Y0203657D01*
X0365113Y0203716D01*
X0365118Y0203777D01*
X0365120Y0203837D01*
X0365120Y0205337D01*
X0364620Y0205837D01*
X0364620Y0224837D01*
X0365120Y0225337D01*
X0365120Y0226837D01*
X0365118Y0226897D01*
X0365113Y0226958D01*
X0365104Y0227017D01*
X0365091Y0227076D01*
X0365075Y0227135D01*
X0365055Y0227192D01*
X0365032Y0227247D01*
X0365005Y0227302D01*
X0364976Y0227354D01*
X0364943Y0227405D01*
X0364907Y0227454D01*
X0364869Y0227500D01*
X0364827Y0227544D01*
X0364783Y0227586D01*
X0364737Y0227624D01*
X0364688Y0227660D01*
X0364637Y0227693D01*
X0364585Y0227722D01*
X0364530Y0227749D01*
X0364475Y0227772D01*
X0364418Y0227792D01*
X0364359Y0227808D01*
X0364300Y0227821D01*
X0364241Y0227830D01*
X0364180Y0227835D01*
X0364120Y0227837D01*
X0357120Y0227837D02*
X0357060Y0227835D01*
X0356999Y0227830D01*
X0356940Y0227821D01*
X0356881Y0227808D01*
X0356822Y0227792D01*
X0356765Y0227772D01*
X0356710Y0227749D01*
X0356655Y0227722D01*
X0356603Y0227693D01*
X0356552Y0227660D01*
X0356503Y0227624D01*
X0356457Y0227586D01*
X0356413Y0227544D01*
X0356371Y0227500D01*
X0356333Y0227454D01*
X0356297Y0227405D01*
X0356264Y0227354D01*
X0356235Y0227302D01*
X0356208Y0227247D01*
X0356185Y0227192D01*
X0356165Y0227135D01*
X0356149Y0227076D01*
X0356136Y0227017D01*
X0356127Y0226958D01*
X0356122Y0226897D01*
X0356120Y0226837D01*
X0356120Y0156837D02*
X0356120Y0155337D01*
X0356620Y0154837D01*
X0356620Y0135837D01*
X0356120Y0135337D01*
X0356120Y0133837D01*
X0356122Y0133777D01*
X0356127Y0133716D01*
X0356136Y0133657D01*
X0356149Y0133598D01*
X0356165Y0133539D01*
X0356185Y0133482D01*
X0356208Y0133427D01*
X0356235Y0133372D01*
X0356264Y0133320D01*
X0356297Y0133269D01*
X0356333Y0133220D01*
X0356371Y0133174D01*
X0356413Y0133130D01*
X0356457Y0133088D01*
X0356503Y0133050D01*
X0356552Y0133014D01*
X0356603Y0132981D01*
X0356655Y0132952D01*
X0356710Y0132925D01*
X0356765Y0132902D01*
X0356822Y0132882D01*
X0356881Y0132866D01*
X0356940Y0132853D01*
X0356999Y0132844D01*
X0357060Y0132839D01*
X0357120Y0132837D01*
X0364120Y0132837D02*
X0364180Y0132839D01*
X0364241Y0132844D01*
X0364300Y0132853D01*
X0364359Y0132866D01*
X0364418Y0132882D01*
X0364475Y0132902D01*
X0364530Y0132925D01*
X0364585Y0132952D01*
X0364637Y0132981D01*
X0364688Y0133014D01*
X0364737Y0133050D01*
X0364783Y0133088D01*
X0364827Y0133130D01*
X0364869Y0133174D01*
X0364907Y0133220D01*
X0364943Y0133269D01*
X0364976Y0133320D01*
X0365005Y0133372D01*
X0365032Y0133427D01*
X0365055Y0133482D01*
X0365075Y0133539D01*
X0365091Y0133598D01*
X0365104Y0133657D01*
X0365113Y0133716D01*
X0365118Y0133777D01*
X0365120Y0133837D01*
X0365120Y0135337D01*
X0364620Y0135837D01*
X0364620Y0154837D01*
X0365120Y0155337D01*
X0365120Y0156837D01*
X0365118Y0156897D01*
X0365113Y0156958D01*
X0365104Y0157017D01*
X0365091Y0157076D01*
X0365075Y0157135D01*
X0365055Y0157192D01*
X0365032Y0157247D01*
X0365005Y0157302D01*
X0364976Y0157354D01*
X0364943Y0157405D01*
X0364907Y0157454D01*
X0364869Y0157500D01*
X0364827Y0157544D01*
X0364783Y0157586D01*
X0364737Y0157624D01*
X0364688Y0157660D01*
X0364637Y0157693D01*
X0364585Y0157722D01*
X0364530Y0157749D01*
X0364475Y0157772D01*
X0364418Y0157792D01*
X0364359Y0157808D01*
X0364300Y0157821D01*
X0364241Y0157830D01*
X0364180Y0157835D01*
X0364120Y0157837D01*
X0357120Y0157837D02*
X0357060Y0157835D01*
X0356999Y0157830D01*
X0356940Y0157821D01*
X0356881Y0157808D01*
X0356822Y0157792D01*
X0356765Y0157772D01*
X0356710Y0157749D01*
X0356655Y0157722D01*
X0356603Y0157693D01*
X0356552Y0157660D01*
X0356503Y0157624D01*
X0356457Y0157586D01*
X0356413Y0157544D01*
X0356371Y0157500D01*
X0356333Y0157454D01*
X0356297Y0157405D01*
X0356264Y0157354D01*
X0356235Y0157302D01*
X0356208Y0157247D01*
X0356185Y0157192D01*
X0356165Y0157135D01*
X0356149Y0157076D01*
X0356136Y0157017D01*
X0356127Y0156958D01*
X0356122Y0156897D01*
X0356120Y0156837D01*
X0347120Y0154837D02*
X0345620Y0154837D01*
X0345120Y0154337D01*
X0326120Y0154337D01*
X0325620Y0154837D01*
X0324120Y0154837D01*
X0324060Y0154835D01*
X0323999Y0154830D01*
X0323940Y0154821D01*
X0323881Y0154808D01*
X0323822Y0154792D01*
X0323765Y0154772D01*
X0323710Y0154749D01*
X0323655Y0154722D01*
X0323603Y0154693D01*
X0323552Y0154660D01*
X0323503Y0154624D01*
X0323457Y0154586D01*
X0323413Y0154544D01*
X0323371Y0154500D01*
X0323333Y0154454D01*
X0323297Y0154405D01*
X0323264Y0154354D01*
X0323235Y0154302D01*
X0323208Y0154247D01*
X0323185Y0154192D01*
X0323165Y0154135D01*
X0323149Y0154076D01*
X0323136Y0154017D01*
X0323127Y0153958D01*
X0323122Y0153897D01*
X0323120Y0153837D01*
X0323120Y0146837D02*
X0323122Y0146777D01*
X0323127Y0146716D01*
X0323136Y0146657D01*
X0323149Y0146598D01*
X0323165Y0146539D01*
X0323185Y0146482D01*
X0323208Y0146427D01*
X0323235Y0146372D01*
X0323264Y0146320D01*
X0323297Y0146269D01*
X0323333Y0146220D01*
X0323371Y0146174D01*
X0323413Y0146130D01*
X0323457Y0146088D01*
X0323503Y0146050D01*
X0323552Y0146014D01*
X0323603Y0145981D01*
X0323655Y0145952D01*
X0323710Y0145925D01*
X0323765Y0145902D01*
X0323822Y0145882D01*
X0323881Y0145866D01*
X0323940Y0145853D01*
X0323999Y0145844D01*
X0324060Y0145839D01*
X0324120Y0145837D01*
X0325620Y0145837D01*
X0326120Y0146337D01*
X0345120Y0146337D01*
X0345620Y0145837D01*
X0347120Y0145837D01*
X0347180Y0145839D01*
X0347241Y0145844D01*
X0347300Y0145853D01*
X0347359Y0145866D01*
X0347418Y0145882D01*
X0347475Y0145902D01*
X0347530Y0145925D01*
X0347585Y0145952D01*
X0347637Y0145981D01*
X0347688Y0146014D01*
X0347737Y0146050D01*
X0347783Y0146088D01*
X0347827Y0146130D01*
X0347869Y0146174D01*
X0347907Y0146220D01*
X0347943Y0146269D01*
X0347976Y0146320D01*
X0348005Y0146372D01*
X0348032Y0146427D01*
X0348055Y0146482D01*
X0348075Y0146539D01*
X0348091Y0146598D01*
X0348104Y0146657D01*
X0348113Y0146716D01*
X0348118Y0146777D01*
X0348120Y0146837D01*
X0348120Y0153837D02*
X0348118Y0153897D01*
X0348113Y0153958D01*
X0348104Y0154017D01*
X0348091Y0154076D01*
X0348075Y0154135D01*
X0348055Y0154192D01*
X0348032Y0154247D01*
X0348005Y0154302D01*
X0347976Y0154354D01*
X0347943Y0154405D01*
X0347907Y0154454D01*
X0347869Y0154500D01*
X0347827Y0154544D01*
X0347783Y0154586D01*
X0347737Y0154624D01*
X0347688Y0154660D01*
X0347637Y0154693D01*
X0347585Y0154722D01*
X0347530Y0154749D01*
X0347475Y0154772D01*
X0347418Y0154792D01*
X0347359Y0154808D01*
X0347300Y0154821D01*
X0347241Y0154830D01*
X0347180Y0154835D01*
X0347120Y0154837D01*
X0337120Y0144837D02*
X0335620Y0144837D01*
X0335120Y0144337D01*
X0316120Y0144337D01*
X0315620Y0144837D01*
X0314120Y0144837D01*
X0314060Y0144835D01*
X0313999Y0144830D01*
X0313940Y0144821D01*
X0313881Y0144808D01*
X0313822Y0144792D01*
X0313765Y0144772D01*
X0313710Y0144749D01*
X0313655Y0144722D01*
X0313603Y0144693D01*
X0313552Y0144660D01*
X0313503Y0144624D01*
X0313457Y0144586D01*
X0313413Y0144544D01*
X0313371Y0144500D01*
X0313333Y0144454D01*
X0313297Y0144405D01*
X0313264Y0144354D01*
X0313235Y0144302D01*
X0313208Y0144247D01*
X0313185Y0144192D01*
X0313165Y0144135D01*
X0313149Y0144076D01*
X0313136Y0144017D01*
X0313127Y0143958D01*
X0313122Y0143897D01*
X0313120Y0143837D01*
X0313120Y0136837D02*
X0313122Y0136777D01*
X0313127Y0136716D01*
X0313136Y0136657D01*
X0313149Y0136598D01*
X0313165Y0136539D01*
X0313185Y0136482D01*
X0313208Y0136427D01*
X0313235Y0136372D01*
X0313264Y0136320D01*
X0313297Y0136269D01*
X0313333Y0136220D01*
X0313371Y0136174D01*
X0313413Y0136130D01*
X0313457Y0136088D01*
X0313503Y0136050D01*
X0313552Y0136014D01*
X0313603Y0135981D01*
X0313655Y0135952D01*
X0313710Y0135925D01*
X0313765Y0135902D01*
X0313822Y0135882D01*
X0313881Y0135866D01*
X0313940Y0135853D01*
X0313999Y0135844D01*
X0314060Y0135839D01*
X0314120Y0135837D01*
X0315620Y0135837D01*
X0316120Y0136337D01*
X0335120Y0136337D01*
X0335620Y0135837D01*
X0337120Y0135837D01*
X0337120Y0134837D02*
X0335620Y0134837D01*
X0335120Y0134337D01*
X0316120Y0134337D01*
X0315620Y0134837D01*
X0314120Y0134837D01*
X0314060Y0134835D01*
X0313999Y0134830D01*
X0313940Y0134821D01*
X0313881Y0134808D01*
X0313822Y0134792D01*
X0313765Y0134772D01*
X0313710Y0134749D01*
X0313655Y0134722D01*
X0313603Y0134693D01*
X0313552Y0134660D01*
X0313503Y0134624D01*
X0313457Y0134586D01*
X0313413Y0134544D01*
X0313371Y0134500D01*
X0313333Y0134454D01*
X0313297Y0134405D01*
X0313264Y0134354D01*
X0313235Y0134302D01*
X0313208Y0134247D01*
X0313185Y0134192D01*
X0313165Y0134135D01*
X0313149Y0134076D01*
X0313136Y0134017D01*
X0313127Y0133958D01*
X0313122Y0133897D01*
X0313120Y0133837D01*
X0313120Y0126837D02*
X0313122Y0126777D01*
X0313127Y0126716D01*
X0313136Y0126657D01*
X0313149Y0126598D01*
X0313165Y0126539D01*
X0313185Y0126482D01*
X0313208Y0126427D01*
X0313235Y0126372D01*
X0313264Y0126320D01*
X0313297Y0126269D01*
X0313333Y0126220D01*
X0313371Y0126174D01*
X0313413Y0126130D01*
X0313457Y0126088D01*
X0313503Y0126050D01*
X0313552Y0126014D01*
X0313603Y0125981D01*
X0313655Y0125952D01*
X0313710Y0125925D01*
X0313765Y0125902D01*
X0313822Y0125882D01*
X0313881Y0125866D01*
X0313940Y0125853D01*
X0313999Y0125844D01*
X0314060Y0125839D01*
X0314120Y0125837D01*
X0315620Y0125837D01*
X0316120Y0126337D01*
X0335120Y0126337D01*
X0335620Y0125837D01*
X0337120Y0125837D01*
X0337120Y0124837D02*
X0335620Y0124837D01*
X0335120Y0124337D01*
X0316120Y0124337D01*
X0315620Y0124837D01*
X0314120Y0124837D01*
X0314060Y0124835D01*
X0313999Y0124830D01*
X0313940Y0124821D01*
X0313881Y0124808D01*
X0313822Y0124792D01*
X0313765Y0124772D01*
X0313710Y0124749D01*
X0313655Y0124722D01*
X0313603Y0124693D01*
X0313552Y0124660D01*
X0313503Y0124624D01*
X0313457Y0124586D01*
X0313413Y0124544D01*
X0313371Y0124500D01*
X0313333Y0124454D01*
X0313297Y0124405D01*
X0313264Y0124354D01*
X0313235Y0124302D01*
X0313208Y0124247D01*
X0313185Y0124192D01*
X0313165Y0124135D01*
X0313149Y0124076D01*
X0313136Y0124017D01*
X0313127Y0123958D01*
X0313122Y0123897D01*
X0313120Y0123837D01*
X0313120Y0116837D02*
X0313122Y0116777D01*
X0313127Y0116716D01*
X0313136Y0116657D01*
X0313149Y0116598D01*
X0313165Y0116539D01*
X0313185Y0116482D01*
X0313208Y0116427D01*
X0313235Y0116372D01*
X0313264Y0116320D01*
X0313297Y0116269D01*
X0313333Y0116220D01*
X0313371Y0116174D01*
X0313413Y0116130D01*
X0313457Y0116088D01*
X0313503Y0116050D01*
X0313552Y0116014D01*
X0313603Y0115981D01*
X0313655Y0115952D01*
X0313710Y0115925D01*
X0313765Y0115902D01*
X0313822Y0115882D01*
X0313881Y0115866D01*
X0313940Y0115853D01*
X0313999Y0115844D01*
X0314060Y0115839D01*
X0314120Y0115837D01*
X0315620Y0115837D01*
X0316120Y0116337D01*
X0335120Y0116337D01*
X0335620Y0115837D01*
X0337120Y0115837D01*
X0337180Y0115839D01*
X0337241Y0115844D01*
X0337300Y0115853D01*
X0337359Y0115866D01*
X0337418Y0115882D01*
X0337475Y0115902D01*
X0337530Y0115925D01*
X0337585Y0115952D01*
X0337637Y0115981D01*
X0337688Y0116014D01*
X0337737Y0116050D01*
X0337783Y0116088D01*
X0337827Y0116130D01*
X0337869Y0116174D01*
X0337907Y0116220D01*
X0337943Y0116269D01*
X0337976Y0116320D01*
X0338005Y0116372D01*
X0338032Y0116427D01*
X0338055Y0116482D01*
X0338075Y0116539D01*
X0338091Y0116598D01*
X0338104Y0116657D01*
X0338113Y0116716D01*
X0338118Y0116777D01*
X0338120Y0116837D01*
X0338120Y0123837D02*
X0338118Y0123897D01*
X0338113Y0123958D01*
X0338104Y0124017D01*
X0338091Y0124076D01*
X0338075Y0124135D01*
X0338055Y0124192D01*
X0338032Y0124247D01*
X0338005Y0124302D01*
X0337976Y0124354D01*
X0337943Y0124405D01*
X0337907Y0124454D01*
X0337869Y0124500D01*
X0337827Y0124544D01*
X0337783Y0124586D01*
X0337737Y0124624D01*
X0337688Y0124660D01*
X0337637Y0124693D01*
X0337585Y0124722D01*
X0337530Y0124749D01*
X0337475Y0124772D01*
X0337418Y0124792D01*
X0337359Y0124808D01*
X0337300Y0124821D01*
X0337241Y0124830D01*
X0337180Y0124835D01*
X0337120Y0124837D01*
X0337120Y0125837D02*
X0337180Y0125839D01*
X0337241Y0125844D01*
X0337300Y0125853D01*
X0337359Y0125866D01*
X0337418Y0125882D01*
X0337475Y0125902D01*
X0337530Y0125925D01*
X0337585Y0125952D01*
X0337637Y0125981D01*
X0337688Y0126014D01*
X0337737Y0126050D01*
X0337783Y0126088D01*
X0337827Y0126130D01*
X0337869Y0126174D01*
X0337907Y0126220D01*
X0337943Y0126269D01*
X0337976Y0126320D01*
X0338005Y0126372D01*
X0338032Y0126427D01*
X0338055Y0126482D01*
X0338075Y0126539D01*
X0338091Y0126598D01*
X0338104Y0126657D01*
X0338113Y0126716D01*
X0338118Y0126777D01*
X0338120Y0126837D01*
X0338120Y0133837D02*
X0338118Y0133897D01*
X0338113Y0133958D01*
X0338104Y0134017D01*
X0338091Y0134076D01*
X0338075Y0134135D01*
X0338055Y0134192D01*
X0338032Y0134247D01*
X0338005Y0134302D01*
X0337976Y0134354D01*
X0337943Y0134405D01*
X0337907Y0134454D01*
X0337869Y0134500D01*
X0337827Y0134544D01*
X0337783Y0134586D01*
X0337737Y0134624D01*
X0337688Y0134660D01*
X0337637Y0134693D01*
X0337585Y0134722D01*
X0337530Y0134749D01*
X0337475Y0134772D01*
X0337418Y0134792D01*
X0337359Y0134808D01*
X0337300Y0134821D01*
X0337241Y0134830D01*
X0337180Y0134835D01*
X0337120Y0134837D01*
X0337120Y0135837D02*
X0337180Y0135839D01*
X0337241Y0135844D01*
X0337300Y0135853D01*
X0337359Y0135866D01*
X0337418Y0135882D01*
X0337475Y0135902D01*
X0337530Y0135925D01*
X0337585Y0135952D01*
X0337637Y0135981D01*
X0337688Y0136014D01*
X0337737Y0136050D01*
X0337783Y0136088D01*
X0337827Y0136130D01*
X0337869Y0136174D01*
X0337907Y0136220D01*
X0337943Y0136269D01*
X0337976Y0136320D01*
X0338005Y0136372D01*
X0338032Y0136427D01*
X0338055Y0136482D01*
X0338075Y0136539D01*
X0338091Y0136598D01*
X0338104Y0136657D01*
X0338113Y0136716D01*
X0338118Y0136777D01*
X0338120Y0136837D01*
X0338120Y0143837D02*
X0338118Y0143897D01*
X0338113Y0143958D01*
X0338104Y0144017D01*
X0338091Y0144076D01*
X0338075Y0144135D01*
X0338055Y0144192D01*
X0338032Y0144247D01*
X0338005Y0144302D01*
X0337976Y0144354D01*
X0337943Y0144405D01*
X0337907Y0144454D01*
X0337869Y0144500D01*
X0337827Y0144544D01*
X0337783Y0144586D01*
X0337737Y0144624D01*
X0337688Y0144660D01*
X0337637Y0144693D01*
X0337585Y0144722D01*
X0337530Y0144749D01*
X0337475Y0144772D01*
X0337418Y0144792D01*
X0337359Y0144808D01*
X0337300Y0144821D01*
X0337241Y0144830D01*
X0337180Y0144835D01*
X0337120Y0144837D01*
X0300120Y0145337D02*
X0299620Y0144837D01*
X0299620Y0125837D01*
X0300120Y0125337D01*
X0300120Y0123837D01*
X0300118Y0123777D01*
X0300113Y0123716D01*
X0300104Y0123657D01*
X0300091Y0123598D01*
X0300075Y0123539D01*
X0300055Y0123482D01*
X0300032Y0123427D01*
X0300005Y0123372D01*
X0299976Y0123320D01*
X0299943Y0123269D01*
X0299907Y0123220D01*
X0299869Y0123174D01*
X0299827Y0123130D01*
X0299783Y0123088D01*
X0299737Y0123050D01*
X0299688Y0123014D01*
X0299637Y0122981D01*
X0299585Y0122952D01*
X0299530Y0122925D01*
X0299475Y0122902D01*
X0299418Y0122882D01*
X0299359Y0122866D01*
X0299300Y0122853D01*
X0299241Y0122844D01*
X0299180Y0122839D01*
X0299120Y0122837D01*
X0292120Y0122837D02*
X0292060Y0122839D01*
X0291999Y0122844D01*
X0291940Y0122853D01*
X0291881Y0122866D01*
X0291822Y0122882D01*
X0291765Y0122902D01*
X0291710Y0122925D01*
X0291655Y0122952D01*
X0291603Y0122981D01*
X0291552Y0123014D01*
X0291503Y0123050D01*
X0291457Y0123088D01*
X0291413Y0123130D01*
X0291371Y0123174D01*
X0291333Y0123220D01*
X0291297Y0123269D01*
X0291264Y0123320D01*
X0291235Y0123372D01*
X0291208Y0123427D01*
X0291185Y0123482D01*
X0291165Y0123539D01*
X0291149Y0123598D01*
X0291136Y0123657D01*
X0291127Y0123716D01*
X0291122Y0123777D01*
X0291120Y0123837D01*
X0291120Y0125337D01*
X0291620Y0125837D01*
X0291620Y0144837D01*
X0291120Y0145337D01*
X0291120Y0146837D01*
X0291122Y0146897D01*
X0291127Y0146958D01*
X0291136Y0147017D01*
X0291149Y0147076D01*
X0291165Y0147135D01*
X0291185Y0147192D01*
X0291208Y0147247D01*
X0291235Y0147302D01*
X0291264Y0147354D01*
X0291297Y0147405D01*
X0291333Y0147454D01*
X0291371Y0147500D01*
X0291413Y0147544D01*
X0291457Y0147586D01*
X0291503Y0147624D01*
X0291552Y0147660D01*
X0291603Y0147693D01*
X0291655Y0147722D01*
X0291710Y0147749D01*
X0291765Y0147772D01*
X0291822Y0147792D01*
X0291881Y0147808D01*
X0291940Y0147821D01*
X0291999Y0147830D01*
X0292060Y0147835D01*
X0292120Y0147837D01*
X0299120Y0147837D02*
X0299180Y0147835D01*
X0299241Y0147830D01*
X0299300Y0147821D01*
X0299359Y0147808D01*
X0299418Y0147792D01*
X0299475Y0147772D01*
X0299530Y0147749D01*
X0299585Y0147722D01*
X0299637Y0147693D01*
X0299688Y0147660D01*
X0299737Y0147624D01*
X0299783Y0147586D01*
X0299827Y0147544D01*
X0299869Y0147500D01*
X0299907Y0147454D01*
X0299943Y0147405D01*
X0299976Y0147354D01*
X0300005Y0147302D01*
X0300032Y0147247D01*
X0300055Y0147192D01*
X0300075Y0147135D01*
X0300091Y0147076D01*
X0300104Y0147017D01*
X0300113Y0146958D01*
X0300118Y0146897D01*
X0300120Y0146837D01*
X0300120Y0145337D01*
X0285120Y0141837D02*
X0285120Y0140337D01*
X0284620Y0139837D01*
X0284620Y0120837D01*
X0285120Y0120337D01*
X0285120Y0118837D01*
X0285118Y0118777D01*
X0285113Y0118716D01*
X0285104Y0118657D01*
X0285091Y0118598D01*
X0285075Y0118539D01*
X0285055Y0118482D01*
X0285032Y0118427D01*
X0285005Y0118372D01*
X0284976Y0118320D01*
X0284943Y0118269D01*
X0284907Y0118220D01*
X0284869Y0118174D01*
X0284827Y0118130D01*
X0284783Y0118088D01*
X0284737Y0118050D01*
X0284688Y0118014D01*
X0284637Y0117981D01*
X0284585Y0117952D01*
X0284530Y0117925D01*
X0284475Y0117902D01*
X0284418Y0117882D01*
X0284359Y0117866D01*
X0284300Y0117853D01*
X0284241Y0117844D01*
X0284180Y0117839D01*
X0284120Y0117837D01*
X0277120Y0117837D02*
X0277060Y0117839D01*
X0276999Y0117844D01*
X0276940Y0117853D01*
X0276881Y0117866D01*
X0276822Y0117882D01*
X0276765Y0117902D01*
X0276710Y0117925D01*
X0276655Y0117952D01*
X0276603Y0117981D01*
X0276552Y0118014D01*
X0276503Y0118050D01*
X0276457Y0118088D01*
X0276413Y0118130D01*
X0276371Y0118174D01*
X0276333Y0118220D01*
X0276297Y0118269D01*
X0276264Y0118320D01*
X0276235Y0118372D01*
X0276208Y0118427D01*
X0276185Y0118482D01*
X0276165Y0118539D01*
X0276149Y0118598D01*
X0276136Y0118657D01*
X0276127Y0118716D01*
X0276122Y0118777D01*
X0276120Y0118837D01*
X0276120Y0120337D01*
X0276620Y0120837D01*
X0276620Y0139837D01*
X0276120Y0140337D01*
X0276120Y0141837D01*
X0276122Y0141897D01*
X0276127Y0141958D01*
X0276136Y0142017D01*
X0276149Y0142076D01*
X0276165Y0142135D01*
X0276185Y0142192D01*
X0276208Y0142247D01*
X0276235Y0142302D01*
X0276264Y0142354D01*
X0276297Y0142405D01*
X0276333Y0142454D01*
X0276371Y0142500D01*
X0276413Y0142544D01*
X0276457Y0142586D01*
X0276503Y0142624D01*
X0276552Y0142660D01*
X0276603Y0142693D01*
X0276655Y0142722D01*
X0276710Y0142749D01*
X0276765Y0142772D01*
X0276822Y0142792D01*
X0276881Y0142808D01*
X0276940Y0142821D01*
X0276999Y0142830D01*
X0277060Y0142835D01*
X0277120Y0142837D01*
X0284120Y0142837D02*
X0284180Y0142835D01*
X0284241Y0142830D01*
X0284300Y0142821D01*
X0284359Y0142808D01*
X0284418Y0142792D01*
X0284475Y0142772D01*
X0284530Y0142749D01*
X0284585Y0142722D01*
X0284637Y0142693D01*
X0284688Y0142660D01*
X0284737Y0142624D01*
X0284783Y0142586D01*
X0284827Y0142544D01*
X0284869Y0142500D01*
X0284907Y0142454D01*
X0284943Y0142405D01*
X0284976Y0142354D01*
X0285005Y0142302D01*
X0285032Y0142247D01*
X0285055Y0142192D01*
X0285075Y0142135D01*
X0285091Y0142076D01*
X0285104Y0142017D01*
X0285113Y0141958D01*
X0285118Y0141897D01*
X0285120Y0141837D01*
X0268120Y0134337D02*
X0268120Y0133337D01*
X0268120Y0134337D02*
X0243120Y0134337D01*
X0243120Y0133337D01*
X0243120Y0127337D02*
X0243120Y0117337D01*
X0252620Y0117337D01*
X0258620Y0117337D02*
X0268120Y0117337D01*
X0268120Y0127337D01*
X0267620Y0124337D02*
X0267635Y0124220D01*
X0267646Y0124103D01*
X0267653Y0123985D01*
X0267656Y0123867D01*
X0267655Y0123749D01*
X0267650Y0123631D01*
X0267641Y0123514D01*
X0267628Y0123396D01*
X0267612Y0123280D01*
X0267591Y0123164D01*
X0267567Y0123048D01*
X0267539Y0122934D01*
X0267507Y0122820D01*
X0267471Y0122708D01*
X0267431Y0122597D01*
X0267388Y0122487D01*
X0267341Y0122379D01*
X0267291Y0122272D01*
X0267237Y0122167D01*
X0267180Y0122064D01*
X0267119Y0121963D01*
X0267055Y0121864D01*
X0266987Y0121768D01*
X0266917Y0121673D01*
X0266843Y0121581D01*
X0266766Y0121492D01*
X0266686Y0121405D01*
X0266604Y0121320D01*
X0266519Y0121239D01*
X0266431Y0121160D01*
X0266340Y0121085D01*
X0266247Y0121012D01*
X0266152Y0120943D01*
X0266054Y0120877D01*
X0265954Y0120814D01*
X0265852Y0120754D01*
X0265749Y0120698D01*
X0265643Y0120646D01*
X0265536Y0120597D01*
X0265427Y0120551D01*
X0265317Y0120510D01*
X0265205Y0120472D01*
X0265092Y0120437D01*
X0264978Y0120407D01*
X0264864Y0120380D01*
X0264748Y0120357D01*
X0264632Y0120338D01*
X0264515Y0120323D01*
X0264397Y0120312D01*
X0264279Y0120305D01*
X0264162Y0120301D01*
X0264044Y0120302D01*
X0263926Y0120306D01*
X0263808Y0120315D01*
X0263691Y0120327D01*
X0263574Y0120343D01*
X0263458Y0120364D01*
X0263342Y0120388D01*
X0263228Y0120415D01*
X0263114Y0120447D01*
X0263002Y0120482D01*
X0262891Y0120522D01*
X0262781Y0120564D01*
X0262672Y0120611D01*
X0262566Y0120661D01*
X0262461Y0120715D01*
X0262357Y0120772D01*
X0262256Y0120832D01*
X0262157Y0120896D01*
X0262060Y0120963D01*
X0261965Y0121033D01*
X0261873Y0121107D01*
X0261783Y0121183D01*
X0261696Y0121263D01*
X0261611Y0121345D01*
X0261530Y0121430D01*
X0261451Y0121518D01*
X0261375Y0121608D01*
X0261302Y0121701D01*
X0261233Y0121796D01*
X0261166Y0121893D01*
X0261103Y0121993D01*
X0261043Y0122094D01*
X0260987Y0122198D01*
X0260934Y0122303D01*
X0260885Y0122410D01*
X0260839Y0122519D01*
X0260797Y0122629D01*
X0260758Y0122741D01*
X0260724Y0122854D01*
X0260693Y0122967D01*
X0260666Y0123082D01*
X0260642Y0123198D01*
X0260623Y0123314D01*
X0260607Y0123431D01*
X0260596Y0123548D01*
X0260588Y0123666D01*
X0260584Y0123784D01*
X0260585Y0123902D01*
X0260589Y0124020D01*
X0260597Y0124137D01*
X0260609Y0124255D01*
X0260625Y0124371D01*
X0260644Y0124488D01*
X0260668Y0124603D01*
X0260695Y0124718D01*
X0260727Y0124832D01*
X0260762Y0124944D01*
X0260801Y0125056D01*
X0260843Y0125166D01*
X0260889Y0125274D01*
X0260939Y0125381D01*
X0260992Y0125486D01*
X0261049Y0125590D01*
X0261109Y0125691D01*
X0261173Y0125790D01*
X0261239Y0125888D01*
X0261309Y0125983D01*
X0261382Y0126075D01*
X0261459Y0126165D01*
X0261538Y0126253D01*
X0261620Y0126337D01*
X0216620Y0129337D02*
X0216536Y0129419D01*
X0216448Y0129498D01*
X0216358Y0129575D01*
X0216266Y0129648D01*
X0216171Y0129718D01*
X0216073Y0129784D01*
X0215974Y0129848D01*
X0215873Y0129908D01*
X0215769Y0129965D01*
X0215664Y0130018D01*
X0215557Y0130068D01*
X0215449Y0130114D01*
X0215339Y0130156D01*
X0215227Y0130195D01*
X0215115Y0130230D01*
X0215001Y0130262D01*
X0214886Y0130289D01*
X0214771Y0130313D01*
X0214654Y0130332D01*
X0214538Y0130348D01*
X0214420Y0130360D01*
X0214303Y0130368D01*
X0214185Y0130372D01*
X0214067Y0130373D01*
X0213949Y0130369D01*
X0213831Y0130361D01*
X0213714Y0130350D01*
X0213597Y0130334D01*
X0213481Y0130315D01*
X0213365Y0130291D01*
X0213250Y0130264D01*
X0213137Y0130233D01*
X0213024Y0130199D01*
X0212912Y0130160D01*
X0212802Y0130118D01*
X0212693Y0130072D01*
X0212586Y0130023D01*
X0212481Y0129970D01*
X0212377Y0129914D01*
X0212276Y0129854D01*
X0212176Y0129791D01*
X0212079Y0129724D01*
X0211984Y0129655D01*
X0211891Y0129582D01*
X0211801Y0129506D01*
X0211713Y0129427D01*
X0211628Y0129346D01*
X0211546Y0129261D01*
X0211466Y0129174D01*
X0211390Y0129084D01*
X0211316Y0128992D01*
X0211246Y0128897D01*
X0211179Y0128800D01*
X0211115Y0128701D01*
X0211055Y0128600D01*
X0210998Y0128496D01*
X0210944Y0128391D01*
X0210894Y0128285D01*
X0210847Y0128176D01*
X0210805Y0128066D01*
X0210765Y0127955D01*
X0210730Y0127843D01*
X0210698Y0127729D01*
X0210671Y0127615D01*
X0210647Y0127499D01*
X0210626Y0127383D01*
X0210610Y0127266D01*
X0210598Y0127149D01*
X0210589Y0127031D01*
X0210585Y0126913D01*
X0210584Y0126795D01*
X0210588Y0126678D01*
X0210595Y0126560D01*
X0210606Y0126442D01*
X0210621Y0126325D01*
X0210640Y0126209D01*
X0210663Y0126093D01*
X0210690Y0125979D01*
X0210720Y0125865D01*
X0210755Y0125752D01*
X0210793Y0125640D01*
X0210834Y0125530D01*
X0210880Y0125421D01*
X0210929Y0125314D01*
X0210981Y0125208D01*
X0211037Y0125105D01*
X0211097Y0125003D01*
X0211160Y0124903D01*
X0211226Y0124805D01*
X0211295Y0124710D01*
X0211368Y0124617D01*
X0211443Y0124526D01*
X0211522Y0124438D01*
X0211603Y0124353D01*
X0211688Y0124271D01*
X0211775Y0124191D01*
X0211864Y0124114D01*
X0211956Y0124040D01*
X0212051Y0123970D01*
X0212147Y0123902D01*
X0212246Y0123838D01*
X0212347Y0123777D01*
X0212450Y0123720D01*
X0212555Y0123666D01*
X0212662Y0123616D01*
X0212770Y0123569D01*
X0212880Y0123526D01*
X0212991Y0123486D01*
X0213103Y0123450D01*
X0213217Y0123418D01*
X0213331Y0123390D01*
X0213447Y0123366D01*
X0213563Y0123345D01*
X0213679Y0123329D01*
X0213797Y0123316D01*
X0213914Y0123307D01*
X0214032Y0123302D01*
X0214150Y0123301D01*
X0214268Y0123304D01*
X0214386Y0123311D01*
X0214503Y0123322D01*
X0214620Y0123337D01*
X0090620Y0129337D02*
X0090120Y0129337D01*
X0090620Y0129337D02*
X0090620Y0131337D01*
X0090120Y0131337D01*
X0081120Y0131337D02*
X0080620Y0131337D01*
X0080620Y0129337D01*
X0081120Y0129337D01*
X0087120Y0156337D02*
X0072620Y0156337D01*
X0072544Y0156339D01*
X0072468Y0156345D01*
X0072393Y0156354D01*
X0072318Y0156368D01*
X0072244Y0156385D01*
X0072171Y0156406D01*
X0072099Y0156430D01*
X0072028Y0156459D01*
X0071959Y0156490D01*
X0071892Y0156525D01*
X0071827Y0156564D01*
X0071763Y0156606D01*
X0071702Y0156651D01*
X0071643Y0156699D01*
X0071587Y0156750D01*
X0071533Y0156804D01*
X0071482Y0156860D01*
X0071434Y0156919D01*
X0071389Y0156980D01*
X0071347Y0157044D01*
X0071308Y0157109D01*
X0071273Y0157176D01*
X0071242Y0157245D01*
X0071213Y0157316D01*
X0071189Y0157388D01*
X0071168Y0157461D01*
X0071151Y0157535D01*
X0071137Y0157610D01*
X0071128Y0157685D01*
X0071122Y0157761D01*
X0071120Y0157837D01*
X0071120Y0172837D01*
X0071122Y0172913D01*
X0071128Y0172989D01*
X0071137Y0173064D01*
X0071151Y0173139D01*
X0071168Y0173213D01*
X0071189Y0173286D01*
X0071213Y0173358D01*
X0071242Y0173429D01*
X0071273Y0173498D01*
X0071308Y0173565D01*
X0071347Y0173630D01*
X0071389Y0173694D01*
X0071434Y0173755D01*
X0071482Y0173814D01*
X0071533Y0173870D01*
X0071587Y0173924D01*
X0071643Y0173975D01*
X0071702Y0174023D01*
X0071763Y0174068D01*
X0071827Y0174110D01*
X0071892Y0174149D01*
X0071959Y0174184D01*
X0072028Y0174215D01*
X0072099Y0174244D01*
X0072171Y0174268D01*
X0072244Y0174289D01*
X0072318Y0174306D01*
X0072393Y0174320D01*
X0072468Y0174329D01*
X0072544Y0174335D01*
X0072620Y0174337D01*
X0087120Y0174337D01*
X0090120Y0171337D01*
X0090120Y0159337D01*
X0087120Y0156337D01*
X0087620Y0158737D02*
X0087620Y0161237D01*
X0086320Y0159937D02*
X0088920Y0159937D01*
X0082120Y0180837D02*
X0069120Y0180837D01*
X0069033Y0180839D01*
X0068946Y0180845D01*
X0068859Y0180854D01*
X0068773Y0180867D01*
X0068687Y0180884D01*
X0068602Y0180905D01*
X0068519Y0180930D01*
X0068436Y0180958D01*
X0068355Y0180989D01*
X0068275Y0181024D01*
X0068197Y0181063D01*
X0068120Y0181105D01*
X0068045Y0181150D01*
X0067973Y0181199D01*
X0067902Y0181250D01*
X0067834Y0181305D01*
X0067769Y0181362D01*
X0067706Y0181423D01*
X0067645Y0181486D01*
X0067588Y0181551D01*
X0067533Y0181619D01*
X0067482Y0181690D01*
X0067433Y0181762D01*
X0067388Y0181837D01*
X0067346Y0181914D01*
X0067307Y0181992D01*
X0067272Y0182072D01*
X0067241Y0182153D01*
X0067213Y0182236D01*
X0067188Y0182319D01*
X0067167Y0182404D01*
X0067150Y0182490D01*
X0067137Y0182576D01*
X0067128Y0182663D01*
X0067122Y0182750D01*
X0067120Y0182837D01*
X0070620Y0185337D02*
X0074320Y0185337D01*
X0076820Y0185337D02*
X0080620Y0185337D01*
X0084120Y0182837D02*
X0084118Y0182750D01*
X0084112Y0182663D01*
X0084103Y0182576D01*
X0084090Y0182490D01*
X0084073Y0182404D01*
X0084052Y0182319D01*
X0084027Y0182236D01*
X0083999Y0182153D01*
X0083968Y0182072D01*
X0083933Y0181992D01*
X0083894Y0181914D01*
X0083852Y0181837D01*
X0083807Y0181762D01*
X0083758Y0181690D01*
X0083707Y0181619D01*
X0083652Y0181551D01*
X0083595Y0181486D01*
X0083534Y0181423D01*
X0083471Y0181362D01*
X0083406Y0181305D01*
X0083338Y0181250D01*
X0083267Y0181199D01*
X0083195Y0181150D01*
X0083120Y0181105D01*
X0083043Y0181063D01*
X0082965Y0181024D01*
X0082885Y0180989D01*
X0082804Y0180958D01*
X0082721Y0180930D01*
X0082638Y0180905D01*
X0082553Y0180884D01*
X0082467Y0180867D01*
X0082381Y0180854D01*
X0082294Y0180845D01*
X0082207Y0180839D01*
X0082120Y0180837D01*
X0084120Y0187837D02*
X0084118Y0187924D01*
X0084112Y0188011D01*
X0084103Y0188098D01*
X0084090Y0188184D01*
X0084073Y0188270D01*
X0084052Y0188355D01*
X0084027Y0188438D01*
X0083999Y0188521D01*
X0083968Y0188602D01*
X0083933Y0188682D01*
X0083894Y0188760D01*
X0083852Y0188837D01*
X0083807Y0188912D01*
X0083758Y0188984D01*
X0083707Y0189055D01*
X0083652Y0189123D01*
X0083595Y0189188D01*
X0083534Y0189251D01*
X0083471Y0189312D01*
X0083406Y0189369D01*
X0083338Y0189424D01*
X0083267Y0189475D01*
X0083195Y0189524D01*
X0083120Y0189569D01*
X0083043Y0189611D01*
X0082965Y0189650D01*
X0082885Y0189685D01*
X0082804Y0189716D01*
X0082721Y0189744D01*
X0082638Y0189769D01*
X0082553Y0189790D01*
X0082467Y0189807D01*
X0082381Y0189820D01*
X0082294Y0189829D01*
X0082207Y0189835D01*
X0082120Y0189837D01*
X0069120Y0189837D01*
X0069033Y0189835D01*
X0068946Y0189829D01*
X0068859Y0189820D01*
X0068773Y0189807D01*
X0068687Y0189790D01*
X0068602Y0189769D01*
X0068519Y0189744D01*
X0068436Y0189716D01*
X0068355Y0189685D01*
X0068275Y0189650D01*
X0068197Y0189611D01*
X0068120Y0189569D01*
X0068045Y0189524D01*
X0067973Y0189475D01*
X0067902Y0189424D01*
X0067834Y0189369D01*
X0067769Y0189312D01*
X0067706Y0189251D01*
X0067645Y0189188D01*
X0067588Y0189123D01*
X0067533Y0189055D01*
X0067482Y0188984D01*
X0067433Y0188912D01*
X0067388Y0188837D01*
X0067346Y0188760D01*
X0067307Y0188682D01*
X0067272Y0188602D01*
X0067241Y0188521D01*
X0067213Y0188438D01*
X0067188Y0188355D01*
X0067167Y0188270D01*
X0067150Y0188184D01*
X0067137Y0188098D01*
X0067128Y0188011D01*
X0067122Y0187924D01*
X0067120Y0187837D01*
X0069120Y0195837D02*
X0082120Y0195837D01*
X0082207Y0195839D01*
X0082294Y0195845D01*
X0082381Y0195854D01*
X0082467Y0195867D01*
X0082553Y0195884D01*
X0082638Y0195905D01*
X0082721Y0195930D01*
X0082804Y0195958D01*
X0082885Y0195989D01*
X0082965Y0196024D01*
X0083043Y0196063D01*
X0083120Y0196105D01*
X0083195Y0196150D01*
X0083267Y0196199D01*
X0083338Y0196250D01*
X0083406Y0196305D01*
X0083471Y0196362D01*
X0083534Y0196423D01*
X0083595Y0196486D01*
X0083652Y0196551D01*
X0083707Y0196619D01*
X0083758Y0196690D01*
X0083807Y0196762D01*
X0083852Y0196837D01*
X0083894Y0196914D01*
X0083933Y0196992D01*
X0083968Y0197072D01*
X0083999Y0197153D01*
X0084027Y0197236D01*
X0084052Y0197319D01*
X0084073Y0197404D01*
X0084090Y0197490D01*
X0084103Y0197576D01*
X0084112Y0197663D01*
X0084118Y0197750D01*
X0084120Y0197837D01*
X0080620Y0200337D02*
X0076920Y0200337D01*
X0074420Y0200337D02*
X0070620Y0200337D01*
X0067120Y0197837D02*
X0067122Y0197750D01*
X0067128Y0197663D01*
X0067137Y0197576D01*
X0067150Y0197490D01*
X0067167Y0197404D01*
X0067188Y0197319D01*
X0067213Y0197236D01*
X0067241Y0197153D01*
X0067272Y0197072D01*
X0067307Y0196992D01*
X0067346Y0196914D01*
X0067388Y0196837D01*
X0067433Y0196762D01*
X0067482Y0196690D01*
X0067533Y0196619D01*
X0067588Y0196551D01*
X0067645Y0196486D01*
X0067706Y0196423D01*
X0067769Y0196362D01*
X0067834Y0196305D01*
X0067902Y0196250D01*
X0067973Y0196199D01*
X0068045Y0196150D01*
X0068120Y0196105D01*
X0068197Y0196063D01*
X0068275Y0196024D01*
X0068355Y0195989D01*
X0068436Y0195958D01*
X0068519Y0195930D01*
X0068602Y0195905D01*
X0068687Y0195884D01*
X0068773Y0195867D01*
X0068859Y0195854D01*
X0068946Y0195845D01*
X0069033Y0195839D01*
X0069120Y0195837D01*
X0067120Y0202837D02*
X0067122Y0202924D01*
X0067128Y0203011D01*
X0067137Y0203098D01*
X0067150Y0203184D01*
X0067167Y0203270D01*
X0067188Y0203355D01*
X0067213Y0203438D01*
X0067241Y0203521D01*
X0067272Y0203602D01*
X0067307Y0203682D01*
X0067346Y0203760D01*
X0067388Y0203837D01*
X0067433Y0203912D01*
X0067482Y0203984D01*
X0067533Y0204055D01*
X0067588Y0204123D01*
X0067645Y0204188D01*
X0067706Y0204251D01*
X0067769Y0204312D01*
X0067834Y0204369D01*
X0067902Y0204424D01*
X0067973Y0204475D01*
X0068045Y0204524D01*
X0068120Y0204569D01*
X0068197Y0204611D01*
X0068275Y0204650D01*
X0068355Y0204685D01*
X0068436Y0204716D01*
X0068519Y0204744D01*
X0068602Y0204769D01*
X0068687Y0204790D01*
X0068773Y0204807D01*
X0068859Y0204820D01*
X0068946Y0204829D01*
X0069033Y0204835D01*
X0069120Y0204837D01*
X0082120Y0204837D01*
X0082207Y0204835D01*
X0082294Y0204829D01*
X0082381Y0204820D01*
X0082467Y0204807D01*
X0082553Y0204790D01*
X0082638Y0204769D01*
X0082721Y0204744D01*
X0082804Y0204716D01*
X0082885Y0204685D01*
X0082965Y0204650D01*
X0083043Y0204611D01*
X0083120Y0204569D01*
X0083195Y0204524D01*
X0083267Y0204475D01*
X0083338Y0204424D01*
X0083406Y0204369D01*
X0083471Y0204312D01*
X0083534Y0204251D01*
X0083595Y0204188D01*
X0083652Y0204123D01*
X0083707Y0204055D01*
X0083758Y0203984D01*
X0083807Y0203912D01*
X0083852Y0203837D01*
X0083894Y0203760D01*
X0083933Y0203682D01*
X0083968Y0203602D01*
X0083999Y0203521D01*
X0084027Y0203438D01*
X0084052Y0203355D01*
X0084073Y0203270D01*
X0084090Y0203184D01*
X0084103Y0203098D01*
X0084112Y0203011D01*
X0084118Y0202924D01*
X0084120Y0202837D01*
X0088620Y0211337D02*
X0074120Y0211337D01*
X0071120Y0214337D01*
X0071120Y0226337D01*
X0074120Y0229337D01*
X0088620Y0229337D01*
X0088696Y0229335D01*
X0088772Y0229329D01*
X0088847Y0229320D01*
X0088922Y0229306D01*
X0088996Y0229289D01*
X0089069Y0229268D01*
X0089141Y0229244D01*
X0089212Y0229215D01*
X0089281Y0229184D01*
X0089348Y0229149D01*
X0089413Y0229110D01*
X0089477Y0229068D01*
X0089538Y0229023D01*
X0089597Y0228975D01*
X0089653Y0228924D01*
X0089707Y0228870D01*
X0089758Y0228814D01*
X0089806Y0228755D01*
X0089851Y0228694D01*
X0089893Y0228630D01*
X0089932Y0228565D01*
X0089967Y0228498D01*
X0089998Y0228429D01*
X0090027Y0228358D01*
X0090051Y0228286D01*
X0090072Y0228213D01*
X0090089Y0228139D01*
X0090103Y0228064D01*
X0090112Y0227989D01*
X0090118Y0227913D01*
X0090120Y0227837D01*
X0090120Y0212837D01*
X0090118Y0212761D01*
X0090112Y0212685D01*
X0090103Y0212610D01*
X0090089Y0212535D01*
X0090072Y0212461D01*
X0090051Y0212388D01*
X0090027Y0212316D01*
X0089998Y0212245D01*
X0089967Y0212176D01*
X0089932Y0212109D01*
X0089893Y0212044D01*
X0089851Y0211980D01*
X0089806Y0211919D01*
X0089758Y0211860D01*
X0089707Y0211804D01*
X0089653Y0211750D01*
X0089597Y0211699D01*
X0089538Y0211651D01*
X0089477Y0211606D01*
X0089413Y0211564D01*
X0089348Y0211525D01*
X0089281Y0211490D01*
X0089212Y0211459D01*
X0089141Y0211430D01*
X0089069Y0211406D01*
X0088996Y0211385D01*
X0088922Y0211368D01*
X0088847Y0211354D01*
X0088772Y0211345D01*
X0088696Y0211339D01*
X0088620Y0211337D01*
X0074920Y0225737D02*
X0072320Y0225737D01*
X0073620Y0226937D02*
X0073620Y0224437D01*
X0080620Y0234337D02*
X0081120Y0234337D01*
X0080620Y0234337D02*
X0080620Y0236337D01*
X0081120Y0236337D01*
X0090120Y0236337D02*
X0090620Y0236337D01*
X0090620Y0234337D01*
X0090120Y0234337D01*
X0126120Y0235337D02*
X0126120Y0236837D01*
X0126122Y0236897D01*
X0126127Y0236958D01*
X0126136Y0237017D01*
X0126149Y0237076D01*
X0126165Y0237135D01*
X0126185Y0237192D01*
X0126208Y0237247D01*
X0126235Y0237302D01*
X0126264Y0237354D01*
X0126297Y0237405D01*
X0126333Y0237454D01*
X0126371Y0237500D01*
X0126413Y0237544D01*
X0126457Y0237586D01*
X0126503Y0237624D01*
X0126552Y0237660D01*
X0126603Y0237693D01*
X0126655Y0237722D01*
X0126710Y0237749D01*
X0126765Y0237772D01*
X0126822Y0237792D01*
X0126881Y0237808D01*
X0126940Y0237821D01*
X0126999Y0237830D01*
X0127060Y0237835D01*
X0127120Y0237837D01*
X0126120Y0235337D02*
X0126620Y0234837D01*
X0126620Y0215837D01*
X0126120Y0215337D01*
X0126120Y0213837D01*
X0126122Y0213777D01*
X0126127Y0213716D01*
X0126136Y0213657D01*
X0126149Y0213598D01*
X0126165Y0213539D01*
X0126185Y0213482D01*
X0126208Y0213427D01*
X0126235Y0213372D01*
X0126264Y0213320D01*
X0126297Y0213269D01*
X0126333Y0213220D01*
X0126371Y0213174D01*
X0126413Y0213130D01*
X0126457Y0213088D01*
X0126503Y0213050D01*
X0126552Y0213014D01*
X0126603Y0212981D01*
X0126655Y0212952D01*
X0126710Y0212925D01*
X0126765Y0212902D01*
X0126822Y0212882D01*
X0126881Y0212866D01*
X0126940Y0212853D01*
X0126999Y0212844D01*
X0127060Y0212839D01*
X0127120Y0212837D01*
X0134120Y0212837D02*
X0134180Y0212839D01*
X0134241Y0212844D01*
X0134300Y0212853D01*
X0134359Y0212866D01*
X0134418Y0212882D01*
X0134475Y0212902D01*
X0134530Y0212925D01*
X0134585Y0212952D01*
X0134637Y0212981D01*
X0134688Y0213014D01*
X0134737Y0213050D01*
X0134783Y0213088D01*
X0134827Y0213130D01*
X0134869Y0213174D01*
X0134907Y0213220D01*
X0134943Y0213269D01*
X0134976Y0213320D01*
X0135005Y0213372D01*
X0135032Y0213427D01*
X0135055Y0213482D01*
X0135075Y0213539D01*
X0135091Y0213598D01*
X0135104Y0213657D01*
X0135113Y0213716D01*
X0135118Y0213777D01*
X0135120Y0213837D01*
X0135120Y0215337D01*
X0134620Y0215837D01*
X0134620Y0234837D01*
X0135120Y0235337D01*
X0135120Y0236837D01*
X0135118Y0236897D01*
X0135113Y0236958D01*
X0135104Y0237017D01*
X0135091Y0237076D01*
X0135075Y0237135D01*
X0135055Y0237192D01*
X0135032Y0237247D01*
X0135005Y0237302D01*
X0134976Y0237354D01*
X0134943Y0237405D01*
X0134907Y0237454D01*
X0134869Y0237500D01*
X0134827Y0237544D01*
X0134783Y0237586D01*
X0134737Y0237624D01*
X0134688Y0237660D01*
X0134637Y0237693D01*
X0134585Y0237722D01*
X0134530Y0237749D01*
X0134475Y0237772D01*
X0134418Y0237792D01*
X0134359Y0237808D01*
X0134300Y0237821D01*
X0134241Y0237830D01*
X0134180Y0237835D01*
X0134120Y0237837D01*
X0136120Y0236837D02*
X0136120Y0235337D01*
X0136620Y0234837D01*
X0136620Y0215837D01*
X0136120Y0215337D01*
X0136120Y0213837D01*
X0136122Y0213777D01*
X0136127Y0213716D01*
X0136136Y0213657D01*
X0136149Y0213598D01*
X0136165Y0213539D01*
X0136185Y0213482D01*
X0136208Y0213427D01*
X0136235Y0213372D01*
X0136264Y0213320D01*
X0136297Y0213269D01*
X0136333Y0213220D01*
X0136371Y0213174D01*
X0136413Y0213130D01*
X0136457Y0213088D01*
X0136503Y0213050D01*
X0136552Y0213014D01*
X0136603Y0212981D01*
X0136655Y0212952D01*
X0136710Y0212925D01*
X0136765Y0212902D01*
X0136822Y0212882D01*
X0136881Y0212866D01*
X0136940Y0212853D01*
X0136999Y0212844D01*
X0137060Y0212839D01*
X0137120Y0212837D01*
X0144120Y0212837D02*
X0144180Y0212839D01*
X0144241Y0212844D01*
X0144300Y0212853D01*
X0144359Y0212866D01*
X0144418Y0212882D01*
X0144475Y0212902D01*
X0144530Y0212925D01*
X0144585Y0212952D01*
X0144637Y0212981D01*
X0144688Y0213014D01*
X0144737Y0213050D01*
X0144783Y0213088D01*
X0144827Y0213130D01*
X0144869Y0213174D01*
X0144907Y0213220D01*
X0144943Y0213269D01*
X0144976Y0213320D01*
X0145005Y0213372D01*
X0145032Y0213427D01*
X0145055Y0213482D01*
X0145075Y0213539D01*
X0145091Y0213598D01*
X0145104Y0213657D01*
X0145113Y0213716D01*
X0145118Y0213777D01*
X0145120Y0213837D01*
X0145120Y0215337D01*
X0144620Y0215837D01*
X0144620Y0234837D01*
X0145120Y0235337D01*
X0145120Y0236837D01*
X0145118Y0236897D01*
X0145113Y0236958D01*
X0145104Y0237017D01*
X0145091Y0237076D01*
X0145075Y0237135D01*
X0145055Y0237192D01*
X0145032Y0237247D01*
X0145005Y0237302D01*
X0144976Y0237354D01*
X0144943Y0237405D01*
X0144907Y0237454D01*
X0144869Y0237500D01*
X0144827Y0237544D01*
X0144783Y0237586D01*
X0144737Y0237624D01*
X0144688Y0237660D01*
X0144637Y0237693D01*
X0144585Y0237722D01*
X0144530Y0237749D01*
X0144475Y0237772D01*
X0144418Y0237792D01*
X0144359Y0237808D01*
X0144300Y0237821D01*
X0144241Y0237830D01*
X0144180Y0237835D01*
X0144120Y0237837D01*
X0146120Y0236837D02*
X0146120Y0235337D01*
X0146620Y0234837D01*
X0146620Y0215837D01*
X0146120Y0215337D01*
X0146120Y0213837D01*
X0146122Y0213777D01*
X0146127Y0213716D01*
X0146136Y0213657D01*
X0146149Y0213598D01*
X0146165Y0213539D01*
X0146185Y0213482D01*
X0146208Y0213427D01*
X0146235Y0213372D01*
X0146264Y0213320D01*
X0146297Y0213269D01*
X0146333Y0213220D01*
X0146371Y0213174D01*
X0146413Y0213130D01*
X0146457Y0213088D01*
X0146503Y0213050D01*
X0146552Y0213014D01*
X0146603Y0212981D01*
X0146655Y0212952D01*
X0146710Y0212925D01*
X0146765Y0212902D01*
X0146822Y0212882D01*
X0146881Y0212866D01*
X0146940Y0212853D01*
X0146999Y0212844D01*
X0147060Y0212839D01*
X0147120Y0212837D01*
X0154120Y0212837D02*
X0154180Y0212839D01*
X0154241Y0212844D01*
X0154300Y0212853D01*
X0154359Y0212866D01*
X0154418Y0212882D01*
X0154475Y0212902D01*
X0154530Y0212925D01*
X0154585Y0212952D01*
X0154637Y0212981D01*
X0154688Y0213014D01*
X0154737Y0213050D01*
X0154783Y0213088D01*
X0154827Y0213130D01*
X0154869Y0213174D01*
X0154907Y0213220D01*
X0154943Y0213269D01*
X0154976Y0213320D01*
X0155005Y0213372D01*
X0155032Y0213427D01*
X0155055Y0213482D01*
X0155075Y0213539D01*
X0155091Y0213598D01*
X0155104Y0213657D01*
X0155113Y0213716D01*
X0155118Y0213777D01*
X0155120Y0213837D01*
X0155120Y0215337D01*
X0154620Y0215837D01*
X0154620Y0234837D01*
X0155120Y0235337D01*
X0155120Y0236837D01*
X0155118Y0236897D01*
X0155113Y0236958D01*
X0155104Y0237017D01*
X0155091Y0237076D01*
X0155075Y0237135D01*
X0155055Y0237192D01*
X0155032Y0237247D01*
X0155005Y0237302D01*
X0154976Y0237354D01*
X0154943Y0237405D01*
X0154907Y0237454D01*
X0154869Y0237500D01*
X0154827Y0237544D01*
X0154783Y0237586D01*
X0154737Y0237624D01*
X0154688Y0237660D01*
X0154637Y0237693D01*
X0154585Y0237722D01*
X0154530Y0237749D01*
X0154475Y0237772D01*
X0154418Y0237792D01*
X0154359Y0237808D01*
X0154300Y0237821D01*
X0154241Y0237830D01*
X0154180Y0237835D01*
X0154120Y0237837D01*
X0156120Y0236837D02*
X0156120Y0235337D01*
X0156620Y0234837D01*
X0156620Y0215837D01*
X0156120Y0215337D01*
X0156120Y0213837D01*
X0156122Y0213777D01*
X0156127Y0213716D01*
X0156136Y0213657D01*
X0156149Y0213598D01*
X0156165Y0213539D01*
X0156185Y0213482D01*
X0156208Y0213427D01*
X0156235Y0213372D01*
X0156264Y0213320D01*
X0156297Y0213269D01*
X0156333Y0213220D01*
X0156371Y0213174D01*
X0156413Y0213130D01*
X0156457Y0213088D01*
X0156503Y0213050D01*
X0156552Y0213014D01*
X0156603Y0212981D01*
X0156655Y0212952D01*
X0156710Y0212925D01*
X0156765Y0212902D01*
X0156822Y0212882D01*
X0156881Y0212866D01*
X0156940Y0212853D01*
X0156999Y0212844D01*
X0157060Y0212839D01*
X0157120Y0212837D01*
X0164120Y0212837D02*
X0164180Y0212839D01*
X0164241Y0212844D01*
X0164300Y0212853D01*
X0164359Y0212866D01*
X0164418Y0212882D01*
X0164475Y0212902D01*
X0164530Y0212925D01*
X0164585Y0212952D01*
X0164637Y0212981D01*
X0164688Y0213014D01*
X0164737Y0213050D01*
X0164783Y0213088D01*
X0164827Y0213130D01*
X0164869Y0213174D01*
X0164907Y0213220D01*
X0164943Y0213269D01*
X0164976Y0213320D01*
X0165005Y0213372D01*
X0165032Y0213427D01*
X0165055Y0213482D01*
X0165075Y0213539D01*
X0165091Y0213598D01*
X0165104Y0213657D01*
X0165113Y0213716D01*
X0165118Y0213777D01*
X0165120Y0213837D01*
X0165120Y0215337D01*
X0164620Y0215837D01*
X0164620Y0234837D01*
X0165120Y0235337D01*
X0165120Y0236837D01*
X0165118Y0236897D01*
X0165113Y0236958D01*
X0165104Y0237017D01*
X0165091Y0237076D01*
X0165075Y0237135D01*
X0165055Y0237192D01*
X0165032Y0237247D01*
X0165005Y0237302D01*
X0164976Y0237354D01*
X0164943Y0237405D01*
X0164907Y0237454D01*
X0164869Y0237500D01*
X0164827Y0237544D01*
X0164783Y0237586D01*
X0164737Y0237624D01*
X0164688Y0237660D01*
X0164637Y0237693D01*
X0164585Y0237722D01*
X0164530Y0237749D01*
X0164475Y0237772D01*
X0164418Y0237792D01*
X0164359Y0237808D01*
X0164300Y0237821D01*
X0164241Y0237830D01*
X0164180Y0237835D01*
X0164120Y0237837D01*
X0166120Y0236837D02*
X0166120Y0235337D01*
X0166620Y0234837D01*
X0166620Y0215837D01*
X0166120Y0215337D01*
X0166120Y0213837D01*
X0166122Y0213777D01*
X0166127Y0213716D01*
X0166136Y0213657D01*
X0166149Y0213598D01*
X0166165Y0213539D01*
X0166185Y0213482D01*
X0166208Y0213427D01*
X0166235Y0213372D01*
X0166264Y0213320D01*
X0166297Y0213269D01*
X0166333Y0213220D01*
X0166371Y0213174D01*
X0166413Y0213130D01*
X0166457Y0213088D01*
X0166503Y0213050D01*
X0166552Y0213014D01*
X0166603Y0212981D01*
X0166655Y0212952D01*
X0166710Y0212925D01*
X0166765Y0212902D01*
X0166822Y0212882D01*
X0166881Y0212866D01*
X0166940Y0212853D01*
X0166999Y0212844D01*
X0167060Y0212839D01*
X0167120Y0212837D01*
X0174120Y0212837D02*
X0174180Y0212839D01*
X0174241Y0212844D01*
X0174300Y0212853D01*
X0174359Y0212866D01*
X0174418Y0212882D01*
X0174475Y0212902D01*
X0174530Y0212925D01*
X0174585Y0212952D01*
X0174637Y0212981D01*
X0174688Y0213014D01*
X0174737Y0213050D01*
X0174783Y0213088D01*
X0174827Y0213130D01*
X0174869Y0213174D01*
X0174907Y0213220D01*
X0174943Y0213269D01*
X0174976Y0213320D01*
X0175005Y0213372D01*
X0175032Y0213427D01*
X0175055Y0213482D01*
X0175075Y0213539D01*
X0175091Y0213598D01*
X0175104Y0213657D01*
X0175113Y0213716D01*
X0175118Y0213777D01*
X0175120Y0213837D01*
X0175120Y0215337D01*
X0174620Y0215837D01*
X0174620Y0234837D01*
X0175120Y0235337D01*
X0175120Y0236837D01*
X0175118Y0236897D01*
X0175113Y0236958D01*
X0175104Y0237017D01*
X0175091Y0237076D01*
X0175075Y0237135D01*
X0175055Y0237192D01*
X0175032Y0237247D01*
X0175005Y0237302D01*
X0174976Y0237354D01*
X0174943Y0237405D01*
X0174907Y0237454D01*
X0174869Y0237500D01*
X0174827Y0237544D01*
X0174783Y0237586D01*
X0174737Y0237624D01*
X0174688Y0237660D01*
X0174637Y0237693D01*
X0174585Y0237722D01*
X0174530Y0237749D01*
X0174475Y0237772D01*
X0174418Y0237792D01*
X0174359Y0237808D01*
X0174300Y0237821D01*
X0174241Y0237830D01*
X0174180Y0237835D01*
X0174120Y0237837D01*
X0167120Y0237837D02*
X0167060Y0237835D01*
X0166999Y0237830D01*
X0166940Y0237821D01*
X0166881Y0237808D01*
X0166822Y0237792D01*
X0166765Y0237772D01*
X0166710Y0237749D01*
X0166655Y0237722D01*
X0166603Y0237693D01*
X0166552Y0237660D01*
X0166503Y0237624D01*
X0166457Y0237586D01*
X0166413Y0237544D01*
X0166371Y0237500D01*
X0166333Y0237454D01*
X0166297Y0237405D01*
X0166264Y0237354D01*
X0166235Y0237302D01*
X0166208Y0237247D01*
X0166185Y0237192D01*
X0166165Y0237135D01*
X0166149Y0237076D01*
X0166136Y0237017D01*
X0166127Y0236958D01*
X0166122Y0236897D01*
X0166120Y0236837D01*
X0157120Y0237837D02*
X0157060Y0237835D01*
X0156999Y0237830D01*
X0156940Y0237821D01*
X0156881Y0237808D01*
X0156822Y0237792D01*
X0156765Y0237772D01*
X0156710Y0237749D01*
X0156655Y0237722D01*
X0156603Y0237693D01*
X0156552Y0237660D01*
X0156503Y0237624D01*
X0156457Y0237586D01*
X0156413Y0237544D01*
X0156371Y0237500D01*
X0156333Y0237454D01*
X0156297Y0237405D01*
X0156264Y0237354D01*
X0156235Y0237302D01*
X0156208Y0237247D01*
X0156185Y0237192D01*
X0156165Y0237135D01*
X0156149Y0237076D01*
X0156136Y0237017D01*
X0156127Y0236958D01*
X0156122Y0236897D01*
X0156120Y0236837D01*
X0147120Y0237837D02*
X0147060Y0237835D01*
X0146999Y0237830D01*
X0146940Y0237821D01*
X0146881Y0237808D01*
X0146822Y0237792D01*
X0146765Y0237772D01*
X0146710Y0237749D01*
X0146655Y0237722D01*
X0146603Y0237693D01*
X0146552Y0237660D01*
X0146503Y0237624D01*
X0146457Y0237586D01*
X0146413Y0237544D01*
X0146371Y0237500D01*
X0146333Y0237454D01*
X0146297Y0237405D01*
X0146264Y0237354D01*
X0146235Y0237302D01*
X0146208Y0237247D01*
X0146185Y0237192D01*
X0146165Y0237135D01*
X0146149Y0237076D01*
X0146136Y0237017D01*
X0146127Y0236958D01*
X0146122Y0236897D01*
X0146120Y0236837D01*
X0137120Y0237837D02*
X0137060Y0237835D01*
X0136999Y0237830D01*
X0136940Y0237821D01*
X0136881Y0237808D01*
X0136822Y0237792D01*
X0136765Y0237772D01*
X0136710Y0237749D01*
X0136655Y0237722D01*
X0136603Y0237693D01*
X0136552Y0237660D01*
X0136503Y0237624D01*
X0136457Y0237586D01*
X0136413Y0237544D01*
X0136371Y0237500D01*
X0136333Y0237454D01*
X0136297Y0237405D01*
X0136264Y0237354D01*
X0136235Y0237302D01*
X0136208Y0237247D01*
X0136185Y0237192D01*
X0136165Y0237135D01*
X0136149Y0237076D01*
X0136136Y0237017D01*
X0136127Y0236958D01*
X0136122Y0236897D01*
X0136120Y0236837D01*
X0186120Y0240337D02*
X0186120Y0241837D01*
X0186122Y0241897D01*
X0186127Y0241958D01*
X0186136Y0242017D01*
X0186149Y0242076D01*
X0186165Y0242135D01*
X0186185Y0242192D01*
X0186208Y0242247D01*
X0186235Y0242302D01*
X0186264Y0242354D01*
X0186297Y0242405D01*
X0186333Y0242454D01*
X0186371Y0242500D01*
X0186413Y0242544D01*
X0186457Y0242586D01*
X0186503Y0242624D01*
X0186552Y0242660D01*
X0186603Y0242693D01*
X0186655Y0242722D01*
X0186710Y0242749D01*
X0186765Y0242772D01*
X0186822Y0242792D01*
X0186881Y0242808D01*
X0186940Y0242821D01*
X0186999Y0242830D01*
X0187060Y0242835D01*
X0187120Y0242837D01*
X0186120Y0240337D02*
X0186620Y0239837D01*
X0186620Y0220837D01*
X0186120Y0220337D01*
X0186120Y0218837D01*
X0186122Y0218777D01*
X0186127Y0218716D01*
X0186136Y0218657D01*
X0186149Y0218598D01*
X0186165Y0218539D01*
X0186185Y0218482D01*
X0186208Y0218427D01*
X0186235Y0218372D01*
X0186264Y0218320D01*
X0186297Y0218269D01*
X0186333Y0218220D01*
X0186371Y0218174D01*
X0186413Y0218130D01*
X0186457Y0218088D01*
X0186503Y0218050D01*
X0186552Y0218014D01*
X0186603Y0217981D01*
X0186655Y0217952D01*
X0186710Y0217925D01*
X0186765Y0217902D01*
X0186822Y0217882D01*
X0186881Y0217866D01*
X0186940Y0217853D01*
X0186999Y0217844D01*
X0187060Y0217839D01*
X0187120Y0217837D01*
X0194120Y0217837D02*
X0194180Y0217839D01*
X0194241Y0217844D01*
X0194300Y0217853D01*
X0194359Y0217866D01*
X0194418Y0217882D01*
X0194475Y0217902D01*
X0194530Y0217925D01*
X0194585Y0217952D01*
X0194637Y0217981D01*
X0194688Y0218014D01*
X0194737Y0218050D01*
X0194783Y0218088D01*
X0194827Y0218130D01*
X0194869Y0218174D01*
X0194907Y0218220D01*
X0194943Y0218269D01*
X0194976Y0218320D01*
X0195005Y0218372D01*
X0195032Y0218427D01*
X0195055Y0218482D01*
X0195075Y0218539D01*
X0195091Y0218598D01*
X0195104Y0218657D01*
X0195113Y0218716D01*
X0195118Y0218777D01*
X0195120Y0218837D01*
X0195120Y0220337D01*
X0194620Y0220837D01*
X0194620Y0239837D01*
X0195120Y0240337D01*
X0195120Y0241837D01*
X0195118Y0241897D01*
X0195113Y0241958D01*
X0195104Y0242017D01*
X0195091Y0242076D01*
X0195075Y0242135D01*
X0195055Y0242192D01*
X0195032Y0242247D01*
X0195005Y0242302D01*
X0194976Y0242354D01*
X0194943Y0242405D01*
X0194907Y0242454D01*
X0194869Y0242500D01*
X0194827Y0242544D01*
X0194783Y0242586D01*
X0194737Y0242624D01*
X0194688Y0242660D01*
X0194637Y0242693D01*
X0194585Y0242722D01*
X0194530Y0242749D01*
X0194475Y0242772D01*
X0194418Y0242792D01*
X0194359Y0242808D01*
X0194300Y0242821D01*
X0194241Y0242830D01*
X0194180Y0242835D01*
X0194120Y0242837D01*
X0206620Y0247837D02*
X0207620Y0247837D01*
X0206620Y0247837D02*
X0206620Y0222837D01*
X0207620Y0222837D01*
X0213620Y0222837D02*
X0223620Y0222837D01*
X0223620Y0232337D01*
X0223620Y0238337D02*
X0223620Y0247837D01*
X0213620Y0247837D01*
X0216620Y0247337D02*
X0216737Y0247352D01*
X0216854Y0247363D01*
X0216972Y0247370D01*
X0217090Y0247373D01*
X0217208Y0247372D01*
X0217326Y0247367D01*
X0217443Y0247358D01*
X0217561Y0247345D01*
X0217677Y0247329D01*
X0217793Y0247308D01*
X0217909Y0247284D01*
X0218023Y0247256D01*
X0218137Y0247224D01*
X0218249Y0247188D01*
X0218360Y0247148D01*
X0218470Y0247105D01*
X0218578Y0247058D01*
X0218685Y0247008D01*
X0218790Y0246954D01*
X0218893Y0246897D01*
X0218994Y0246836D01*
X0219093Y0246772D01*
X0219189Y0246704D01*
X0219284Y0246634D01*
X0219376Y0246560D01*
X0219465Y0246483D01*
X0219552Y0246403D01*
X0219637Y0246321D01*
X0219718Y0246236D01*
X0219797Y0246148D01*
X0219872Y0246057D01*
X0219945Y0245964D01*
X0220014Y0245869D01*
X0220080Y0245771D01*
X0220143Y0245671D01*
X0220203Y0245569D01*
X0220259Y0245466D01*
X0220311Y0245360D01*
X0220360Y0245253D01*
X0220406Y0245144D01*
X0220447Y0245034D01*
X0220485Y0244922D01*
X0220520Y0244809D01*
X0220550Y0244695D01*
X0220577Y0244581D01*
X0220600Y0244465D01*
X0220619Y0244349D01*
X0220634Y0244232D01*
X0220645Y0244114D01*
X0220652Y0243996D01*
X0220656Y0243879D01*
X0220655Y0243761D01*
X0220651Y0243643D01*
X0220642Y0243525D01*
X0220630Y0243408D01*
X0220614Y0243291D01*
X0220593Y0243175D01*
X0220569Y0243059D01*
X0220542Y0242945D01*
X0220510Y0242831D01*
X0220475Y0242719D01*
X0220435Y0242608D01*
X0220393Y0242498D01*
X0220346Y0242389D01*
X0220296Y0242283D01*
X0220242Y0242178D01*
X0220185Y0242074D01*
X0220125Y0241973D01*
X0220061Y0241874D01*
X0219994Y0241777D01*
X0219924Y0241682D01*
X0219850Y0241590D01*
X0219774Y0241500D01*
X0219694Y0241413D01*
X0219612Y0241328D01*
X0219527Y0241247D01*
X0219439Y0241168D01*
X0219349Y0241092D01*
X0219256Y0241019D01*
X0219161Y0240950D01*
X0219064Y0240883D01*
X0218964Y0240820D01*
X0218863Y0240760D01*
X0218759Y0240704D01*
X0218654Y0240651D01*
X0218547Y0240602D01*
X0218438Y0240556D01*
X0218328Y0240514D01*
X0218216Y0240475D01*
X0218103Y0240441D01*
X0217990Y0240410D01*
X0217875Y0240383D01*
X0217759Y0240359D01*
X0217643Y0240340D01*
X0217526Y0240324D01*
X0217409Y0240313D01*
X0217291Y0240305D01*
X0217173Y0240301D01*
X0217055Y0240302D01*
X0216937Y0240306D01*
X0216820Y0240314D01*
X0216702Y0240326D01*
X0216586Y0240342D01*
X0216469Y0240361D01*
X0216354Y0240385D01*
X0216239Y0240412D01*
X0216125Y0240444D01*
X0216013Y0240479D01*
X0215901Y0240518D01*
X0215791Y0240560D01*
X0215683Y0240606D01*
X0215576Y0240656D01*
X0215471Y0240709D01*
X0215367Y0240766D01*
X0215266Y0240826D01*
X0215167Y0240890D01*
X0215069Y0240956D01*
X0214974Y0241026D01*
X0214882Y0241099D01*
X0214792Y0241176D01*
X0214704Y0241255D01*
X0214620Y0241337D01*
X0238620Y0241337D02*
X0238605Y0241454D01*
X0238594Y0241571D01*
X0238587Y0241689D01*
X0238584Y0241807D01*
X0238585Y0241925D01*
X0238590Y0242043D01*
X0238599Y0242160D01*
X0238612Y0242278D01*
X0238628Y0242394D01*
X0238649Y0242510D01*
X0238673Y0242626D01*
X0238701Y0242740D01*
X0238733Y0242854D01*
X0238769Y0242966D01*
X0238809Y0243077D01*
X0238852Y0243187D01*
X0238899Y0243295D01*
X0238949Y0243402D01*
X0239003Y0243507D01*
X0239060Y0243610D01*
X0239121Y0243711D01*
X0239185Y0243810D01*
X0239253Y0243906D01*
X0239323Y0244001D01*
X0239397Y0244093D01*
X0239474Y0244182D01*
X0239554Y0244269D01*
X0239636Y0244354D01*
X0239721Y0244435D01*
X0239809Y0244514D01*
X0239900Y0244589D01*
X0239993Y0244662D01*
X0240088Y0244731D01*
X0240186Y0244797D01*
X0240286Y0244860D01*
X0240388Y0244920D01*
X0240491Y0244976D01*
X0240597Y0245028D01*
X0240704Y0245077D01*
X0240813Y0245123D01*
X0240923Y0245164D01*
X0241035Y0245202D01*
X0241148Y0245237D01*
X0241262Y0245267D01*
X0241376Y0245294D01*
X0241492Y0245317D01*
X0241608Y0245336D01*
X0241725Y0245351D01*
X0241843Y0245362D01*
X0241961Y0245369D01*
X0242078Y0245373D01*
X0242196Y0245372D01*
X0242314Y0245368D01*
X0242432Y0245359D01*
X0242549Y0245347D01*
X0242666Y0245331D01*
X0242782Y0245310D01*
X0242898Y0245286D01*
X0243012Y0245259D01*
X0243126Y0245227D01*
X0243238Y0245192D01*
X0243349Y0245152D01*
X0243459Y0245110D01*
X0243568Y0245063D01*
X0243674Y0245013D01*
X0243779Y0244959D01*
X0243883Y0244902D01*
X0243984Y0244842D01*
X0244083Y0244778D01*
X0244180Y0244711D01*
X0244275Y0244641D01*
X0244367Y0244567D01*
X0244457Y0244491D01*
X0244544Y0244411D01*
X0244629Y0244329D01*
X0244710Y0244244D01*
X0244789Y0244156D01*
X0244865Y0244066D01*
X0244938Y0243973D01*
X0245007Y0243878D01*
X0245074Y0243781D01*
X0245137Y0243681D01*
X0245197Y0243580D01*
X0245253Y0243476D01*
X0245306Y0243371D01*
X0245355Y0243264D01*
X0245401Y0243155D01*
X0245443Y0243045D01*
X0245482Y0242933D01*
X0245516Y0242820D01*
X0245547Y0242707D01*
X0245574Y0242592D01*
X0245598Y0242476D01*
X0245617Y0242360D01*
X0245633Y0242243D01*
X0245644Y0242126D01*
X0245652Y0242008D01*
X0245656Y0241890D01*
X0245655Y0241772D01*
X0245651Y0241654D01*
X0245643Y0241537D01*
X0245631Y0241419D01*
X0245615Y0241303D01*
X0245596Y0241186D01*
X0245572Y0241071D01*
X0245545Y0240956D01*
X0245513Y0240842D01*
X0245478Y0240730D01*
X0245439Y0240618D01*
X0245397Y0240508D01*
X0245351Y0240400D01*
X0245301Y0240293D01*
X0245248Y0240188D01*
X0245191Y0240084D01*
X0245131Y0239983D01*
X0245067Y0239884D01*
X0245001Y0239786D01*
X0244931Y0239691D01*
X0244858Y0239599D01*
X0244781Y0239509D01*
X0244702Y0239421D01*
X0244620Y0239337D01*
X0040620Y0237837D02*
X0040620Y0232837D01*
X0038120Y0230337D01*
X0023120Y0230337D01*
X0020620Y0232837D01*
X0020620Y0237837D01*
X0023120Y0240337D01*
X0038120Y0240337D01*
X0040620Y0237837D01*
X0038120Y0230337D02*
X0040620Y0227837D01*
X0040620Y0222837D01*
X0038120Y0220337D01*
X0023120Y0220337D01*
X0020620Y0222837D01*
X0020620Y0227837D01*
X0023120Y0230337D01*
X0023120Y0220337D02*
X0020620Y0217837D01*
X0020620Y0212837D01*
X0023120Y0210337D01*
X0038120Y0210337D01*
X0040620Y0212837D01*
X0040620Y0217837D01*
X0038120Y0220337D01*
X0038120Y0210337D02*
X0040620Y0207837D01*
X0040620Y0202837D01*
X0038120Y0200337D01*
X0023120Y0200337D01*
X0020620Y0202837D01*
X0020620Y0207837D01*
X0023120Y0210337D01*
X0023120Y0200337D02*
X0020620Y0197837D01*
X0020620Y0192837D01*
X0023120Y0190337D01*
X0038120Y0190337D01*
X0040620Y0192837D01*
X0038120Y0190337D02*
X0040620Y0187837D01*
X0040620Y0182837D01*
X0038120Y0180337D01*
X0023120Y0180337D01*
X0020620Y0182837D01*
X0020620Y0187837D01*
X0023120Y0190337D01*
X0023120Y0180337D02*
X0020620Y0177837D01*
X0020620Y0172837D01*
X0023120Y0170337D01*
X0038120Y0170337D01*
X0040620Y0172837D01*
X0040620Y0177837D01*
X0038120Y0180337D01*
X0038120Y0170337D02*
X0040620Y0167837D01*
X0040620Y0162837D01*
X0038120Y0160337D01*
X0023120Y0160337D02*
X0020620Y0162837D01*
X0020620Y0167837D01*
X0023120Y0170337D01*
X0040620Y0197837D02*
X0038120Y0200337D01*
D12*
X0043120Y0192337D02*
X0044120Y0192337D01*
X0044120Y0183337D01*
X0043120Y0183337D01*
X0043120Y0177337D01*
X0043120Y0150337D01*
X0018120Y0150337D01*
X0018120Y0250337D01*
X0043120Y0250337D01*
X0043120Y0233337D01*
X0043120Y0227337D01*
X0043120Y0208337D01*
X0044120Y0208337D01*
X0048120Y0208337D01*
X0048120Y0255337D01*
X0013120Y0255337D01*
X0013120Y0145337D01*
X0048120Y0145337D01*
X0048120Y0192337D01*
X0044120Y0192337D01*
X0043120Y0192337D02*
X0043120Y0183337D01*
X0043120Y0177337D02*
X0044120Y0177337D01*
X0044120Y0149337D01*
X0054714Y0150494D02*
X0054716Y0150647D01*
X0054722Y0150801D01*
X0054732Y0150954D01*
X0054746Y0151106D01*
X0054764Y0151259D01*
X0054786Y0151410D01*
X0054811Y0151561D01*
X0054841Y0151712D01*
X0054875Y0151862D01*
X0054912Y0152010D01*
X0054953Y0152158D01*
X0054998Y0152304D01*
X0055047Y0152450D01*
X0055100Y0152594D01*
X0055156Y0152736D01*
X0055216Y0152877D01*
X0055280Y0153017D01*
X0055347Y0153155D01*
X0055418Y0153291D01*
X0055493Y0153425D01*
X0055570Y0153557D01*
X0055652Y0153687D01*
X0055736Y0153815D01*
X0055824Y0153941D01*
X0055915Y0154064D01*
X0056009Y0154185D01*
X0056107Y0154303D01*
X0056207Y0154419D01*
X0056311Y0154532D01*
X0056417Y0154643D01*
X0056526Y0154751D01*
X0056638Y0154856D01*
X0056752Y0154957D01*
X0056870Y0155056D01*
X0056989Y0155152D01*
X0057111Y0155245D01*
X0057236Y0155334D01*
X0057363Y0155421D01*
X0057492Y0155503D01*
X0057623Y0155583D01*
X0057756Y0155659D01*
X0057891Y0155732D01*
X0058028Y0155801D01*
X0058167Y0155866D01*
X0058307Y0155928D01*
X0058449Y0155986D01*
X0058592Y0156041D01*
X0058737Y0156092D01*
X0058883Y0156139D01*
X0059030Y0156182D01*
X0059178Y0156221D01*
X0059327Y0156257D01*
X0059477Y0156288D01*
X0059628Y0156316D01*
X0059779Y0156340D01*
X0059932Y0156360D01*
X0060084Y0156376D01*
X0060237Y0156388D01*
X0060390Y0156396D01*
X0060543Y0156400D01*
X0060697Y0156400D01*
X0060850Y0156396D01*
X0061003Y0156388D01*
X0061156Y0156376D01*
X0061308Y0156360D01*
X0061461Y0156340D01*
X0061612Y0156316D01*
X0061763Y0156288D01*
X0061913Y0156257D01*
X0062062Y0156221D01*
X0062210Y0156182D01*
X0062357Y0156139D01*
X0062503Y0156092D01*
X0062648Y0156041D01*
X0062791Y0155986D01*
X0062933Y0155928D01*
X0063073Y0155866D01*
X0063212Y0155801D01*
X0063349Y0155732D01*
X0063484Y0155659D01*
X0063617Y0155583D01*
X0063748Y0155503D01*
X0063877Y0155421D01*
X0064004Y0155334D01*
X0064129Y0155245D01*
X0064251Y0155152D01*
X0064370Y0155056D01*
X0064488Y0154957D01*
X0064602Y0154856D01*
X0064714Y0154751D01*
X0064823Y0154643D01*
X0064929Y0154532D01*
X0065033Y0154419D01*
X0065133Y0154303D01*
X0065231Y0154185D01*
X0065325Y0154064D01*
X0065416Y0153941D01*
X0065504Y0153815D01*
X0065588Y0153687D01*
X0065670Y0153557D01*
X0065747Y0153425D01*
X0065822Y0153291D01*
X0065893Y0153155D01*
X0065960Y0153017D01*
X0066024Y0152877D01*
X0066084Y0152736D01*
X0066140Y0152594D01*
X0066193Y0152450D01*
X0066242Y0152304D01*
X0066287Y0152158D01*
X0066328Y0152010D01*
X0066365Y0151862D01*
X0066399Y0151712D01*
X0066429Y0151561D01*
X0066454Y0151410D01*
X0066476Y0151259D01*
X0066494Y0151106D01*
X0066508Y0150954D01*
X0066518Y0150801D01*
X0066524Y0150647D01*
X0066526Y0150494D01*
X0066524Y0150341D01*
X0066518Y0150187D01*
X0066508Y0150034D01*
X0066494Y0149882D01*
X0066476Y0149729D01*
X0066454Y0149578D01*
X0066429Y0149427D01*
X0066399Y0149276D01*
X0066365Y0149126D01*
X0066328Y0148978D01*
X0066287Y0148830D01*
X0066242Y0148684D01*
X0066193Y0148538D01*
X0066140Y0148394D01*
X0066084Y0148252D01*
X0066024Y0148111D01*
X0065960Y0147971D01*
X0065893Y0147833D01*
X0065822Y0147697D01*
X0065747Y0147563D01*
X0065670Y0147431D01*
X0065588Y0147301D01*
X0065504Y0147173D01*
X0065416Y0147047D01*
X0065325Y0146924D01*
X0065231Y0146803D01*
X0065133Y0146685D01*
X0065033Y0146569D01*
X0064929Y0146456D01*
X0064823Y0146345D01*
X0064714Y0146237D01*
X0064602Y0146132D01*
X0064488Y0146031D01*
X0064370Y0145932D01*
X0064251Y0145836D01*
X0064129Y0145743D01*
X0064004Y0145654D01*
X0063877Y0145567D01*
X0063748Y0145485D01*
X0063617Y0145405D01*
X0063484Y0145329D01*
X0063349Y0145256D01*
X0063212Y0145187D01*
X0063073Y0145122D01*
X0062933Y0145060D01*
X0062791Y0145002D01*
X0062648Y0144947D01*
X0062503Y0144896D01*
X0062357Y0144849D01*
X0062210Y0144806D01*
X0062062Y0144767D01*
X0061913Y0144731D01*
X0061763Y0144700D01*
X0061612Y0144672D01*
X0061461Y0144648D01*
X0061308Y0144628D01*
X0061156Y0144612D01*
X0061003Y0144600D01*
X0060850Y0144592D01*
X0060697Y0144588D01*
X0060543Y0144588D01*
X0060390Y0144592D01*
X0060237Y0144600D01*
X0060084Y0144612D01*
X0059932Y0144628D01*
X0059779Y0144648D01*
X0059628Y0144672D01*
X0059477Y0144700D01*
X0059327Y0144731D01*
X0059178Y0144767D01*
X0059030Y0144806D01*
X0058883Y0144849D01*
X0058737Y0144896D01*
X0058592Y0144947D01*
X0058449Y0145002D01*
X0058307Y0145060D01*
X0058167Y0145122D01*
X0058028Y0145187D01*
X0057891Y0145256D01*
X0057756Y0145329D01*
X0057623Y0145405D01*
X0057492Y0145485D01*
X0057363Y0145567D01*
X0057236Y0145654D01*
X0057111Y0145743D01*
X0056989Y0145836D01*
X0056870Y0145932D01*
X0056752Y0146031D01*
X0056638Y0146132D01*
X0056526Y0146237D01*
X0056417Y0146345D01*
X0056311Y0146456D01*
X0056207Y0146569D01*
X0056107Y0146685D01*
X0056009Y0146803D01*
X0055915Y0146924D01*
X0055824Y0147047D01*
X0055736Y0147173D01*
X0055652Y0147301D01*
X0055570Y0147431D01*
X0055493Y0147563D01*
X0055418Y0147697D01*
X0055347Y0147833D01*
X0055280Y0147971D01*
X0055216Y0148111D01*
X0055156Y0148252D01*
X0055100Y0148394D01*
X0055047Y0148538D01*
X0054998Y0148684D01*
X0054953Y0148830D01*
X0054912Y0148978D01*
X0054875Y0149126D01*
X0054841Y0149276D01*
X0054811Y0149427D01*
X0054786Y0149578D01*
X0054764Y0149729D01*
X0054746Y0149882D01*
X0054732Y0150034D01*
X0054722Y0150187D01*
X0054716Y0150341D01*
X0054714Y0150494D01*
X0052746Y0150494D02*
X0052748Y0150687D01*
X0052755Y0150880D01*
X0052767Y0151073D01*
X0052784Y0151266D01*
X0052805Y0151458D01*
X0052831Y0151649D01*
X0052862Y0151840D01*
X0052897Y0152030D01*
X0052937Y0152219D01*
X0052982Y0152407D01*
X0053031Y0152594D01*
X0053085Y0152780D01*
X0053143Y0152964D01*
X0053206Y0153147D01*
X0053274Y0153328D01*
X0053345Y0153507D01*
X0053422Y0153685D01*
X0053502Y0153861D01*
X0053587Y0154034D01*
X0053676Y0154206D01*
X0053769Y0154375D01*
X0053866Y0154542D01*
X0053968Y0154707D01*
X0054073Y0154869D01*
X0054182Y0155028D01*
X0054296Y0155185D01*
X0054413Y0155338D01*
X0054533Y0155489D01*
X0054658Y0155637D01*
X0054786Y0155782D01*
X0054917Y0155923D01*
X0055052Y0156062D01*
X0055191Y0156197D01*
X0055332Y0156328D01*
X0055477Y0156456D01*
X0055625Y0156581D01*
X0055776Y0156701D01*
X0055929Y0156818D01*
X0056086Y0156932D01*
X0056245Y0157041D01*
X0056407Y0157146D01*
X0056572Y0157248D01*
X0056739Y0157345D01*
X0056908Y0157438D01*
X0057080Y0157527D01*
X0057253Y0157612D01*
X0057429Y0157692D01*
X0057607Y0157769D01*
X0057786Y0157840D01*
X0057967Y0157908D01*
X0058150Y0157971D01*
X0058334Y0158029D01*
X0058520Y0158083D01*
X0058707Y0158132D01*
X0058895Y0158177D01*
X0059084Y0158217D01*
X0059274Y0158252D01*
X0059465Y0158283D01*
X0059656Y0158309D01*
X0059848Y0158330D01*
X0060041Y0158347D01*
X0060234Y0158359D01*
X0060427Y0158366D01*
X0060620Y0158368D01*
X0060813Y0158366D01*
X0061006Y0158359D01*
X0061199Y0158347D01*
X0061392Y0158330D01*
X0061584Y0158309D01*
X0061775Y0158283D01*
X0061966Y0158252D01*
X0062156Y0158217D01*
X0062345Y0158177D01*
X0062533Y0158132D01*
X0062720Y0158083D01*
X0062906Y0158029D01*
X0063090Y0157971D01*
X0063273Y0157908D01*
X0063454Y0157840D01*
X0063633Y0157769D01*
X0063811Y0157692D01*
X0063987Y0157612D01*
X0064160Y0157527D01*
X0064332Y0157438D01*
X0064501Y0157345D01*
X0064668Y0157248D01*
X0064833Y0157146D01*
X0064995Y0157041D01*
X0065154Y0156932D01*
X0065311Y0156818D01*
X0065464Y0156701D01*
X0065615Y0156581D01*
X0065763Y0156456D01*
X0065908Y0156328D01*
X0066049Y0156197D01*
X0066188Y0156062D01*
X0066323Y0155923D01*
X0066454Y0155782D01*
X0066582Y0155637D01*
X0066707Y0155489D01*
X0066827Y0155338D01*
X0066944Y0155185D01*
X0067058Y0155028D01*
X0067167Y0154869D01*
X0067272Y0154707D01*
X0067374Y0154542D01*
X0067471Y0154375D01*
X0067564Y0154206D01*
X0067653Y0154034D01*
X0067738Y0153861D01*
X0067818Y0153685D01*
X0067895Y0153507D01*
X0067966Y0153328D01*
X0068034Y0153147D01*
X0068097Y0152964D01*
X0068155Y0152780D01*
X0068209Y0152594D01*
X0068258Y0152407D01*
X0068303Y0152219D01*
X0068343Y0152030D01*
X0068378Y0151840D01*
X0068409Y0151649D01*
X0068435Y0151458D01*
X0068456Y0151266D01*
X0068473Y0151073D01*
X0068485Y0150880D01*
X0068492Y0150687D01*
X0068494Y0150494D01*
X0068492Y0150301D01*
X0068485Y0150108D01*
X0068473Y0149915D01*
X0068456Y0149722D01*
X0068435Y0149530D01*
X0068409Y0149339D01*
X0068378Y0149148D01*
X0068343Y0148958D01*
X0068303Y0148769D01*
X0068258Y0148581D01*
X0068209Y0148394D01*
X0068155Y0148208D01*
X0068097Y0148024D01*
X0068034Y0147841D01*
X0067966Y0147660D01*
X0067895Y0147481D01*
X0067818Y0147303D01*
X0067738Y0147127D01*
X0067653Y0146954D01*
X0067564Y0146782D01*
X0067471Y0146613D01*
X0067374Y0146446D01*
X0067272Y0146281D01*
X0067167Y0146119D01*
X0067058Y0145960D01*
X0066944Y0145803D01*
X0066827Y0145650D01*
X0066707Y0145499D01*
X0066582Y0145351D01*
X0066454Y0145206D01*
X0066323Y0145065D01*
X0066188Y0144926D01*
X0066049Y0144791D01*
X0065908Y0144660D01*
X0065763Y0144532D01*
X0065615Y0144407D01*
X0065464Y0144287D01*
X0065311Y0144170D01*
X0065154Y0144056D01*
X0064995Y0143947D01*
X0064833Y0143842D01*
X0064668Y0143740D01*
X0064501Y0143643D01*
X0064332Y0143550D01*
X0064160Y0143461D01*
X0063987Y0143376D01*
X0063811Y0143296D01*
X0063633Y0143219D01*
X0063454Y0143148D01*
X0063273Y0143080D01*
X0063090Y0143017D01*
X0062906Y0142959D01*
X0062720Y0142905D01*
X0062533Y0142856D01*
X0062345Y0142811D01*
X0062156Y0142771D01*
X0061966Y0142736D01*
X0061775Y0142705D01*
X0061584Y0142679D01*
X0061392Y0142658D01*
X0061199Y0142641D01*
X0061006Y0142629D01*
X0060813Y0142622D01*
X0060620Y0142620D01*
X0060427Y0142622D01*
X0060234Y0142629D01*
X0060041Y0142641D01*
X0059848Y0142658D01*
X0059656Y0142679D01*
X0059465Y0142705D01*
X0059274Y0142736D01*
X0059084Y0142771D01*
X0058895Y0142811D01*
X0058707Y0142856D01*
X0058520Y0142905D01*
X0058334Y0142959D01*
X0058150Y0143017D01*
X0057967Y0143080D01*
X0057786Y0143148D01*
X0057607Y0143219D01*
X0057429Y0143296D01*
X0057253Y0143376D01*
X0057080Y0143461D01*
X0056908Y0143550D01*
X0056739Y0143643D01*
X0056572Y0143740D01*
X0056407Y0143842D01*
X0056245Y0143947D01*
X0056086Y0144056D01*
X0055929Y0144170D01*
X0055776Y0144287D01*
X0055625Y0144407D01*
X0055477Y0144532D01*
X0055332Y0144660D01*
X0055191Y0144791D01*
X0055052Y0144926D01*
X0054917Y0145065D01*
X0054786Y0145206D01*
X0054658Y0145351D01*
X0054533Y0145499D01*
X0054413Y0145650D01*
X0054296Y0145803D01*
X0054182Y0145960D01*
X0054073Y0146119D01*
X0053968Y0146281D01*
X0053866Y0146446D01*
X0053769Y0146613D01*
X0053676Y0146782D01*
X0053587Y0146954D01*
X0053502Y0147127D01*
X0053422Y0147303D01*
X0053345Y0147481D01*
X0053274Y0147660D01*
X0053206Y0147841D01*
X0053143Y0148024D01*
X0053085Y0148208D01*
X0053031Y0148394D01*
X0052982Y0148581D01*
X0052937Y0148769D01*
X0052897Y0148958D01*
X0052862Y0149148D01*
X0052831Y0149339D01*
X0052805Y0149530D01*
X0052784Y0149722D01*
X0052767Y0149915D01*
X0052755Y0150108D01*
X0052748Y0150301D01*
X0052746Y0150494D01*
X0078370Y0141090D02*
X0078370Y0138087D01*
X0078370Y0140339D02*
X0081373Y0140339D01*
X0081373Y0141090D02*
X0081373Y0138087D01*
X0082974Y0138087D02*
X0085226Y0138087D01*
X0085977Y0138838D01*
X0085977Y0141840D01*
X0085226Y0142591D01*
X0082974Y0142591D01*
X0082974Y0138087D01*
X0081373Y0141090D02*
X0079871Y0142591D01*
X0078370Y0141090D01*
X0087578Y0138838D02*
X0088329Y0138087D01*
X0089079Y0138087D01*
X0089830Y0138838D01*
X0089830Y0142591D01*
X0090580Y0142591D02*
X0089079Y0142591D01*
X0092182Y0141090D02*
X0093683Y0142591D01*
X0093683Y0138087D01*
X0092182Y0138087D02*
X0095184Y0138087D01*
X0096370Y0152275D02*
X0096370Y0155278D01*
X0096370Y0153776D02*
X0091866Y0153776D01*
X0093368Y0152275D01*
X0092617Y0156879D02*
X0091866Y0157630D01*
X0091866Y0159131D01*
X0092617Y0159882D01*
X0095619Y0156879D01*
X0096370Y0157630D01*
X0096370Y0159131D01*
X0095619Y0159882D01*
X0092617Y0159882D01*
X0093368Y0161483D02*
X0095619Y0161483D01*
X0096370Y0162234D01*
X0096370Y0164486D01*
X0093368Y0164486D01*
X0092617Y0156879D02*
X0095619Y0156879D01*
X0095870Y0174587D02*
X0095870Y0177590D01*
X0095870Y0176088D02*
X0091366Y0176088D01*
X0092868Y0174587D01*
X0092117Y0179191D02*
X0091366Y0179942D01*
X0091366Y0181443D01*
X0092117Y0182193D01*
X0095119Y0179191D01*
X0095870Y0179942D01*
X0095870Y0181443D01*
X0095119Y0182193D01*
X0092117Y0182193D01*
X0092117Y0183795D02*
X0091366Y0184545D01*
X0091366Y0186047D01*
X0092117Y0186797D01*
X0095119Y0183795D01*
X0095870Y0184545D01*
X0095870Y0186047D01*
X0095119Y0186797D01*
X0092117Y0186797D01*
X0092868Y0188399D02*
X0092868Y0190651D01*
X0093618Y0191401D01*
X0095870Y0191401D01*
X0095870Y0188399D02*
X0092868Y0188399D01*
X0092117Y0183795D02*
X0095119Y0183795D01*
X0095119Y0179191D02*
X0092117Y0179191D01*
X0092868Y0194587D02*
X0091366Y0196088D01*
X0095870Y0196088D01*
X0095870Y0194587D02*
X0095870Y0197590D01*
X0095119Y0199191D02*
X0092117Y0202193D01*
X0095119Y0202193D01*
X0095870Y0201443D01*
X0095870Y0199942D01*
X0095119Y0199191D01*
X0092117Y0199191D01*
X0091366Y0199942D01*
X0091366Y0201443D01*
X0092117Y0202193D01*
X0092117Y0203795D02*
X0091366Y0204545D01*
X0091366Y0206047D01*
X0092117Y0206797D01*
X0095119Y0203795D01*
X0095870Y0204545D01*
X0095870Y0206047D01*
X0095119Y0206797D01*
X0092117Y0206797D01*
X0092868Y0208399D02*
X0092868Y0210651D01*
X0093618Y0211401D01*
X0095870Y0211401D01*
X0095870Y0208399D02*
X0092868Y0208399D01*
X0092117Y0203795D02*
X0095119Y0203795D01*
X0093868Y0217587D02*
X0092366Y0219088D01*
X0096870Y0219088D01*
X0096870Y0217587D02*
X0096870Y0220590D01*
X0096119Y0222191D02*
X0093117Y0222191D01*
X0092366Y0222942D01*
X0092366Y0224443D01*
X0093117Y0225193D01*
X0096119Y0222191D01*
X0096870Y0222942D01*
X0096870Y0224443D01*
X0096119Y0225193D01*
X0093117Y0225193D01*
X0093868Y0226795D02*
X0096119Y0226795D01*
X0096870Y0227545D01*
X0096870Y0229797D01*
X0093868Y0229797D01*
X0095184Y0243087D02*
X0092182Y0243087D01*
X0095184Y0246090D01*
X0095184Y0246840D01*
X0094434Y0247591D01*
X0092932Y0247591D01*
X0092182Y0246840D01*
X0090580Y0247591D02*
X0089079Y0247591D01*
X0089830Y0247591D02*
X0089830Y0243838D01*
X0089079Y0243087D01*
X0088329Y0243087D01*
X0087578Y0243838D01*
X0085977Y0243838D02*
X0085977Y0246840D01*
X0085226Y0247591D01*
X0082974Y0247591D01*
X0082974Y0243087D01*
X0085226Y0243087D01*
X0085977Y0243838D01*
X0081373Y0243087D02*
X0081373Y0246090D01*
X0079871Y0247591D01*
X0078370Y0246090D01*
X0078370Y0243087D01*
X0078370Y0245339D02*
X0081373Y0245339D01*
X0054714Y0230180D02*
X0054716Y0230333D01*
X0054722Y0230487D01*
X0054732Y0230640D01*
X0054746Y0230792D01*
X0054764Y0230945D01*
X0054786Y0231096D01*
X0054811Y0231247D01*
X0054841Y0231398D01*
X0054875Y0231548D01*
X0054912Y0231696D01*
X0054953Y0231844D01*
X0054998Y0231990D01*
X0055047Y0232136D01*
X0055100Y0232280D01*
X0055156Y0232422D01*
X0055216Y0232563D01*
X0055280Y0232703D01*
X0055347Y0232841D01*
X0055418Y0232977D01*
X0055493Y0233111D01*
X0055570Y0233243D01*
X0055652Y0233373D01*
X0055736Y0233501D01*
X0055824Y0233627D01*
X0055915Y0233750D01*
X0056009Y0233871D01*
X0056107Y0233989D01*
X0056207Y0234105D01*
X0056311Y0234218D01*
X0056417Y0234329D01*
X0056526Y0234437D01*
X0056638Y0234542D01*
X0056752Y0234643D01*
X0056870Y0234742D01*
X0056989Y0234838D01*
X0057111Y0234931D01*
X0057236Y0235020D01*
X0057363Y0235107D01*
X0057492Y0235189D01*
X0057623Y0235269D01*
X0057756Y0235345D01*
X0057891Y0235418D01*
X0058028Y0235487D01*
X0058167Y0235552D01*
X0058307Y0235614D01*
X0058449Y0235672D01*
X0058592Y0235727D01*
X0058737Y0235778D01*
X0058883Y0235825D01*
X0059030Y0235868D01*
X0059178Y0235907D01*
X0059327Y0235943D01*
X0059477Y0235974D01*
X0059628Y0236002D01*
X0059779Y0236026D01*
X0059932Y0236046D01*
X0060084Y0236062D01*
X0060237Y0236074D01*
X0060390Y0236082D01*
X0060543Y0236086D01*
X0060697Y0236086D01*
X0060850Y0236082D01*
X0061003Y0236074D01*
X0061156Y0236062D01*
X0061308Y0236046D01*
X0061461Y0236026D01*
X0061612Y0236002D01*
X0061763Y0235974D01*
X0061913Y0235943D01*
X0062062Y0235907D01*
X0062210Y0235868D01*
X0062357Y0235825D01*
X0062503Y0235778D01*
X0062648Y0235727D01*
X0062791Y0235672D01*
X0062933Y0235614D01*
X0063073Y0235552D01*
X0063212Y0235487D01*
X0063349Y0235418D01*
X0063484Y0235345D01*
X0063617Y0235269D01*
X0063748Y0235189D01*
X0063877Y0235107D01*
X0064004Y0235020D01*
X0064129Y0234931D01*
X0064251Y0234838D01*
X0064370Y0234742D01*
X0064488Y0234643D01*
X0064602Y0234542D01*
X0064714Y0234437D01*
X0064823Y0234329D01*
X0064929Y0234218D01*
X0065033Y0234105D01*
X0065133Y0233989D01*
X0065231Y0233871D01*
X0065325Y0233750D01*
X0065416Y0233627D01*
X0065504Y0233501D01*
X0065588Y0233373D01*
X0065670Y0233243D01*
X0065747Y0233111D01*
X0065822Y0232977D01*
X0065893Y0232841D01*
X0065960Y0232703D01*
X0066024Y0232563D01*
X0066084Y0232422D01*
X0066140Y0232280D01*
X0066193Y0232136D01*
X0066242Y0231990D01*
X0066287Y0231844D01*
X0066328Y0231696D01*
X0066365Y0231548D01*
X0066399Y0231398D01*
X0066429Y0231247D01*
X0066454Y0231096D01*
X0066476Y0230945D01*
X0066494Y0230792D01*
X0066508Y0230640D01*
X0066518Y0230487D01*
X0066524Y0230333D01*
X0066526Y0230180D01*
X0066524Y0230027D01*
X0066518Y0229873D01*
X0066508Y0229720D01*
X0066494Y0229568D01*
X0066476Y0229415D01*
X0066454Y0229264D01*
X0066429Y0229113D01*
X0066399Y0228962D01*
X0066365Y0228812D01*
X0066328Y0228664D01*
X0066287Y0228516D01*
X0066242Y0228370D01*
X0066193Y0228224D01*
X0066140Y0228080D01*
X0066084Y0227938D01*
X0066024Y0227797D01*
X0065960Y0227657D01*
X0065893Y0227519D01*
X0065822Y0227383D01*
X0065747Y0227249D01*
X0065670Y0227117D01*
X0065588Y0226987D01*
X0065504Y0226859D01*
X0065416Y0226733D01*
X0065325Y0226610D01*
X0065231Y0226489D01*
X0065133Y0226371D01*
X0065033Y0226255D01*
X0064929Y0226142D01*
X0064823Y0226031D01*
X0064714Y0225923D01*
X0064602Y0225818D01*
X0064488Y0225717D01*
X0064370Y0225618D01*
X0064251Y0225522D01*
X0064129Y0225429D01*
X0064004Y0225340D01*
X0063877Y0225253D01*
X0063748Y0225171D01*
X0063617Y0225091D01*
X0063484Y0225015D01*
X0063349Y0224942D01*
X0063212Y0224873D01*
X0063073Y0224808D01*
X0062933Y0224746D01*
X0062791Y0224688D01*
X0062648Y0224633D01*
X0062503Y0224582D01*
X0062357Y0224535D01*
X0062210Y0224492D01*
X0062062Y0224453D01*
X0061913Y0224417D01*
X0061763Y0224386D01*
X0061612Y0224358D01*
X0061461Y0224334D01*
X0061308Y0224314D01*
X0061156Y0224298D01*
X0061003Y0224286D01*
X0060850Y0224278D01*
X0060697Y0224274D01*
X0060543Y0224274D01*
X0060390Y0224278D01*
X0060237Y0224286D01*
X0060084Y0224298D01*
X0059932Y0224314D01*
X0059779Y0224334D01*
X0059628Y0224358D01*
X0059477Y0224386D01*
X0059327Y0224417D01*
X0059178Y0224453D01*
X0059030Y0224492D01*
X0058883Y0224535D01*
X0058737Y0224582D01*
X0058592Y0224633D01*
X0058449Y0224688D01*
X0058307Y0224746D01*
X0058167Y0224808D01*
X0058028Y0224873D01*
X0057891Y0224942D01*
X0057756Y0225015D01*
X0057623Y0225091D01*
X0057492Y0225171D01*
X0057363Y0225253D01*
X0057236Y0225340D01*
X0057111Y0225429D01*
X0056989Y0225522D01*
X0056870Y0225618D01*
X0056752Y0225717D01*
X0056638Y0225818D01*
X0056526Y0225923D01*
X0056417Y0226031D01*
X0056311Y0226142D01*
X0056207Y0226255D01*
X0056107Y0226371D01*
X0056009Y0226489D01*
X0055915Y0226610D01*
X0055824Y0226733D01*
X0055736Y0226859D01*
X0055652Y0226987D01*
X0055570Y0227117D01*
X0055493Y0227249D01*
X0055418Y0227383D01*
X0055347Y0227519D01*
X0055280Y0227657D01*
X0055216Y0227797D01*
X0055156Y0227938D01*
X0055100Y0228080D01*
X0055047Y0228224D01*
X0054998Y0228370D01*
X0054953Y0228516D01*
X0054912Y0228664D01*
X0054875Y0228812D01*
X0054841Y0228962D01*
X0054811Y0229113D01*
X0054786Y0229264D01*
X0054764Y0229415D01*
X0054746Y0229568D01*
X0054732Y0229720D01*
X0054722Y0229873D01*
X0054716Y0230027D01*
X0054714Y0230180D01*
X0052746Y0230180D02*
X0052748Y0230373D01*
X0052755Y0230566D01*
X0052767Y0230759D01*
X0052784Y0230952D01*
X0052805Y0231144D01*
X0052831Y0231335D01*
X0052862Y0231526D01*
X0052897Y0231716D01*
X0052937Y0231905D01*
X0052982Y0232093D01*
X0053031Y0232280D01*
X0053085Y0232466D01*
X0053143Y0232650D01*
X0053206Y0232833D01*
X0053274Y0233014D01*
X0053345Y0233193D01*
X0053422Y0233371D01*
X0053502Y0233547D01*
X0053587Y0233720D01*
X0053676Y0233892D01*
X0053769Y0234061D01*
X0053866Y0234228D01*
X0053968Y0234393D01*
X0054073Y0234555D01*
X0054182Y0234714D01*
X0054296Y0234871D01*
X0054413Y0235024D01*
X0054533Y0235175D01*
X0054658Y0235323D01*
X0054786Y0235468D01*
X0054917Y0235609D01*
X0055052Y0235748D01*
X0055191Y0235883D01*
X0055332Y0236014D01*
X0055477Y0236142D01*
X0055625Y0236267D01*
X0055776Y0236387D01*
X0055929Y0236504D01*
X0056086Y0236618D01*
X0056245Y0236727D01*
X0056407Y0236832D01*
X0056572Y0236934D01*
X0056739Y0237031D01*
X0056908Y0237124D01*
X0057080Y0237213D01*
X0057253Y0237298D01*
X0057429Y0237378D01*
X0057607Y0237455D01*
X0057786Y0237526D01*
X0057967Y0237594D01*
X0058150Y0237657D01*
X0058334Y0237715D01*
X0058520Y0237769D01*
X0058707Y0237818D01*
X0058895Y0237863D01*
X0059084Y0237903D01*
X0059274Y0237938D01*
X0059465Y0237969D01*
X0059656Y0237995D01*
X0059848Y0238016D01*
X0060041Y0238033D01*
X0060234Y0238045D01*
X0060427Y0238052D01*
X0060620Y0238054D01*
X0060813Y0238052D01*
X0061006Y0238045D01*
X0061199Y0238033D01*
X0061392Y0238016D01*
X0061584Y0237995D01*
X0061775Y0237969D01*
X0061966Y0237938D01*
X0062156Y0237903D01*
X0062345Y0237863D01*
X0062533Y0237818D01*
X0062720Y0237769D01*
X0062906Y0237715D01*
X0063090Y0237657D01*
X0063273Y0237594D01*
X0063454Y0237526D01*
X0063633Y0237455D01*
X0063811Y0237378D01*
X0063987Y0237298D01*
X0064160Y0237213D01*
X0064332Y0237124D01*
X0064501Y0237031D01*
X0064668Y0236934D01*
X0064833Y0236832D01*
X0064995Y0236727D01*
X0065154Y0236618D01*
X0065311Y0236504D01*
X0065464Y0236387D01*
X0065615Y0236267D01*
X0065763Y0236142D01*
X0065908Y0236014D01*
X0066049Y0235883D01*
X0066188Y0235748D01*
X0066323Y0235609D01*
X0066454Y0235468D01*
X0066582Y0235323D01*
X0066707Y0235175D01*
X0066827Y0235024D01*
X0066944Y0234871D01*
X0067058Y0234714D01*
X0067167Y0234555D01*
X0067272Y0234393D01*
X0067374Y0234228D01*
X0067471Y0234061D01*
X0067564Y0233892D01*
X0067653Y0233720D01*
X0067738Y0233547D01*
X0067818Y0233371D01*
X0067895Y0233193D01*
X0067966Y0233014D01*
X0068034Y0232833D01*
X0068097Y0232650D01*
X0068155Y0232466D01*
X0068209Y0232280D01*
X0068258Y0232093D01*
X0068303Y0231905D01*
X0068343Y0231716D01*
X0068378Y0231526D01*
X0068409Y0231335D01*
X0068435Y0231144D01*
X0068456Y0230952D01*
X0068473Y0230759D01*
X0068485Y0230566D01*
X0068492Y0230373D01*
X0068494Y0230180D01*
X0068492Y0229987D01*
X0068485Y0229794D01*
X0068473Y0229601D01*
X0068456Y0229408D01*
X0068435Y0229216D01*
X0068409Y0229025D01*
X0068378Y0228834D01*
X0068343Y0228644D01*
X0068303Y0228455D01*
X0068258Y0228267D01*
X0068209Y0228080D01*
X0068155Y0227894D01*
X0068097Y0227710D01*
X0068034Y0227527D01*
X0067966Y0227346D01*
X0067895Y0227167D01*
X0067818Y0226989D01*
X0067738Y0226813D01*
X0067653Y0226640D01*
X0067564Y0226468D01*
X0067471Y0226299D01*
X0067374Y0226132D01*
X0067272Y0225967D01*
X0067167Y0225805D01*
X0067058Y0225646D01*
X0066944Y0225489D01*
X0066827Y0225336D01*
X0066707Y0225185D01*
X0066582Y0225037D01*
X0066454Y0224892D01*
X0066323Y0224751D01*
X0066188Y0224612D01*
X0066049Y0224477D01*
X0065908Y0224346D01*
X0065763Y0224218D01*
X0065615Y0224093D01*
X0065464Y0223973D01*
X0065311Y0223856D01*
X0065154Y0223742D01*
X0064995Y0223633D01*
X0064833Y0223528D01*
X0064668Y0223426D01*
X0064501Y0223329D01*
X0064332Y0223236D01*
X0064160Y0223147D01*
X0063987Y0223062D01*
X0063811Y0222982D01*
X0063633Y0222905D01*
X0063454Y0222834D01*
X0063273Y0222766D01*
X0063090Y0222703D01*
X0062906Y0222645D01*
X0062720Y0222591D01*
X0062533Y0222542D01*
X0062345Y0222497D01*
X0062156Y0222457D01*
X0061966Y0222422D01*
X0061775Y0222391D01*
X0061584Y0222365D01*
X0061392Y0222344D01*
X0061199Y0222327D01*
X0061006Y0222315D01*
X0060813Y0222308D01*
X0060620Y0222306D01*
X0060427Y0222308D01*
X0060234Y0222315D01*
X0060041Y0222327D01*
X0059848Y0222344D01*
X0059656Y0222365D01*
X0059465Y0222391D01*
X0059274Y0222422D01*
X0059084Y0222457D01*
X0058895Y0222497D01*
X0058707Y0222542D01*
X0058520Y0222591D01*
X0058334Y0222645D01*
X0058150Y0222703D01*
X0057967Y0222766D01*
X0057786Y0222834D01*
X0057607Y0222905D01*
X0057429Y0222982D01*
X0057253Y0223062D01*
X0057080Y0223147D01*
X0056908Y0223236D01*
X0056739Y0223329D01*
X0056572Y0223426D01*
X0056407Y0223528D01*
X0056245Y0223633D01*
X0056086Y0223742D01*
X0055929Y0223856D01*
X0055776Y0223973D01*
X0055625Y0224093D01*
X0055477Y0224218D01*
X0055332Y0224346D01*
X0055191Y0224477D01*
X0055052Y0224612D01*
X0054917Y0224751D01*
X0054786Y0224892D01*
X0054658Y0225037D01*
X0054533Y0225185D01*
X0054413Y0225336D01*
X0054296Y0225489D01*
X0054182Y0225646D01*
X0054073Y0225805D01*
X0053968Y0225967D01*
X0053866Y0226132D01*
X0053769Y0226299D01*
X0053676Y0226468D01*
X0053587Y0226640D01*
X0053502Y0226813D01*
X0053422Y0226989D01*
X0053345Y0227167D01*
X0053274Y0227346D01*
X0053206Y0227527D01*
X0053143Y0227710D01*
X0053085Y0227894D01*
X0053031Y0228080D01*
X0052982Y0228267D01*
X0052937Y0228455D01*
X0052897Y0228644D01*
X0052862Y0228834D01*
X0052831Y0229025D01*
X0052805Y0229216D01*
X0052784Y0229408D01*
X0052767Y0229601D01*
X0052755Y0229794D01*
X0052748Y0229987D01*
X0052746Y0230180D01*
X0044120Y0227337D02*
X0043120Y0227337D01*
X0043120Y0233337D02*
X0044120Y0233337D01*
X0128066Y0226191D02*
X0132570Y0226191D01*
X0131069Y0226191D02*
X0129568Y0228443D01*
X0131069Y0226191D02*
X0132570Y0228443D01*
X0132570Y0224590D02*
X0132570Y0221587D01*
X0129568Y0224590D01*
X0128817Y0224590D01*
X0128066Y0223839D01*
X0128066Y0222338D01*
X0128817Y0221587D01*
X0138666Y0222293D02*
X0138666Y0223794D01*
X0139417Y0224545D01*
X0142419Y0221543D01*
X0143170Y0222293D01*
X0143170Y0223794D01*
X0142419Y0224545D01*
X0139417Y0224545D01*
X0139417Y0226146D02*
X0138666Y0226897D01*
X0138666Y0228398D01*
X0139417Y0229149D01*
X0142419Y0226146D01*
X0143170Y0226897D01*
X0143170Y0228398D01*
X0142419Y0229149D01*
X0139417Y0229149D01*
X0138666Y0230750D02*
X0143170Y0230750D01*
X0141669Y0230750D02*
X0140168Y0233002D01*
X0141669Y0230750D02*
X0143170Y0233002D01*
X0148066Y0232899D02*
X0152570Y0232899D01*
X0151069Y0232899D02*
X0149568Y0235151D01*
X0151069Y0232899D02*
X0152570Y0235151D01*
X0151819Y0231297D02*
X0152570Y0230547D01*
X0152570Y0229045D01*
X0151819Y0228295D01*
X0148817Y0231297D01*
X0151819Y0231297D01*
X0148817Y0231297D02*
X0148066Y0230547D01*
X0148066Y0229045D01*
X0148817Y0228295D01*
X0151819Y0228295D01*
X0151819Y0226693D02*
X0152570Y0225943D01*
X0152570Y0224442D01*
X0151819Y0223691D01*
X0148817Y0226693D01*
X0151819Y0226693D01*
X0151819Y0223691D02*
X0148817Y0223691D01*
X0148066Y0224442D01*
X0148066Y0225943D01*
X0148817Y0226693D01*
X0152570Y0222090D02*
X0152570Y0219087D01*
X0152570Y0220588D02*
X0148066Y0220588D01*
X0149568Y0219087D01*
X0143170Y0218440D02*
X0138666Y0218440D01*
X0140168Y0216939D01*
X0143170Y0216939D02*
X0143170Y0219941D01*
X0142419Y0221543D02*
X0139417Y0221543D01*
X0138666Y0222293D01*
X0139417Y0226146D02*
X0142419Y0226146D01*
X0158666Y0226897D02*
X0159417Y0226146D01*
X0162419Y0226146D01*
X0159417Y0229149D01*
X0162419Y0229149D01*
X0163170Y0228398D01*
X0163170Y0226897D01*
X0162419Y0226146D01*
X0162419Y0224545D02*
X0163170Y0223794D01*
X0163170Y0222293D01*
X0162419Y0221543D01*
X0159417Y0224545D01*
X0162419Y0224545D01*
X0159417Y0224545D02*
X0158666Y0223794D01*
X0158666Y0222293D01*
X0159417Y0221543D01*
X0162419Y0221543D01*
X0163170Y0219941D02*
X0163170Y0216939D01*
X0163170Y0218440D02*
X0158666Y0218440D01*
X0160168Y0216939D01*
X0168066Y0222338D02*
X0168817Y0221587D01*
X0168066Y0222338D02*
X0168066Y0223839D01*
X0168817Y0224590D01*
X0169568Y0224590D01*
X0172570Y0221587D01*
X0172570Y0224590D01*
X0172570Y0226191D02*
X0168066Y0226191D01*
X0169568Y0228443D02*
X0171069Y0226191D01*
X0172570Y0228443D01*
X0163170Y0230750D02*
X0158666Y0230750D01*
X0159417Y0229149D02*
X0158666Y0228398D01*
X0158666Y0226897D01*
X0161669Y0230750D02*
X0160168Y0233002D01*
X0161669Y0230750D02*
X0163170Y0233002D01*
X0188066Y0234045D02*
X0188066Y0235547D01*
X0188817Y0236297D01*
X0191819Y0233295D01*
X0192570Y0234045D01*
X0192570Y0235547D01*
X0191819Y0236297D01*
X0188817Y0236297D01*
X0188066Y0237899D02*
X0192570Y0237899D01*
X0191069Y0237899D02*
X0189568Y0240151D01*
X0191069Y0237899D02*
X0192570Y0240151D01*
X0197566Y0240719D02*
X0198317Y0239968D01*
X0197566Y0240719D02*
X0197566Y0242220D01*
X0198317Y0242971D01*
X0199068Y0242971D01*
X0202070Y0239968D01*
X0202070Y0242971D01*
X0207866Y0240088D02*
X0212370Y0240088D01*
X0212370Y0238587D02*
X0212370Y0241590D01*
X0209368Y0238587D02*
X0207866Y0240088D01*
X0202070Y0238367D02*
X0197566Y0238367D01*
X0199068Y0236865D01*
X0197566Y0235364D01*
X0202070Y0235364D01*
X0202070Y0233796D02*
X0202070Y0232295D01*
X0202070Y0233045D02*
X0197566Y0233045D01*
X0197566Y0232295D02*
X0197566Y0233796D01*
X0198317Y0230693D02*
X0199818Y0230693D01*
X0200569Y0229943D01*
X0200569Y0227691D01*
X0202070Y0227691D02*
X0197566Y0227691D01*
X0197566Y0229943D01*
X0198317Y0230693D01*
X0200569Y0229192D02*
X0202070Y0230693D01*
X0207866Y0231339D02*
X0208617Y0232090D01*
X0209368Y0232090D01*
X0210118Y0231339D01*
X0210869Y0232090D01*
X0211619Y0232090D01*
X0212370Y0231339D01*
X0212370Y0229838D01*
X0211619Y0229087D01*
X0210118Y0230588D02*
X0210118Y0231339D01*
X0207866Y0231339D02*
X0207866Y0229838D01*
X0208617Y0229087D01*
X0202070Y0224588D02*
X0197566Y0224588D01*
X0197566Y0223087D02*
X0197566Y0226090D01*
X0192570Y0225588D02*
X0188066Y0225588D01*
X0189568Y0224087D01*
X0192570Y0224087D02*
X0192570Y0227090D01*
X0192570Y0228691D02*
X0189568Y0231693D01*
X0188817Y0231693D01*
X0188066Y0230943D01*
X0188066Y0229442D01*
X0188817Y0228691D01*
X0192570Y0228691D02*
X0192570Y0231693D01*
X0191819Y0233295D02*
X0188817Y0233295D01*
X0188066Y0234045D01*
X0225366Y0227691D02*
X0229870Y0227691D01*
X0228369Y0227691D02*
X0226868Y0229943D01*
X0228369Y0227691D02*
X0229870Y0229943D01*
X0229870Y0226090D02*
X0229870Y0223087D01*
X0226868Y0226090D01*
X0226117Y0226090D01*
X0225366Y0225339D01*
X0225366Y0223838D01*
X0226117Y0223087D01*
X0241885Y0222287D02*
X0244137Y0222287D01*
X0244888Y0223038D01*
X0244888Y0223788D01*
X0244137Y0224539D01*
X0241885Y0224539D01*
X0241885Y0222287D02*
X0241885Y0226791D01*
X0244137Y0226791D01*
X0244888Y0226040D01*
X0244888Y0225290D01*
X0244137Y0224539D01*
X0246489Y0226791D02*
X0247990Y0226791D01*
X0247240Y0226791D02*
X0247240Y0222287D01*
X0247990Y0222287D02*
X0246489Y0222287D01*
X0249558Y0222287D02*
X0249558Y0225290D01*
X0251060Y0226791D01*
X0252561Y0225290D01*
X0252561Y0222287D01*
X0254162Y0223038D02*
X0254913Y0222287D01*
X0256414Y0222287D01*
X0257165Y0223038D01*
X0257165Y0223788D01*
X0256414Y0224539D01*
X0254913Y0224539D01*
X0254162Y0225290D01*
X0254162Y0226040D01*
X0254913Y0226791D01*
X0256414Y0226791D01*
X0257165Y0226040D01*
X0258766Y0226040D02*
X0259517Y0226791D01*
X0261018Y0226791D01*
X0261769Y0226040D01*
X0261769Y0225290D01*
X0258766Y0222287D01*
X0261769Y0222287D01*
X0255830Y0216390D02*
X0253578Y0214888D01*
X0255830Y0213387D01*
X0253578Y0213387D02*
X0253578Y0217891D01*
X0251977Y0217140D02*
X0248974Y0214138D01*
X0249725Y0213387D01*
X0251226Y0213387D01*
X0251977Y0214138D01*
X0251977Y0217140D01*
X0251226Y0217891D01*
X0249725Y0217891D01*
X0248974Y0217140D01*
X0248974Y0214138D01*
X0247373Y0213387D02*
X0244370Y0213387D01*
X0247373Y0216390D01*
X0247373Y0217140D01*
X0246622Y0217891D01*
X0245121Y0217891D01*
X0244370Y0217140D01*
X0249558Y0224539D02*
X0252561Y0224539D01*
X0253517Y0232587D02*
X0252766Y0233338D01*
X0253517Y0232587D02*
X0255018Y0232587D01*
X0255769Y0233338D01*
X0255769Y0234088D01*
X0255018Y0234839D01*
X0254267Y0234839D01*
X0255018Y0234839D02*
X0255769Y0235590D01*
X0255769Y0236340D01*
X0255018Y0237091D01*
X0253517Y0237091D01*
X0252766Y0236340D01*
X0246269Y0232587D02*
X0243266Y0232587D01*
X0244767Y0232587D02*
X0244767Y0237091D01*
X0243266Y0235590D01*
X0245722Y0250087D02*
X0248724Y0250087D01*
X0247223Y0250087D02*
X0247223Y0254591D01*
X0245722Y0253090D01*
X0250326Y0253840D02*
X0250326Y0250838D01*
X0253328Y0253840D01*
X0253328Y0250838D01*
X0252578Y0250087D01*
X0251076Y0250087D01*
X0250326Y0250838D01*
X0250326Y0253840D02*
X0251076Y0254591D01*
X0252578Y0254591D01*
X0253328Y0253840D01*
X0254930Y0253840D02*
X0255680Y0254591D01*
X0257181Y0254591D01*
X0257932Y0253840D01*
X0254930Y0250838D01*
X0255680Y0250087D01*
X0257181Y0250087D01*
X0257932Y0250838D01*
X0257932Y0253840D01*
X0259533Y0254591D02*
X0259533Y0250087D01*
X0259533Y0251588D02*
X0261785Y0253090D01*
X0259533Y0251588D02*
X0261785Y0250087D01*
X0254930Y0250838D02*
X0254930Y0253840D01*
X0278666Y0237235D02*
X0279417Y0237986D01*
X0280918Y0237986D01*
X0281669Y0237235D01*
X0281669Y0234983D01*
X0283170Y0234983D02*
X0278666Y0234983D01*
X0278666Y0237235D01*
X0281669Y0236484D02*
X0283170Y0237986D01*
X0282419Y0233382D02*
X0279417Y0233382D01*
X0282419Y0230379D01*
X0283170Y0231130D01*
X0283170Y0232631D01*
X0282419Y0233382D01*
X0279417Y0233382D02*
X0278666Y0232631D01*
X0278666Y0231130D01*
X0279417Y0230379D01*
X0282419Y0230379D01*
X0282419Y0228778D02*
X0283170Y0228027D01*
X0283170Y0226526D01*
X0282419Y0225775D01*
X0280918Y0225775D02*
X0280168Y0227276D01*
X0280168Y0228027D01*
X0280918Y0228778D01*
X0282419Y0228778D01*
X0280918Y0225775D02*
X0278666Y0225775D01*
X0278666Y0228778D01*
X0283170Y0224174D02*
X0283170Y0221171D01*
X0283170Y0222673D02*
X0278666Y0222673D01*
X0280168Y0221171D01*
X0293066Y0220588D02*
X0297570Y0220588D01*
X0297570Y0219087D02*
X0297570Y0222090D01*
X0296819Y0223691D02*
X0293817Y0223691D01*
X0293066Y0224442D01*
X0293066Y0225943D01*
X0293817Y0226693D01*
X0296819Y0223691D01*
X0297570Y0224442D01*
X0297570Y0225943D01*
X0296819Y0226693D01*
X0293817Y0226693D01*
X0293817Y0228295D02*
X0293066Y0229045D01*
X0293066Y0230547D01*
X0293817Y0231297D01*
X0296819Y0228295D01*
X0297570Y0229045D01*
X0297570Y0230547D01*
X0296819Y0231297D01*
X0293817Y0231297D01*
X0293066Y0232899D02*
X0297570Y0232899D01*
X0296069Y0232899D02*
X0294568Y0235151D01*
X0296069Y0232899D02*
X0297570Y0235151D01*
X0296819Y0228295D02*
X0293817Y0228295D01*
X0293066Y0220588D02*
X0294568Y0219087D01*
X0319326Y0220039D02*
X0322328Y0220039D01*
X0323930Y0218538D02*
X0323930Y0217787D01*
X0323930Y0218538D02*
X0326932Y0221540D01*
X0326932Y0222291D01*
X0323930Y0222291D01*
X0321578Y0222291D02*
X0319326Y0220039D01*
X0321578Y0217787D02*
X0321578Y0222291D01*
X0322373Y0228387D02*
X0319370Y0228387D01*
X0322373Y0231390D01*
X0322373Y0232140D01*
X0321622Y0232891D01*
X0320121Y0232891D01*
X0319370Y0232140D01*
X0323974Y0232891D02*
X0323974Y0228387D01*
X0326977Y0228387D02*
X0326977Y0232891D01*
X0325475Y0231390D01*
X0323974Y0232891D01*
X0321474Y0238387D02*
X0321474Y0239138D01*
X0324477Y0242140D01*
X0324477Y0242891D01*
X0321474Y0242891D01*
X0319122Y0242891D02*
X0316870Y0240639D01*
X0319873Y0240639D01*
X0319122Y0238387D02*
X0319122Y0242891D01*
X0326078Y0242140D02*
X0326078Y0239138D01*
X0329080Y0242140D01*
X0329080Y0239138D01*
X0328330Y0238387D01*
X0326829Y0238387D01*
X0326078Y0239138D01*
X0326078Y0242140D02*
X0326829Y0242891D01*
X0328330Y0242891D01*
X0329080Y0242140D01*
X0330682Y0242891D02*
X0330682Y0238387D01*
X0330682Y0239888D02*
X0332934Y0241390D01*
X0330682Y0239888D02*
X0332934Y0238387D01*
X0328533Y0222291D02*
X0328533Y0217787D01*
X0328533Y0219288D02*
X0330785Y0217787D01*
X0328533Y0219288D02*
X0330785Y0220790D01*
X0330266Y0212291D02*
X0333269Y0212291D01*
X0333269Y0211540D01*
X0330266Y0208538D01*
X0330266Y0207787D01*
X0328681Y0207787D02*
X0326430Y0209288D01*
X0328681Y0210790D01*
X0326430Y0212291D02*
X0326430Y0207787D01*
X0324078Y0207787D02*
X0324078Y0212291D01*
X0321826Y0210039D01*
X0324828Y0210039D01*
X0358666Y0215148D02*
X0363170Y0215148D01*
X0363170Y0216649D02*
X0363170Y0213646D01*
X0360168Y0213646D02*
X0358666Y0215148D01*
X0358666Y0218250D02*
X0363170Y0218250D01*
X0361669Y0218250D02*
X0360168Y0220502D01*
X0361669Y0218250D02*
X0363170Y0220502D01*
X0267288Y0201840D02*
X0266538Y0202591D01*
X0265036Y0202591D01*
X0264286Y0201840D01*
X0262684Y0201090D02*
X0262684Y0198087D01*
X0264286Y0198087D02*
X0267288Y0201090D01*
X0267288Y0201840D01*
X0267288Y0198087D02*
X0264286Y0198087D01*
X0262684Y0200339D02*
X0259682Y0200339D01*
X0259682Y0201090D02*
X0261183Y0202591D01*
X0262684Y0201090D01*
X0259682Y0201090D02*
X0259682Y0198087D01*
X0258080Y0198087D02*
X0258080Y0202591D01*
X0255078Y0202591D02*
X0258080Y0198087D01*
X0255078Y0198087D02*
X0255078Y0202591D01*
X0253477Y0202591D02*
X0253477Y0198087D01*
X0250474Y0198087D02*
X0250474Y0202591D01*
X0251975Y0201090D01*
X0253477Y0202591D01*
X0248873Y0201840D02*
X0248122Y0202591D01*
X0246621Y0202591D01*
X0245870Y0201840D01*
X0245870Y0198838D01*
X0246621Y0198087D01*
X0248122Y0198087D01*
X0248873Y0198838D01*
X0239269Y0187591D02*
X0237767Y0186840D01*
X0236266Y0185339D01*
X0238518Y0185339D01*
X0239269Y0184588D01*
X0239269Y0183838D01*
X0238518Y0183087D01*
X0237017Y0183087D01*
X0236266Y0183838D01*
X0236266Y0185339D01*
X0234665Y0186840D02*
X0231662Y0183838D01*
X0232413Y0183087D01*
X0233914Y0183087D01*
X0234665Y0183838D01*
X0234665Y0186840D01*
X0233914Y0187591D01*
X0232413Y0187591D01*
X0231662Y0186840D01*
X0231662Y0183838D01*
X0230061Y0183838D02*
X0230061Y0186840D01*
X0229310Y0187591D01*
X0227809Y0187591D01*
X0227058Y0186840D01*
X0227058Y0186090D01*
X0227809Y0185339D01*
X0230061Y0185339D01*
X0230061Y0183838D02*
X0229310Y0183087D01*
X0227809Y0183087D01*
X0227058Y0183838D01*
X0225457Y0183838D02*
X0224706Y0183087D01*
X0223205Y0183087D01*
X0222454Y0183838D01*
X0220853Y0183087D02*
X0217850Y0187591D01*
X0217850Y0183087D01*
X0216249Y0183087D02*
X0213246Y0183087D01*
X0216249Y0186090D01*
X0216249Y0186840D01*
X0215498Y0187591D01*
X0213997Y0187591D01*
X0213246Y0186840D01*
X0209269Y0185339D02*
X0206266Y0185339D01*
X0208518Y0187591D01*
X0208518Y0183087D01*
X0204665Y0183838D02*
X0203914Y0183087D01*
X0202413Y0183087D01*
X0201662Y0183838D01*
X0204665Y0186840D01*
X0204665Y0183838D01*
X0204665Y0186840D02*
X0203914Y0187591D01*
X0202413Y0187591D01*
X0201662Y0186840D01*
X0201662Y0183838D01*
X0200061Y0183838D02*
X0200061Y0186840D01*
X0199310Y0187591D01*
X0197809Y0187591D01*
X0197058Y0186840D01*
X0197058Y0186090D01*
X0197809Y0185339D01*
X0200061Y0185339D01*
X0200061Y0183838D02*
X0199310Y0183087D01*
X0197809Y0183087D01*
X0197058Y0183838D01*
X0195457Y0183838D02*
X0194706Y0183087D01*
X0193205Y0183087D01*
X0192454Y0183838D01*
X0190853Y0183087D02*
X0190853Y0187591D01*
X0192454Y0186840D02*
X0193205Y0187591D01*
X0194706Y0187591D01*
X0195457Y0186840D01*
X0195457Y0186090D01*
X0194706Y0185339D01*
X0195457Y0184588D01*
X0195457Y0183838D01*
X0194706Y0185339D02*
X0193956Y0185339D01*
X0190853Y0183087D02*
X0187850Y0187591D01*
X0187850Y0183087D01*
X0186249Y0183087D02*
X0183246Y0183087D01*
X0186249Y0186090D01*
X0186249Y0186840D01*
X0185498Y0187591D01*
X0183997Y0187591D01*
X0183246Y0186840D01*
X0190168Y0201337D02*
X0191747Y0201337D01*
X0192374Y0206837D02*
X0208866Y0206837D01*
X0209493Y0201337D02*
X0211072Y0201337D01*
X0201747Y0201337D02*
X0199493Y0201337D01*
X0208866Y0206837D02*
X0209019Y0206638D01*
X0209167Y0206436D01*
X0209310Y0206231D01*
X0209448Y0206022D01*
X0209581Y0205810D01*
X0209709Y0205595D01*
X0209831Y0205377D01*
X0209949Y0205156D01*
X0210061Y0204932D01*
X0210168Y0204706D01*
X0210269Y0204477D01*
X0210365Y0204246D01*
X0210456Y0204012D01*
X0210541Y0203777D01*
X0210620Y0203539D01*
X0210693Y0203300D01*
X0210761Y0203059D01*
X0210823Y0202817D01*
X0210879Y0202573D01*
X0210930Y0202327D01*
X0210974Y0202081D01*
X0211013Y0201834D01*
X0211045Y0201586D01*
X0211072Y0201337D01*
X0211094Y0201082D01*
X0211109Y0200826D01*
X0211117Y0200570D01*
X0211120Y0200313D01*
X0211116Y0200057D01*
X0211106Y0199801D01*
X0211090Y0199545D01*
X0211068Y0199290D01*
X0211039Y0199035D01*
X0211004Y0198781D01*
X0210963Y0198528D01*
X0210916Y0198276D01*
X0210862Y0198026D01*
X0210803Y0197777D01*
X0210737Y0197529D01*
X0210666Y0197283D01*
X0210588Y0197038D01*
X0210505Y0196796D01*
X0210416Y0196556D01*
X0210320Y0196318D01*
X0210219Y0196082D01*
X0210113Y0195849D01*
X0210000Y0195619D01*
X0209882Y0195391D01*
X0209759Y0195167D01*
X0209630Y0194945D01*
X0209496Y0194727D01*
X0209356Y0194512D01*
X0209211Y0194301D01*
X0209061Y0194093D01*
X0208907Y0193889D01*
X0208747Y0193688D01*
X0208582Y0193492D01*
X0208413Y0193300D01*
X0208238Y0193111D01*
X0208060Y0192928D01*
X0207877Y0192748D01*
X0207689Y0192573D01*
X0207498Y0192403D01*
X0207302Y0192238D01*
X0207102Y0192077D01*
X0206899Y0191921D01*
X0206692Y0191771D01*
X0206481Y0191625D01*
X0206266Y0191484D01*
X0206049Y0191349D01*
X0205828Y0191219D01*
X0205604Y0191095D01*
X0205377Y0190976D01*
X0205147Y0190863D01*
X0204914Y0190755D01*
X0204679Y0190653D01*
X0204441Y0190557D01*
X0204202Y0190467D01*
X0203960Y0190382D01*
X0203716Y0190304D01*
X0197524Y0190304D02*
X0197282Y0190382D01*
X0197042Y0190466D01*
X0196804Y0190555D01*
X0196568Y0190650D01*
X0196334Y0190752D01*
X0196103Y0190858D01*
X0195875Y0190971D01*
X0195649Y0191088D01*
X0195426Y0191211D01*
X0195207Y0191340D01*
X0194990Y0191474D01*
X0194777Y0191613D01*
X0194567Y0191757D01*
X0194361Y0191906D01*
X0194159Y0192060D01*
X0193960Y0192219D01*
X0193765Y0192383D01*
X0193574Y0192552D01*
X0193388Y0192725D01*
X0193205Y0192902D01*
X0193027Y0193084D01*
X0192854Y0193270D01*
X0192685Y0193461D01*
X0192521Y0193655D01*
X0192361Y0193853D01*
X0192206Y0194055D01*
X0192057Y0194261D01*
X0191912Y0194470D01*
X0191772Y0194683D01*
X0191638Y0194899D01*
X0191509Y0195119D01*
X0191385Y0195341D01*
X0191266Y0195566D01*
X0191154Y0195794D01*
X0191046Y0196025D01*
X0190945Y0196258D01*
X0190849Y0196494D01*
X0190758Y0196732D01*
X0190674Y0196972D01*
X0190595Y0197214D01*
X0190522Y0197458D01*
X0190456Y0197704D01*
X0190395Y0197951D01*
X0190340Y0198199D01*
X0190291Y0198449D01*
X0190248Y0198700D01*
X0190212Y0198952D01*
X0190181Y0199204D01*
X0190157Y0199458D01*
X0190139Y0199711D01*
X0190127Y0199966D01*
X0190121Y0200220D01*
X0190121Y0200475D01*
X0190127Y0200729D01*
X0190140Y0200983D01*
X0190159Y0201237D01*
X0190184Y0201490D01*
X0190215Y0201743D01*
X0190252Y0201995D01*
X0190295Y0202245D01*
X0190344Y0202495D01*
X0190400Y0202744D01*
X0190461Y0202991D01*
X0190528Y0203236D01*
X0190601Y0203480D01*
X0190680Y0203722D01*
X0190765Y0203961D01*
X0190856Y0204199D01*
X0190953Y0204435D01*
X0191055Y0204668D01*
X0191163Y0204898D01*
X0191276Y0205126D01*
X0191395Y0205351D01*
X0191519Y0205573D01*
X0191649Y0205792D01*
X0191783Y0206008D01*
X0191923Y0206221D01*
X0192069Y0206430D01*
X0192219Y0206635D01*
X0192374Y0206837D01*
X0220853Y0187591D02*
X0220853Y0183087D01*
X0223956Y0185339D02*
X0224706Y0185339D01*
X0225457Y0184588D01*
X0225457Y0183838D01*
X0224706Y0185339D02*
X0225457Y0186090D01*
X0225457Y0186840D01*
X0224706Y0187591D01*
X0223205Y0187591D01*
X0222454Y0186840D01*
X0233366Y0178986D02*
X0234117Y0177484D01*
X0235618Y0175983D01*
X0235618Y0178235D01*
X0236369Y0178986D01*
X0237119Y0178986D01*
X0237870Y0178235D01*
X0237870Y0176734D01*
X0237119Y0175983D01*
X0235618Y0175983D01*
X0234117Y0174382D02*
X0237119Y0171379D01*
X0237870Y0172130D01*
X0237870Y0173631D01*
X0237119Y0174382D01*
X0234117Y0174382D01*
X0233366Y0173631D01*
X0233366Y0172130D01*
X0234117Y0171379D01*
X0237119Y0171379D01*
X0237119Y0169778D02*
X0234117Y0169778D01*
X0233366Y0169027D01*
X0233366Y0167526D01*
X0234117Y0166775D01*
X0234868Y0166775D01*
X0235618Y0167526D01*
X0235618Y0169778D01*
X0237119Y0169778D02*
X0237870Y0169027D01*
X0237870Y0167526D01*
X0237119Y0166775D01*
X0237119Y0165174D02*
X0237870Y0164423D01*
X0237870Y0162922D01*
X0237119Y0162171D01*
X0237870Y0160570D02*
X0233366Y0160570D01*
X0234117Y0162171D02*
X0233366Y0162922D01*
X0233366Y0164423D01*
X0234117Y0165174D01*
X0234868Y0165174D01*
X0235618Y0164423D01*
X0236369Y0165174D01*
X0237119Y0165174D01*
X0235618Y0164423D02*
X0235618Y0163673D01*
X0237870Y0160570D02*
X0233366Y0157567D01*
X0237870Y0157567D01*
X0237870Y0155966D02*
X0237870Y0152963D01*
X0234868Y0155966D01*
X0234117Y0155966D01*
X0233366Y0155215D01*
X0233366Y0153714D01*
X0234117Y0152963D01*
X0244370Y0152140D02*
X0245121Y0152891D01*
X0246622Y0152891D01*
X0247373Y0152140D01*
X0247373Y0151390D01*
X0244370Y0148387D01*
X0247373Y0148387D01*
X0248974Y0149138D02*
X0251977Y0152140D01*
X0251977Y0149138D01*
X0251226Y0148387D01*
X0249725Y0148387D01*
X0248974Y0149138D01*
X0248974Y0152140D01*
X0249725Y0152891D01*
X0251226Y0152891D01*
X0251977Y0152140D01*
X0253578Y0152891D02*
X0253578Y0148387D01*
X0253578Y0149888D02*
X0255830Y0148387D01*
X0253578Y0149888D02*
X0255830Y0151390D01*
X0252119Y0158087D02*
X0249117Y0158087D01*
X0248366Y0158838D01*
X0248366Y0160339D01*
X0249117Y0161090D01*
X0248366Y0162691D02*
X0249868Y0164192D01*
X0248366Y0165693D01*
X0252870Y0165693D01*
X0252870Y0167295D02*
X0248366Y0167295D01*
X0252870Y0170297D01*
X0248366Y0170297D01*
X0249868Y0171899D02*
X0248366Y0173400D01*
X0249868Y0174901D01*
X0252870Y0174901D01*
X0252870Y0176503D02*
X0252870Y0179505D01*
X0252870Y0178004D02*
X0248366Y0178004D01*
X0249868Y0176503D01*
X0250618Y0174901D02*
X0250618Y0171899D01*
X0249868Y0171899D02*
X0252870Y0171899D01*
X0252870Y0162691D02*
X0248366Y0162691D01*
X0252119Y0161090D02*
X0252870Y0160339D01*
X0252870Y0158838D01*
X0252119Y0158087D01*
X0252545Y0143391D02*
X0251043Y0141890D01*
X0251043Y0138887D01*
X0249475Y0138887D02*
X0247974Y0138887D01*
X0248725Y0138887D02*
X0248725Y0143391D01*
X0249475Y0143391D02*
X0247974Y0143391D01*
X0246373Y0142640D02*
X0246373Y0141890D01*
X0245622Y0141139D01*
X0243370Y0141139D01*
X0243370Y0143391D02*
X0245622Y0143391D01*
X0246373Y0142640D01*
X0245622Y0141139D02*
X0246373Y0140388D01*
X0246373Y0139638D01*
X0245622Y0138887D01*
X0243370Y0138887D01*
X0243370Y0143391D01*
X0251043Y0141139D02*
X0254046Y0141139D01*
X0254046Y0141890D02*
X0254046Y0138887D01*
X0255647Y0139638D02*
X0256398Y0138887D01*
X0257899Y0138887D01*
X0258650Y0139638D01*
X0258650Y0140388D01*
X0257899Y0141139D01*
X0256398Y0141139D01*
X0255647Y0141890D01*
X0255647Y0142640D01*
X0256398Y0143391D01*
X0257899Y0143391D01*
X0258650Y0142640D01*
X0260251Y0141890D02*
X0261752Y0143391D01*
X0261752Y0138887D01*
X0260251Y0138887D02*
X0263254Y0138887D01*
X0254046Y0141890D02*
X0252545Y0143391D01*
X0251622Y0133091D02*
X0252373Y0132340D01*
X0252373Y0131590D01*
X0251622Y0130839D01*
X0252373Y0130088D01*
X0252373Y0129338D01*
X0251622Y0128587D01*
X0250121Y0128587D01*
X0249370Y0129338D01*
X0250871Y0130839D02*
X0251622Y0130839D01*
X0251622Y0133091D02*
X0250121Y0133091D01*
X0249370Y0132340D01*
X0258870Y0131590D02*
X0260371Y0133091D01*
X0260371Y0128587D01*
X0258870Y0128587D02*
X0261873Y0128587D01*
X0278066Y0129193D02*
X0278066Y0126191D01*
X0280318Y0126191D01*
X0279568Y0127692D01*
X0279568Y0128443D01*
X0280318Y0129193D01*
X0281819Y0129193D01*
X0282570Y0128443D01*
X0282570Y0126942D01*
X0281819Y0126191D01*
X0282570Y0124590D02*
X0282570Y0121587D01*
X0282570Y0123088D02*
X0278066Y0123088D01*
X0279568Y0121587D01*
X0278817Y0130795D02*
X0278066Y0131545D01*
X0278066Y0133047D01*
X0278817Y0133797D01*
X0281819Y0130795D01*
X0282570Y0131545D01*
X0282570Y0133047D01*
X0281819Y0133797D01*
X0278817Y0133797D01*
X0278066Y0135399D02*
X0278066Y0137651D01*
X0278817Y0138401D01*
X0280318Y0138401D01*
X0281069Y0137651D01*
X0281069Y0135399D01*
X0281069Y0136900D02*
X0282570Y0138401D01*
X0282570Y0135399D02*
X0278066Y0135399D01*
X0278817Y0130795D02*
X0281819Y0130795D01*
X0293666Y0131294D02*
X0293666Y0129793D01*
X0294417Y0129043D01*
X0297419Y0129043D01*
X0294417Y0132045D01*
X0297419Y0132045D01*
X0298170Y0131294D01*
X0298170Y0129793D01*
X0297419Y0129043D01*
X0298170Y0127441D02*
X0298170Y0124439D01*
X0298170Y0125940D02*
X0293666Y0125940D01*
X0295168Y0124439D01*
X0293666Y0131294D02*
X0294417Y0132045D01*
X0294417Y0133646D02*
X0293666Y0134397D01*
X0293666Y0135898D01*
X0294417Y0136649D01*
X0297419Y0133646D01*
X0298170Y0134397D01*
X0298170Y0135898D01*
X0297419Y0136649D01*
X0294417Y0136649D01*
X0293666Y0138250D02*
X0298170Y0138250D01*
X0296669Y0138250D02*
X0295168Y0140502D01*
X0296669Y0138250D02*
X0298170Y0140502D01*
X0297419Y0133646D02*
X0294417Y0133646D01*
X0316826Y0140039D02*
X0319828Y0140039D01*
X0321430Y0138538D02*
X0321430Y0137787D01*
X0321430Y0138538D02*
X0324432Y0141540D01*
X0324432Y0142291D01*
X0321430Y0142291D01*
X0319078Y0142291D02*
X0316826Y0140039D01*
X0319078Y0137787D02*
X0319078Y0142291D01*
X0326033Y0142291D02*
X0326033Y0137787D01*
X0326033Y0139288D02*
X0328285Y0140790D01*
X0326033Y0139288D02*
X0328285Y0137787D01*
X0326977Y0132891D02*
X0326977Y0128387D01*
X0323974Y0128387D02*
X0323974Y0132891D01*
X0325475Y0131390D01*
X0326977Y0132891D01*
X0322373Y0132140D02*
X0321622Y0132891D01*
X0320121Y0132891D01*
X0319370Y0132140D01*
X0322373Y0132140D02*
X0322373Y0131390D01*
X0319370Y0128387D01*
X0322373Y0128387D01*
X0321474Y0122891D02*
X0324477Y0122891D01*
X0324477Y0122140D01*
X0321474Y0119138D01*
X0321474Y0118387D01*
X0319122Y0118387D02*
X0319122Y0122891D01*
X0316870Y0120639D01*
X0319873Y0120639D01*
X0326078Y0119138D02*
X0326078Y0122140D01*
X0326829Y0122891D01*
X0328330Y0122891D01*
X0329080Y0122140D01*
X0326078Y0119138D01*
X0326829Y0118387D01*
X0328330Y0118387D01*
X0329080Y0119138D01*
X0329080Y0122140D01*
X0330682Y0122891D02*
X0330682Y0118387D01*
X0330682Y0119888D02*
X0332934Y0121390D01*
X0330682Y0119888D02*
X0332934Y0118387D01*
X0358066Y0140588D02*
X0362570Y0140588D01*
X0362570Y0139087D02*
X0362570Y0142090D01*
X0362570Y0143691D02*
X0358066Y0143691D01*
X0359568Y0145943D02*
X0361069Y0143691D01*
X0362570Y0145943D01*
X0358066Y0140588D02*
X0359568Y0139087D01*
X0338269Y0151540D02*
X0338269Y0152291D01*
X0335266Y0152291D01*
X0333681Y0150790D02*
X0331430Y0149288D01*
X0333681Y0147787D01*
X0335266Y0147787D02*
X0335266Y0148538D01*
X0338269Y0151540D01*
X0331430Y0152291D02*
X0331430Y0147787D01*
X0329078Y0147787D02*
X0329078Y0152291D01*
X0326826Y0150039D01*
X0329828Y0150039D01*
X0259434Y0114090D02*
X0257182Y0112588D01*
X0259434Y0111087D01*
X0257182Y0111087D02*
X0257182Y0115591D01*
X0255580Y0114840D02*
X0252578Y0111838D01*
X0253329Y0111087D01*
X0254830Y0111087D01*
X0255580Y0111838D01*
X0255580Y0114840D01*
X0254830Y0115591D01*
X0253329Y0115591D01*
X0252578Y0114840D01*
X0252578Y0111838D01*
X0250977Y0111838D02*
X0250226Y0111087D01*
X0248725Y0111087D01*
X0247974Y0111838D01*
X0250977Y0114840D01*
X0250977Y0111838D01*
X0247974Y0111838D02*
X0247974Y0114840D01*
X0248725Y0115591D01*
X0250226Y0115591D01*
X0250977Y0114840D01*
X0244871Y0115591D02*
X0244871Y0111087D01*
X0243370Y0111087D02*
X0246373Y0111087D01*
X0243370Y0114090D02*
X0244871Y0115591D01*
X0233670Y0118103D02*
X0229166Y0118103D01*
X0229166Y0116602D02*
X0229166Y0119605D01*
X0229166Y0121206D02*
X0229166Y0123458D01*
X0229917Y0124208D01*
X0231418Y0124208D01*
X0232169Y0123458D01*
X0232169Y0121206D01*
X0233670Y0121206D02*
X0229166Y0121206D01*
X0232169Y0122707D02*
X0233670Y0124208D01*
X0233670Y0125810D02*
X0233670Y0127311D01*
X0233670Y0126560D02*
X0229166Y0126560D01*
X0229166Y0125810D02*
X0229166Y0127311D01*
X0229166Y0128879D02*
X0230668Y0130380D01*
X0229166Y0131882D01*
X0233670Y0131882D01*
X0233670Y0133483D02*
X0233670Y0136486D01*
X0233670Y0134984D02*
X0229166Y0134984D01*
X0230668Y0133483D01*
X0229166Y0128879D02*
X0233670Y0128879D01*
X0223370Y0129484D02*
X0218866Y0129484D01*
X0220368Y0127983D01*
X0223370Y0127983D02*
X0223370Y0130986D01*
X0222619Y0137483D02*
X0223370Y0138234D01*
X0223370Y0139735D01*
X0222619Y0140486D01*
X0221869Y0140486D01*
X0221118Y0139735D01*
X0221118Y0138984D01*
X0221118Y0139735D02*
X0220368Y0140486D01*
X0219617Y0140486D01*
X0218866Y0139735D01*
X0218866Y0138234D01*
X0219617Y0137483D01*
X0205870Y0139646D02*
X0202868Y0142649D01*
X0202117Y0142649D01*
X0201366Y0141898D01*
X0201366Y0140397D01*
X0202117Y0139646D01*
X0205870Y0139646D02*
X0205870Y0142649D01*
X0205870Y0144250D02*
X0201366Y0144250D01*
X0202868Y0146502D02*
X0204369Y0144250D01*
X0205870Y0146502D01*
X0193170Y0145502D02*
X0191669Y0143250D01*
X0190168Y0145502D01*
X0188666Y0143250D02*
X0193170Y0143250D01*
X0192419Y0141649D02*
X0193170Y0140898D01*
X0193170Y0139397D01*
X0192419Y0138646D01*
X0189417Y0141649D01*
X0192419Y0141649D01*
X0189417Y0141649D02*
X0188666Y0140898D01*
X0188666Y0139397D01*
X0189417Y0138646D01*
X0192419Y0138646D01*
X0193170Y0137045D02*
X0193170Y0134043D01*
X0190168Y0137045D01*
X0189417Y0137045D01*
X0188666Y0136294D01*
X0188666Y0134793D01*
X0189417Y0134043D01*
X0188666Y0130940D02*
X0193170Y0130940D01*
X0193170Y0129439D02*
X0193170Y0132441D01*
X0190168Y0129439D02*
X0188666Y0130940D01*
X0173170Y0131146D02*
X0170168Y0134149D01*
X0169417Y0134149D01*
X0168666Y0133398D01*
X0168666Y0131897D01*
X0169417Y0131146D01*
X0173170Y0131146D02*
X0173170Y0134149D01*
X0173170Y0135750D02*
X0168666Y0135750D01*
X0170168Y0138002D02*
X0171669Y0135750D01*
X0173170Y0138002D01*
X0162570Y0139045D02*
X0161819Y0138295D01*
X0158817Y0141297D01*
X0161819Y0141297D01*
X0162570Y0140547D01*
X0162570Y0139045D01*
X0161819Y0138295D02*
X0158817Y0138295D01*
X0158066Y0139045D01*
X0158066Y0140547D01*
X0158817Y0141297D01*
X0158066Y0142899D02*
X0162570Y0142899D01*
X0161069Y0142899D02*
X0159568Y0145151D01*
X0161069Y0142899D02*
X0162570Y0145151D01*
X0153170Y0143002D02*
X0151669Y0140750D01*
X0150168Y0143002D01*
X0148666Y0140750D02*
X0153170Y0140750D01*
X0152419Y0139149D02*
X0153170Y0138398D01*
X0153170Y0136897D01*
X0152419Y0136146D01*
X0149417Y0139149D01*
X0152419Y0139149D01*
X0149417Y0139149D02*
X0148666Y0138398D01*
X0148666Y0136897D01*
X0149417Y0136146D01*
X0152419Y0136146D01*
X0152419Y0134545D02*
X0149417Y0134545D01*
X0152419Y0131543D01*
X0153170Y0132293D01*
X0153170Y0133794D01*
X0152419Y0134545D01*
X0149417Y0134545D02*
X0148666Y0133794D01*
X0148666Y0132293D01*
X0149417Y0131543D01*
X0152419Y0131543D01*
X0153170Y0129941D02*
X0153170Y0126939D01*
X0153170Y0128440D02*
X0148666Y0128440D01*
X0150168Y0126939D01*
X0143170Y0126939D02*
X0143170Y0129941D01*
X0143170Y0128440D02*
X0138666Y0128440D01*
X0140168Y0126939D01*
X0139417Y0131543D02*
X0138666Y0132293D01*
X0138666Y0133794D01*
X0139417Y0134545D01*
X0142419Y0131543D01*
X0143170Y0132293D01*
X0143170Y0133794D01*
X0142419Y0134545D01*
X0139417Y0134545D01*
X0139417Y0136146D02*
X0138666Y0136897D01*
X0138666Y0138398D01*
X0139417Y0139149D01*
X0142419Y0136146D01*
X0143170Y0136897D01*
X0143170Y0138398D01*
X0142419Y0139149D01*
X0139417Y0139149D01*
X0138666Y0140750D02*
X0143170Y0140750D01*
X0141669Y0140750D02*
X0140168Y0143002D01*
X0141669Y0140750D02*
X0143170Y0143002D01*
X0142419Y0136146D02*
X0139417Y0136146D01*
X0133170Y0135750D02*
X0128666Y0135750D01*
X0129417Y0134149D02*
X0128666Y0133398D01*
X0128666Y0131897D01*
X0129417Y0131146D01*
X0129417Y0134149D02*
X0130168Y0134149D01*
X0133170Y0131146D01*
X0133170Y0134149D01*
X0131669Y0135750D02*
X0130168Y0138002D01*
X0131669Y0135750D02*
X0133170Y0138002D01*
X0139417Y0131543D02*
X0142419Y0131543D01*
X0158066Y0130588D02*
X0159568Y0129087D01*
X0158066Y0130588D02*
X0162570Y0130588D01*
X0162570Y0129087D02*
X0162570Y0132090D01*
X0161819Y0133691D02*
X0158817Y0133691D01*
X0158066Y0134442D01*
X0158066Y0135943D01*
X0158817Y0136693D01*
X0161819Y0133691D01*
X0162570Y0134442D01*
X0162570Y0135943D01*
X0161819Y0136693D01*
X0158817Y0136693D01*
X0193370Y0158087D02*
X0196373Y0161090D01*
X0196373Y0161840D01*
X0195622Y0162591D01*
X0194121Y0162591D01*
X0193370Y0161840D01*
X0192374Y0163837D02*
X0208866Y0163837D01*
X0209434Y0162591D02*
X0207932Y0162591D01*
X0207182Y0161840D01*
X0207182Y0161090D01*
X0207932Y0160339D01*
X0210184Y0160339D01*
X0210184Y0161840D02*
X0209434Y0162591D01*
X0210184Y0161840D02*
X0210184Y0158838D01*
X0209434Y0158087D01*
X0207932Y0158087D01*
X0207182Y0158838D01*
X0205580Y0158838D02*
X0204830Y0158087D01*
X0203329Y0158087D01*
X0202578Y0158838D01*
X0200977Y0158087D02*
X0200977Y0162591D01*
X0202578Y0161840D02*
X0203329Y0162591D01*
X0204830Y0162591D01*
X0205580Y0161840D01*
X0205580Y0161090D01*
X0204830Y0160339D01*
X0205580Y0159588D01*
X0205580Y0158838D01*
X0204830Y0160339D02*
X0204079Y0160339D01*
X0200977Y0158087D02*
X0197974Y0162591D01*
X0197974Y0158087D01*
X0196373Y0158087D02*
X0193370Y0158087D01*
X0191747Y0169337D02*
X0190168Y0169337D01*
X0199493Y0169337D02*
X0201747Y0169337D01*
X0192374Y0163837D02*
X0192221Y0164036D01*
X0192073Y0164238D01*
X0191930Y0164443D01*
X0191792Y0164652D01*
X0191659Y0164864D01*
X0191531Y0165079D01*
X0191409Y0165297D01*
X0191291Y0165518D01*
X0191179Y0165742D01*
X0191072Y0165968D01*
X0190971Y0166197D01*
X0190875Y0166428D01*
X0190784Y0166662D01*
X0190699Y0166897D01*
X0190620Y0167135D01*
X0190547Y0167374D01*
X0190479Y0167615D01*
X0190417Y0167857D01*
X0190361Y0168101D01*
X0190310Y0168347D01*
X0190266Y0168593D01*
X0190227Y0168840D01*
X0190195Y0169088D01*
X0190168Y0169337D01*
X0190146Y0169592D01*
X0190131Y0169848D01*
X0190123Y0170104D01*
X0190120Y0170361D01*
X0190124Y0170617D01*
X0190134Y0170873D01*
X0190150Y0171129D01*
X0190172Y0171384D01*
X0190201Y0171639D01*
X0190236Y0171893D01*
X0190277Y0172146D01*
X0190324Y0172398D01*
X0190378Y0172648D01*
X0190437Y0172897D01*
X0190503Y0173145D01*
X0190574Y0173391D01*
X0190652Y0173636D01*
X0190735Y0173878D01*
X0190824Y0174118D01*
X0190920Y0174356D01*
X0191021Y0174592D01*
X0191127Y0174825D01*
X0191240Y0175055D01*
X0191358Y0175283D01*
X0191481Y0175507D01*
X0191610Y0175729D01*
X0191744Y0175947D01*
X0191884Y0176162D01*
X0192029Y0176373D01*
X0192179Y0176581D01*
X0192333Y0176785D01*
X0192493Y0176986D01*
X0192658Y0177182D01*
X0192827Y0177374D01*
X0193002Y0177563D01*
X0193180Y0177746D01*
X0193363Y0177926D01*
X0193551Y0178101D01*
X0193742Y0178271D01*
X0193938Y0178436D01*
X0194138Y0178597D01*
X0194341Y0178753D01*
X0194548Y0178903D01*
X0194759Y0179049D01*
X0194974Y0179190D01*
X0195191Y0179325D01*
X0195412Y0179455D01*
X0195636Y0179579D01*
X0195863Y0179698D01*
X0196093Y0179811D01*
X0196326Y0179919D01*
X0196561Y0180021D01*
X0196799Y0180117D01*
X0197038Y0180207D01*
X0197280Y0180292D01*
X0197524Y0180370D01*
X0203716Y0180370D02*
X0203958Y0180292D01*
X0204198Y0180208D01*
X0204436Y0180119D01*
X0204672Y0180024D01*
X0204906Y0179922D01*
X0205137Y0179816D01*
X0205365Y0179703D01*
X0205591Y0179586D01*
X0205814Y0179463D01*
X0206033Y0179334D01*
X0206250Y0179200D01*
X0206463Y0179061D01*
X0206673Y0178917D01*
X0206879Y0178768D01*
X0207081Y0178614D01*
X0207280Y0178455D01*
X0207475Y0178291D01*
X0207666Y0178122D01*
X0207852Y0177949D01*
X0208035Y0177772D01*
X0208213Y0177590D01*
X0208386Y0177404D01*
X0208555Y0177213D01*
X0208719Y0177019D01*
X0208879Y0176821D01*
X0209034Y0176619D01*
X0209183Y0176413D01*
X0209328Y0176204D01*
X0209468Y0175991D01*
X0209602Y0175775D01*
X0209731Y0175555D01*
X0209855Y0175333D01*
X0209974Y0175108D01*
X0210086Y0174880D01*
X0210194Y0174649D01*
X0210295Y0174416D01*
X0210391Y0174180D01*
X0210482Y0173942D01*
X0210566Y0173702D01*
X0210645Y0173460D01*
X0210718Y0173216D01*
X0210784Y0172970D01*
X0210845Y0172723D01*
X0210900Y0172475D01*
X0210949Y0172225D01*
X0210992Y0171974D01*
X0211028Y0171722D01*
X0211059Y0171470D01*
X0211083Y0171216D01*
X0211101Y0170963D01*
X0211113Y0170708D01*
X0211119Y0170454D01*
X0211119Y0170199D01*
X0211113Y0169945D01*
X0211100Y0169691D01*
X0211081Y0169437D01*
X0211056Y0169184D01*
X0211025Y0168931D01*
X0210988Y0168679D01*
X0210945Y0168429D01*
X0210896Y0168179D01*
X0210840Y0167930D01*
X0210779Y0167683D01*
X0210712Y0167438D01*
X0210639Y0167194D01*
X0210560Y0166952D01*
X0210475Y0166713D01*
X0210384Y0166475D01*
X0210287Y0166239D01*
X0210185Y0166006D01*
X0210077Y0165776D01*
X0209964Y0165548D01*
X0209845Y0165323D01*
X0209721Y0165101D01*
X0209591Y0164882D01*
X0209457Y0164666D01*
X0209317Y0164453D01*
X0209171Y0164244D01*
X0209021Y0164039D01*
X0208866Y0163837D01*
X0211786Y0161840D02*
X0212536Y0162591D01*
X0214038Y0162591D01*
X0214788Y0161840D01*
X0211786Y0158838D01*
X0212536Y0158087D01*
X0214038Y0158087D01*
X0214788Y0158838D01*
X0214788Y0161840D01*
X0216390Y0160339D02*
X0218642Y0162591D01*
X0218642Y0158087D01*
X0219392Y0160339D02*
X0216390Y0160339D01*
X0211786Y0158838D02*
X0211786Y0161840D01*
X0211072Y0169337D02*
X0209493Y0169337D01*
X0162892Y0180339D02*
X0162142Y0179588D01*
X0159890Y0179588D01*
X0159890Y0178087D02*
X0159890Y0182591D01*
X0162142Y0182591D01*
X0162892Y0181840D01*
X0162892Y0180339D01*
X0158288Y0181090D02*
X0158288Y0181840D01*
X0157538Y0182591D01*
X0156036Y0182591D01*
X0155286Y0181840D01*
X0153684Y0181840D02*
X0150682Y0178838D01*
X0150682Y0178087D01*
X0149080Y0178838D02*
X0148330Y0178087D01*
X0146829Y0178087D01*
X0146078Y0178838D01*
X0149080Y0181840D01*
X0149080Y0178838D01*
X0146078Y0178838D02*
X0146078Y0181840D01*
X0146829Y0182591D01*
X0148330Y0182591D01*
X0149080Y0181840D01*
X0150682Y0182591D02*
X0153684Y0182591D01*
X0153684Y0181840D01*
X0155286Y0178087D02*
X0158288Y0181090D01*
X0158288Y0178087D02*
X0155286Y0178087D01*
X0144477Y0178087D02*
X0141474Y0178087D01*
X0141474Y0182591D01*
X0139873Y0182591D02*
X0136870Y0182591D01*
X0138371Y0182591D02*
X0138371Y0178087D01*
D13*
X0076820Y0182337D02*
X0076820Y0185337D01*
X0076820Y0188337D01*
X0074320Y0188337D02*
X0074320Y0185337D01*
X0074320Y0182337D01*
X0074420Y0197337D02*
X0074420Y0200337D01*
X0074420Y0203337D01*
X0076920Y0203337D02*
X0076920Y0200337D01*
X0076920Y0197337D01*
X0215120Y0245837D02*
X0219120Y0241837D01*
X0240120Y0239837D02*
X0244120Y0243837D01*
X0212120Y0128837D02*
X0216120Y0124837D01*
X0262120Y0121837D02*
X0266120Y0125837D01*
D14*
X0060620Y0158369D02*
X0060620Y0166243D01*
X0060620Y0214431D02*
X0060620Y0222306D01*
D15*
X0275970Y0183192D02*
X0275970Y0176887D01*
X0280174Y0176887D01*
X0282416Y0176887D02*
X0282416Y0183192D01*
X0284517Y0181091D01*
X0286619Y0183192D01*
X0286619Y0176887D01*
X0288861Y0176887D02*
X0293065Y0176887D01*
X0290963Y0176887D02*
X0290963Y0183192D01*
X0288861Y0181091D01*
X0295307Y0182141D02*
X0296357Y0183192D01*
X0298459Y0183192D01*
X0299510Y0182141D01*
X0299510Y0181091D01*
X0298459Y0180040D01*
X0299510Y0178989D01*
X0299510Y0177938D01*
X0298459Y0176887D01*
X0296357Y0176887D01*
X0295307Y0177938D01*
X0297408Y0180040D02*
X0298459Y0180040D01*
X0301752Y0177938D02*
X0301752Y0176887D01*
X0301752Y0177938D02*
X0305956Y0182141D01*
X0305956Y0183192D01*
X0301752Y0183192D01*
X0308198Y0182141D02*
X0308198Y0177938D01*
X0312401Y0182141D01*
X0312401Y0177938D01*
X0311350Y0176887D01*
X0309248Y0176887D01*
X0308198Y0177938D01*
X0314643Y0177938D02*
X0318847Y0182141D01*
X0318847Y0177938D01*
X0317796Y0176887D01*
X0315694Y0176887D01*
X0314643Y0177938D01*
X0314643Y0182141D01*
X0315694Y0183192D01*
X0317796Y0183192D01*
X0318847Y0182141D01*
X0321089Y0183192D02*
X0325292Y0176887D01*
X0325292Y0183192D01*
X0321089Y0183192D02*
X0321089Y0176887D01*
X0312401Y0182141D02*
X0311350Y0183192D01*
X0309248Y0183192D01*
X0308198Y0182141D01*
D16*
X0332746Y0076597D02*
X0332746Y0040770D01*
X0332746Y0032896D01*
X0337077Y0032896D01*
X0337077Y0040376D01*
X0332746Y0040770D02*
X0398494Y0040770D01*
X0398494Y0076597D01*
X0332746Y0076597D01*
X0332746Y0048644D02*
X0398494Y0048644D01*
X0379006Y0040376D02*
X0379006Y0016361D01*
X0377037Y0015180D01*
X0354203Y0015180D01*
X0352234Y0016361D01*
X0352234Y0040376D01*
X0352628Y0037522D02*
X0378612Y0039589D01*
X0378612Y0037620D02*
X0352628Y0035554D01*
X0352628Y0033585D02*
X0378612Y0035652D01*
X0378612Y0033683D02*
X0352628Y0031617D01*
X0352628Y0029648D02*
X0378612Y0031715D01*
X0378612Y0029746D02*
X0352628Y0027680D01*
X0352628Y0025711D02*
X0378612Y0027778D01*
X0378612Y0025809D02*
X0352628Y0023743D01*
X0352628Y0021774D02*
X0378612Y0023841D01*
X0378612Y0021872D02*
X0352628Y0019806D01*
X0352628Y0017837D02*
X0378612Y0019904D01*
X0378612Y0017935D02*
X0353514Y0015869D01*
X0354203Y0015180D02*
X0354203Y0001400D01*
X0377037Y0001400D01*
X0377037Y0015180D01*
X0198494Y0040770D02*
X0198494Y0076597D01*
X0132746Y0076597D01*
X0132746Y0040770D01*
X0132746Y0032896D01*
X0137077Y0032896D01*
X0137077Y0040376D01*
X0132746Y0040770D02*
X0198494Y0040770D01*
X0198494Y0048644D02*
X0132746Y0048644D01*
X0152234Y0040376D02*
X0152234Y0016361D01*
X0154203Y0015180D01*
X0177037Y0015180D01*
X0179006Y0016361D01*
X0179006Y0040376D01*
X0178612Y0039589D02*
X0152628Y0037522D01*
X0152628Y0035554D02*
X0178612Y0037620D01*
X0178612Y0035652D02*
X0152628Y0033585D01*
X0152628Y0031617D02*
X0178612Y0033683D01*
X0178612Y0031715D02*
X0152628Y0029648D01*
X0152628Y0027680D02*
X0178612Y0029746D01*
X0178612Y0027778D02*
X0152628Y0025711D01*
X0152628Y0023743D02*
X0178612Y0025809D01*
X0178612Y0023841D02*
X0152628Y0021774D01*
X0152628Y0019806D02*
X0178612Y0021872D01*
X0178612Y0019904D02*
X0152628Y0017837D01*
X0153514Y0015869D02*
X0178612Y0017935D01*
X0177037Y0015180D02*
X0177037Y0001400D01*
X0154203Y0001400D01*
X0154203Y0015180D01*
D17*
X0149434Y0070537D02*
X0147132Y0072072D01*
X0149434Y0073606D01*
X0147132Y0075141D02*
X0147132Y0070537D01*
X0145597Y0071304D02*
X0144830Y0070537D01*
X0143295Y0070537D01*
X0142528Y0071304D01*
X0145597Y0074374D01*
X0145597Y0071304D01*
X0142528Y0071304D02*
X0142528Y0074374D01*
X0143295Y0075141D01*
X0144830Y0075141D01*
X0145597Y0074374D01*
X0140993Y0074374D02*
X0140993Y0071304D01*
X0140226Y0070537D01*
X0138691Y0070537D01*
X0137924Y0071304D01*
X0140993Y0074374D01*
X0140226Y0075141D01*
X0138691Y0075141D01*
X0137924Y0074374D01*
X0137924Y0071304D01*
X0136389Y0070537D02*
X0133320Y0070537D01*
X0134855Y0070537D02*
X0134855Y0075141D01*
X0133320Y0073606D01*
X0180820Y0075141D02*
X0180820Y0070537D01*
X0183889Y0070537D01*
X0185424Y0070537D02*
X0188493Y0070537D01*
X0190028Y0072072D02*
X0191563Y0070537D01*
X0193097Y0072072D01*
X0193097Y0075141D01*
X0194632Y0074374D02*
X0195399Y0075141D01*
X0196934Y0075141D01*
X0197701Y0074374D01*
X0197701Y0073606D01*
X0194632Y0070537D01*
X0197701Y0070537D01*
X0190028Y0072072D02*
X0190028Y0075141D01*
X0188493Y0075141D02*
X0185424Y0075141D01*
X0185424Y0070537D01*
X0185424Y0072839D02*
X0186959Y0072839D01*
X0333320Y0073606D02*
X0334855Y0075141D01*
X0334855Y0070537D01*
X0336389Y0070537D02*
X0333320Y0070537D01*
X0337924Y0071304D02*
X0337924Y0074374D01*
X0338691Y0075141D01*
X0340226Y0075141D01*
X0340993Y0074374D01*
X0337924Y0071304D01*
X0338691Y0070537D01*
X0340226Y0070537D01*
X0340993Y0071304D01*
X0340993Y0074374D01*
X0342528Y0074374D02*
X0343295Y0075141D01*
X0344830Y0075141D01*
X0345597Y0074374D01*
X0342528Y0071304D01*
X0343295Y0070537D01*
X0344830Y0070537D01*
X0345597Y0071304D01*
X0345597Y0074374D01*
X0347132Y0075141D02*
X0347132Y0070537D01*
X0347132Y0072072D02*
X0349434Y0073606D01*
X0347132Y0072072D02*
X0349434Y0070537D01*
X0342528Y0071304D02*
X0342528Y0074374D01*
X0375820Y0075141D02*
X0375820Y0070537D01*
X0378889Y0070537D01*
X0380424Y0070537D02*
X0383493Y0070537D01*
X0385028Y0072072D02*
X0386563Y0070537D01*
X0388097Y0072072D01*
X0388097Y0075141D01*
X0389632Y0073606D02*
X0391166Y0075141D01*
X0391166Y0070537D01*
X0389632Y0070537D02*
X0392701Y0070537D01*
X0385028Y0072072D02*
X0385028Y0075141D01*
X0383493Y0075141D02*
X0380424Y0075141D01*
X0380424Y0070537D01*
X0380424Y0072839D02*
X0381959Y0072839D01*
X0035785Y0153537D02*
X0032716Y0153537D01*
X0035785Y0156606D01*
X0035785Y0157374D01*
X0035018Y0158141D01*
X0033483Y0158141D01*
X0032716Y0157374D01*
X0029647Y0158141D02*
X0028112Y0156606D01*
X0026578Y0155839D02*
X0023508Y0155839D01*
X0028112Y0153537D02*
X0031181Y0153537D01*
X0029647Y0153537D02*
X0029647Y0158141D01*
D18*
X0017120Y0149337D02*
X0044120Y0149337D01*
X0017120Y0149337D02*
X0017120Y0251337D01*
X0044120Y0251337D01*
X0044120Y0233337D01*
X0044120Y0227337D02*
X0044120Y0208337D01*
M02*
