G75*
%MOIN*%
%OFA0B0*%
%FSLAX25Y25*%
%IPPOS*%
%LPD*%
%AMOC8*
5,1,8,0,0,1.08239X$1,22.5*
%
%ADD10C,0.00000*%
%ADD11C,0.10800*%
%ADD12OC8,0.09300*%
%ADD13C,0.07100*%
%ADD14OC8,0.07100*%
%ADD15OC8,0.06000*%
%ADD16C,0.08400*%
%ADD17C,0.06000*%
%ADD18C,0.06000*%
%ADD19C,0.09400*%
%ADD20C,0.07887*%
%ADD21OC8,0.08200*%
%ADD22R,0.05950X0.05950*%
%ADD23C,0.04800*%
D10*
X0005620Y0040337D02*
X0005620Y0265298D01*
X0394321Y0265298D01*
X0394321Y0040337D01*
X0005620Y0040337D01*
D11*
X0015935Y0050180D02*
X0025935Y0050180D01*
X0060935Y0050180D02*
X0070935Y0050180D01*
X0105935Y0050180D02*
X0115935Y0050180D01*
X0131407Y0088487D02*
X0131407Y0098487D01*
X0115935Y0102148D02*
X0105935Y0102148D01*
X0086407Y0098487D02*
X0086407Y0088487D01*
X0070935Y0102148D02*
X0060935Y0102148D01*
X0041407Y0098487D02*
X0041407Y0088487D01*
X0025935Y0102148D02*
X0015935Y0102148D01*
X0215935Y0102148D02*
X0225935Y0102148D01*
X0241407Y0098487D02*
X0241407Y0088487D01*
X0260935Y0102148D02*
X0270935Y0102148D01*
X0286407Y0098487D02*
X0286407Y0088487D01*
X0305935Y0102148D02*
X0315935Y0102148D01*
X0331407Y0098487D02*
X0331407Y0088487D01*
X0315935Y0050180D02*
X0305935Y0050180D01*
X0270935Y0050180D02*
X0260935Y0050180D01*
X0225935Y0050180D02*
X0215935Y0050180D01*
D12*
X0085620Y0130337D03*
X0085620Y0235337D03*
X0260620Y0190337D03*
X0260620Y0170337D03*
D13*
X0085620Y0165337D03*
X0075620Y0220337D03*
D14*
X0085620Y0220337D03*
X0075620Y0165337D03*
D15*
X0065620Y0185337D03*
X0085620Y0185337D03*
X0085620Y0200337D03*
X0065620Y0200337D03*
X0130620Y0210337D03*
X0140620Y0210337D03*
X0150620Y0210337D03*
X0160620Y0210337D03*
X0170620Y0210337D03*
X0190620Y0215337D03*
X0195620Y0200337D03*
X0200620Y0192837D03*
X0205620Y0200337D03*
X0218120Y0200337D03*
X0225620Y0195337D03*
X0225620Y0205337D03*
X0235620Y0215337D03*
X0265620Y0215337D03*
X0280620Y0215337D03*
X0295620Y0210337D03*
X0310620Y0220337D03*
X0310620Y0230337D03*
X0310620Y0240337D03*
X0295620Y0240337D03*
X0280620Y0245337D03*
X0315620Y0210337D03*
X0340620Y0220337D03*
X0340620Y0230337D03*
X0340620Y0240337D03*
X0360620Y0230337D03*
X0345620Y0210337D03*
X0360620Y0200337D03*
X0360620Y0160337D03*
X0350620Y0150337D03*
X0340620Y0140337D03*
X0340620Y0130337D03*
X0340620Y0120337D03*
X0360620Y0130337D03*
X0320620Y0150337D03*
X0310620Y0140337D03*
X0310620Y0130337D03*
X0310620Y0120337D03*
X0295620Y0120337D03*
X0280620Y0115337D03*
X0280620Y0145337D03*
X0295620Y0150337D03*
X0265620Y0150337D03*
X0235620Y0150337D03*
X0225620Y0165337D03*
X0218120Y0170337D03*
X0225620Y0175337D03*
X0205620Y0170337D03*
X0200620Y0177837D03*
X0195620Y0170337D03*
X0190620Y0155337D03*
X0170620Y0150337D03*
X0160620Y0150337D03*
X0150620Y0150337D03*
X0140620Y0150337D03*
X0130620Y0150337D03*
X0130620Y0120337D03*
X0140620Y0120337D03*
X0150620Y0120337D03*
X0160620Y0120337D03*
X0170620Y0120337D03*
X0190620Y0125337D03*
X0170620Y0240337D03*
X0160620Y0240337D03*
X0150620Y0240337D03*
X0140620Y0240337D03*
X0130620Y0240337D03*
X0190620Y0245337D03*
D16*
X0060620Y0230180D03*
X0060620Y0210494D03*
X0060620Y0170180D03*
X0060620Y0150494D03*
D17*
X0135620Y0165337D03*
X0145620Y0165337D03*
X0155620Y0165337D03*
X0165620Y0165337D03*
X0165620Y0195337D03*
X0155620Y0195337D03*
X0145620Y0195337D03*
X0135620Y0195337D03*
D18*
X0210620Y0222737D02*
X0210620Y0227937D01*
X0220620Y0232737D02*
X0220620Y0237937D01*
X0210620Y0242737D02*
X0210620Y0247937D01*
X0238020Y0235337D02*
X0243220Y0235337D01*
X0248020Y0245337D02*
X0253220Y0245337D01*
X0258020Y0235337D02*
X0263220Y0235337D01*
X0275620Y0197937D02*
X0275620Y0192737D01*
X0285620Y0192737D02*
X0285620Y0197937D01*
X0295620Y0197937D02*
X0295620Y0192737D01*
X0305620Y0192737D02*
X0305620Y0197937D01*
X0315620Y0197937D02*
X0315620Y0192737D01*
X0325620Y0192737D02*
X0325620Y0197937D01*
X0335620Y0197937D02*
X0335620Y0192737D01*
X0345620Y0192737D02*
X0345620Y0197937D01*
X0345620Y0167937D02*
X0345620Y0162737D01*
X0335620Y0162737D02*
X0335620Y0167937D01*
X0325620Y0167937D02*
X0325620Y0162737D01*
X0315620Y0162737D02*
X0315620Y0167937D01*
X0305620Y0167937D02*
X0305620Y0162737D01*
X0295620Y0162737D02*
X0295620Y0167937D01*
X0285620Y0167937D02*
X0285620Y0162737D01*
X0275620Y0162737D02*
X0275620Y0167937D01*
X0220620Y0147937D02*
X0220620Y0142737D01*
X0210620Y0137937D02*
X0210620Y0132737D01*
X0220620Y0127937D02*
X0220620Y0122737D01*
X0243020Y0130337D02*
X0248220Y0130337D01*
X0253020Y0120337D02*
X0258220Y0120337D01*
X0263020Y0130337D02*
X0268220Y0130337D01*
D19*
X0345935Y0055337D03*
X0365620Y0055337D03*
X0385305Y0055337D03*
X0185305Y0055337D03*
X0165620Y0055337D03*
X0145935Y0055337D03*
D20*
X0155620Y0051794D02*
X0155620Y0058880D01*
X0175620Y0058880D02*
X0175620Y0051794D01*
X0355620Y0051794D02*
X0355620Y0058880D01*
X0375620Y0058880D02*
X0375620Y0051794D01*
D21*
X0035620Y0165337D03*
X0025620Y0165337D03*
X0025620Y0175337D03*
X0035620Y0175337D03*
X0035620Y0185337D03*
X0025620Y0185337D03*
X0025620Y0195337D03*
X0035620Y0195337D03*
X0035620Y0205337D03*
X0025620Y0205337D03*
X0025620Y0215337D03*
X0035620Y0215337D03*
X0035620Y0225337D03*
X0025620Y0225337D03*
X0025620Y0235337D03*
X0035620Y0235337D03*
D22*
X0210620Y0235337D03*
X0250620Y0235337D03*
X0220620Y0135337D03*
X0255620Y0130337D03*
D23*
X0311620Y0187937D03*
X0111820Y0209537D03*
M02*
